<svg width="56" height="56" viewBox="0 0 56 56" fill="none" xmlns="http://www.w3.org/2000/svg">
    <path d="M0 8C0 3.58172 3.58172 0 8 0H48C52.4183 0 56 3.58172 56 8V48C56 52.4183 52.4183 56 48 56H8C3.58172 56 0 52.4183 0 48V8Z" fill="#F8F6F3"/>
    <path d="M17.332 29.334C17.332 28.2294 18.2275 27.334 19.332 27.334H21.332C22.4366 27.334 23.332 28.2294 23.332 29.334V36.6673C23.332 37.7719 22.4366 38.6673 21.332 38.6673H19.332C18.2275 38.6673 17.332 37.7719 17.332 36.6673V29.334Z" stroke="#262626" stroke-linejoin="round"/>
    <path d="M32.6641 29.334C32.6641 28.2294 33.5595 27.334 34.6641 27.334H36.6641C37.7686 27.334 38.6641 28.2294 38.6641 29.334L38.6641 36.6673C38.6641 37.7719 37.7686 38.6673 36.6641 38.6673H34.6641C33.5595 38.6673 32.6641 37.7719 32.6641 36.6673L32.6641 29.334Z" stroke="#262626" stroke-linejoin="round"/>
    <path d="M17.332 32.6673V24.334C17.332 20.468 20.466 17.334 24.332 17.334L31.6654 17.334C35.5314 17.334 38.6654 20.468 38.6654 24.334V32.6673" stroke="#262626" stroke-linejoin="round"/>
</svg>
