<svg width="120" height="21" viewBox="0 0 120 21" fill="none" xmlns="http://www.w3.org/2000/svg">
    <path d="M18.8415 7.44187L13.1741 6.61821L10.6406 1.48205C10.5714 1.34142 10.4576 1.22758 10.317 1.15839C9.96429 0.984279 9.53572 1.12937 9.35938 1.48205L6.8259 6.61821L1.15849 7.44187C1.00224 7.46419 0.859382 7.53785 0.750007 7.64946C0.617779 7.78536 0.544915 7.96821 0.547426 8.15781C0.549937 8.34741 0.627618 8.52826 0.7634 8.66062L4.86385 12.6584L3.8951 18.3035C3.87238 18.4348 3.88691 18.5698 3.93704 18.6933C3.98718 18.8168 4.0709 18.9238 4.17873 19.0021C4.28656 19.0804 4.41417 19.1269 4.5471 19.1364C4.68003 19.1459 4.81296 19.1179 4.93081 19.0557L10 16.3905L15.0692 19.0557C15.2076 19.1294 15.3683 19.1539 15.5223 19.1271C15.9107 19.0602 16.1719 18.6919 16.1049 18.3035L15.1362 12.6584L19.2366 8.66062C19.3482 8.55124 19.4219 8.40839 19.4442 8.25214C19.5045 7.86151 19.2322 7.4999 18.8415 7.44187Z" fill="white"/>
    <path d="M43.8415 7.44162L38.1741 6.61796L35.6406 1.4818C35.5714 1.34118 35.4576 1.22734 35.317 1.15814C34.9643 0.984034 34.5357 1.12912 34.3594 1.4818L31.8259 6.61796L26.1585 7.44162C26.0022 7.46395 25.8594 7.53761 25.75 7.64921C25.6178 7.78512 25.5449 7.96796 25.5474 8.15757C25.5499 8.34717 25.6276 8.52802 25.7634 8.66037L29.8638 12.6581L28.8951 18.3032C28.8724 18.4345 28.8869 18.5696 28.937 18.6931C28.9872 18.8166 29.0709 18.9235 29.1787 19.0018C29.2866 19.0802 29.4142 19.1267 29.5471 19.1362C29.68 19.1456 29.813 19.1177 29.9308 19.0555L35 16.3903L40.0692 19.0555C40.2076 19.1291 40.3683 19.1537 40.5223 19.1269C40.9107 19.0599 41.1719 18.6916 41.1049 18.3032L40.1362 12.6581L44.2366 8.66037C44.3482 8.551 44.4219 8.40814 44.4442 8.25189C44.5045 7.86127 44.2322 7.49966 43.8415 7.44162Z" fill="white"/>
    <path d="M68.8415 7.44162L63.1741 6.61796L60.6406 1.4818C60.5714 1.34118 60.4576 1.22734 60.317 1.15814C59.9643 0.984034 59.5357 1.12912 59.3594 1.4818L56.8259 6.61796L51.1585 7.44162C51.0022 7.46395 50.8594 7.53761 50.75 7.64921C50.6178 7.78512 50.5449 7.96796 50.5474 8.15757C50.5499 8.34717 50.6276 8.52802 50.7634 8.66037L54.8638 12.6581L53.8951 18.3032C53.8724 18.4345 53.8869 18.5696 53.937 18.6931C53.9872 18.8166 54.0709 18.9235 54.1787 19.0018C54.2866 19.0802 54.4142 19.1267 54.5471 19.1362C54.68 19.1456 54.813 19.1177 54.9308 19.0555L60 16.3903L65.0692 19.0555C65.2076 19.1291 65.3683 19.1537 65.5223 19.1269C65.9107 19.0599 66.1719 18.6916 66.1049 18.3032L65.1362 12.6581L69.2366 8.66037C69.3482 8.551 69.4219 8.40814 69.4442 8.25189C69.5045 7.86127 69.2322 7.49966 68.8415 7.44162Z" fill="white"/>
    <path d="M93.8415 7.44162L88.1741 6.61796L85.6406 1.4818C85.5714 1.34118 85.4576 1.22734 85.317 1.15814C84.9643 0.984034 84.5357 1.12912 84.3594 1.4818L81.8259 6.61796L76.1585 7.44162C76.0022 7.46395 75.8594 7.53761 75.75 7.64921C75.6178 7.78512 75.5449 7.96796 75.5474 8.15757C75.5499 8.34717 75.6276 8.52802 75.7634 8.66037L79.8638 12.6581L78.8951 18.3032C78.8724 18.4345 78.8869 18.5696 78.937 18.6931C78.9872 18.8166 79.0709 18.9235 79.1787 19.0018C79.2866 19.0802 79.4142 19.1267 79.5471 19.1362C79.68 19.1456 79.813 19.1177 79.9308 19.0555L85 16.3903L90.0692 19.0555C90.2076 19.1291 90.3683 19.1537 90.5223 19.1269C90.9107 19.0599 91.1719 18.6916 91.1049 18.3032L90.1362 12.6581L94.2366 8.66037C94.3482 8.551 94.4219 8.40814 94.4442 8.25189C94.5045 7.86127 94.2322 7.49966 93.8415 7.44162Z" fill="white"/>
    <path d="M118.842 7.44162L113.174 6.61796L110.641 1.4818C110.571 1.34118 110.458 1.22734 110.317 1.15814C109.964 0.984034 109.536 1.12912 109.359 1.4818L106.826 6.61796L101.158 7.44162C101.002 7.46395 100.859 7.53761 100.75 7.64921C100.618 7.78512 100.545 7.96796 100.547 8.15757C100.55 8.34717 100.628 8.52802 100.763 8.66037L104.864 12.6581L103.895 18.3032C103.872 18.4345 103.887 18.5696 103.937 18.6931C103.987 18.8166 104.071 18.9235 104.179 19.0018C104.287 19.0802 104.414 19.1267 104.547 19.1362C104.68 19.1456 104.813 19.1177 104.931 19.0555L110 16.3903L115.069 19.0555C115.208 19.1291 115.368 19.1537 115.522 19.1269C115.911 19.0599 116.172 18.6916 116.105 18.3032L115.136 12.6581L119.237 8.66037C119.348 8.551 119.422 8.40814 119.444 8.25189C119.504 7.86127 119.232 7.49966 118.842 7.44162Z" fill="white"/>
</svg>
