<svg width="15" height="18" viewBox="0 0 15 18" fill="none" xmlns="http://www.w3.org/2000/svg">
    <path fill-rule="evenodd" clip-rule="evenodd" d="M7.49992 16.4889C7.05652 17.1944 7.05628 17.1943 7.05601 17.1941L7.05536 17.1937L7.05367 17.1926L7.0487 17.1895L7.03253 17.1791C7.01902 17.1705 7.00011 17.1582 6.97617 17.1424C6.92828 17.1109 6.8602 17.0653 6.7748 17.0062C6.60409 16.8879 6.36365 16.7152 6.07669 16.4919C5.50407 16.0463 4.73944 15.3943 3.97241 14.5678C2.45687 12.9346 0.833252 10.5121 0.833252 7.5826C0.833252 3.79155 3.78409 0.655518 7.49992 0.655518C11.2157 0.655518 14.1666 3.79155 14.1666 7.5826C14.1666 10.5121 12.543 12.9346 11.0274 14.5678C10.2604 15.3943 9.49576 16.0463 8.92315 16.4919C8.63619 16.7152 8.39575 16.8879 8.22504 17.0062C8.13964 17.0653 8.07155 17.1109 8.02367 17.1424C7.99973 17.1582 7.98082 17.1705 7.96731 17.1791L7.95113 17.1895L7.94616 17.1926L7.94447 17.1937L7.94383 17.1941C7.94356 17.1943 7.94332 17.1944 7.49992 16.4889ZM7.49992 16.4889L7.94332 17.1944C7.67226 17.3648 7.32758 17.3648 7.05652 17.1944L7.49992 16.4889ZM7.42843 4.28331C6.48255 3.77744 5.27987 3.92337 4.48215 4.72108C3.50584 5.69739 3.50584 7.28031 4.48215 8.25662L6.83917 10.6136C6.99546 10.7699 7.20742 10.8577 7.42843 10.8577C7.64944 10.8577 7.86141 10.7699 8.01769 10.6136L10.3747 8.25662C11.351 7.28031 11.351 5.69739 10.3747 4.72108C9.57699 3.92337 8.37431 3.77744 7.42843 4.28331Z" fill="white"/>
</svg>
