<svg width="16" height="16" viewBox="0 0 16 16" fill="none" xmlns="http://www.w3.org/2000/svg">
    <path d="M15.0728 5.16189L10.5389 4.50296L8.51212 0.394036C8.45676 0.281536 8.36569 0.190464 8.25319 0.135107C7.97104 -0.00417867 7.62819 0.111893 7.48711 0.394036L5.46033 4.50296L0.926401 5.16189C0.801401 5.17975 0.687115 5.23868 0.599615 5.32796C0.493832 5.43669 0.435541 5.58297 0.43755 5.73465C0.439559 5.88633 0.501704 6.03101 0.610329 6.13689L3.89069 9.33511L3.11569 13.8512C3.09751 13.9562 3.10914 14.0643 3.14924 14.1631C3.18935 14.2618 3.25633 14.3474 3.34259 14.4101C3.42886 14.4727 3.53095 14.5099 3.63729 14.5175C3.74364 14.5251 3.84998 14.5027 3.94426 14.453L7.99962 12.3208L12.055 14.453C12.1657 14.5119 12.2943 14.5315 12.4175 14.5101C12.7282 14.4565 12.9371 14.1619 12.8835 13.8512L12.1085 9.33511L15.3889 6.13689C15.4782 6.04939 15.5371 5.93511 15.555 5.81011C15.6032 5.49761 15.3853 5.20832 15.0728 5.16189Z" fill="#1C1C1C"/>
</svg>
