<svg width="21" height="20" viewBox="0 0 21 20" fill="none" xmlns="http://www.w3.org/2000/svg">
    <mask id="mask0_2018_12605" style="mask-type:luminance" maskUnits="userSpaceOnUse" x="0" y="0" width="21" height="20">
        <path d="M20.143 0H0.142822V20H20.143V0Z" fill="white"/>
    </mask>
    <g mask="url(#mask0_2018_12605)">
        <path d="M9.9892 0H10.3017C13.2798 0.141406 15.5388 2.475 15.5525 5.45937C15.5554 6.07057 15.5553 7.94531 15.5521 11.0836C15.5521 11.094 15.5562 11.1039 15.5636 11.1112C15.5709 11.1185 15.5808 11.1227 15.5912 11.1227L18.1119 11.1234C18.117 11.1235 18.1221 11.1225 18.1268 11.1206C18.1316 11.1186 18.1359 11.1158 18.1395 11.1121C18.1431 11.1085 18.146 11.1042 18.148 11.0994C18.15 11.0947 18.151 11.0895 18.151 11.0844V10.3559C18.151 10.3482 18.1487 10.3407 18.1446 10.3344C18.1404 10.328 18.1345 10.323 18.1275 10.3199C17.5834 10.0844 17.6436 9.31328 18.2295 9.21094C18.5283 9.15898 18.7932 9.34492 18.8756 9.63125C18.9658 9.94648 18.801 10.1719 18.5229 10.3227C18.5166 10.3259 18.5114 10.3309 18.5078 10.3369C18.5041 10.343 18.5022 10.3499 18.5022 10.357C18.5029 10.9695 18.5028 11.582 18.5018 12.1945C18.5018 12.3176 18.3799 12.3609 18.2678 12.3625C18.0368 12.3648 17.8061 12.3642 17.5756 12.3605C17.5704 12.3605 17.5652 12.3615 17.5604 12.3634C17.5555 12.3653 17.5511 12.3682 17.5474 12.3718C17.5437 12.3755 17.5408 12.3798 17.5388 12.3846C17.5368 12.3893 17.5357 12.3944 17.5357 12.3996C17.5357 14.572 17.5357 16.7443 17.5357 18.9164C17.5357 19.159 17.3037 19.109 17.1486 19.1129C17.1412 19.1131 17.1339 19.1155 17.1278 19.1197C17.1216 19.1239 17.1168 19.1298 17.1139 19.1367C17.0068 19.3888 16.8969 19.6395 16.7842 19.8887C16.7553 19.9523 16.7076 19.9828 16.6447 20H3.6368C3.56987 19.981 3.52586 19.9475 3.50477 19.8996C3.39461 19.6496 3.28445 19.3979 3.1743 19.1445C3.17164 19.1385 3.16758 19.1333 3.16247 19.1293C3.15736 19.1253 3.15136 19.1226 3.145 19.1215C2.98367 19.0934 2.75047 19.1727 2.75047 18.9109C2.75047 16.7419 2.75033 14.5729 2.75007 12.4039C2.75007 12.3937 2.746 12.3838 2.73875 12.3766C2.7315 12.3693 2.72166 12.3652 2.7114 12.3652C2.49447 12.3632 2.27885 12.3625 2.06452 12.3633C1.89929 12.3637 1.78288 12.3355 1.78327 12.1484C1.78483 11.5503 1.78418 10.9521 1.78132 10.3539C1.7813 10.3464 1.77912 10.339 1.77503 10.3327C1.77094 10.3264 1.76512 10.3214 1.75827 10.3184C0.960999 9.96016 1.59616 8.85703 2.27312 9.29727C2.68484 9.56523 2.59226 10.1316 2.15866 10.3203C2.1517 10.3233 2.14577 10.3283 2.14161 10.3346C2.13745 10.341 2.13523 10.3483 2.13523 10.3559V11.0852C2.13523 11.0955 2.13934 11.1055 2.14667 11.1128C2.15399 11.1201 2.16393 11.1242 2.17429 11.1242L4.69345 11.1227C4.70384 11.1226 4.71378 11.1184 4.72109 11.1111C4.72841 11.1038 4.73251 11.0939 4.73251 11.0836C4.73225 9.22135 4.7303 7.35964 4.72665 5.49844C4.72079 2.52148 7.00753 0.115234 9.9892 0ZM9.25481 1.09648C11.8181 0.559375 14.2365 2.36992 14.522 4.94219C14.5408 5.11146 14.5499 5.37148 14.5494 5.72227C14.5465 7.51497 14.5461 9.30339 14.5482 11.0875C14.5482 11.0927 14.5492 11.0978 14.5512 11.1025C14.5532 11.1073 14.5561 11.1116 14.5598 11.1153C14.5635 11.1189 14.5678 11.1218 14.5726 11.1237C14.5774 11.1256 14.5825 11.1266 14.5877 11.1266L15.1627 11.123C15.1729 11.123 15.1828 11.1189 15.19 11.1116C15.1973 11.1043 15.2013 11.0943 15.2013 11.084C15.2019 9.31706 15.202 7.54375 15.2017 5.76406C15.2015 5.41146 15.1937 5.15143 15.1783 4.98398C14.9041 2.01992 12.1755 -0.123828 9.20989 0.437891C6.96378 0.863672 5.32939 2.70859 5.10869 4.97227C5.0915 5.15039 5.08304 5.41042 5.0833 5.75234C5.08512 7.53854 5.08538 9.31641 5.08408 11.0859C5.08408 11.0964 5.08819 11.1064 5.09552 11.1138C5.10284 11.1212 5.11278 11.1254 5.12314 11.1254L5.7001 11.125C5.71046 11.125 5.72039 11.1209 5.72772 11.1136C5.73505 11.1062 5.73916 11.0963 5.73916 11.0859C5.73838 9.24401 5.73851 7.40182 5.73955 5.55938C5.73981 5.23021 5.75374 4.97057 5.78135 4.78047C6.05127 2.93477 7.43488 1.47773 9.25481 1.09648ZM9.8982 4.44961C9.9445 4.50742 9.9677 4.49935 9.9677 4.42539L9.9673 1.39609C9.9673 1.39073 9.9662 1.38541 9.9641 1.38049C9.962 1.37556 9.9589 1.37112 9.955 1.36746C9.9511 1.36379 9.9466 1.36098 9.9415 1.35918C9.9365 1.35739 9.9312 1.35666 9.9259 1.35703C9.22018 1.39974 8.569 1.60846 7.97238 1.9832C7.96772 1.98618 7.96375 1.9901 7.96071 1.99471C7.95767 1.99932 7.95564 2.00451 7.95475 2.00993C7.95386 2.01536 7.95414 2.0209 7.95556 2.02619C7.95699 2.03148 7.95952 2.0364 7.96301 2.04063L9.8982 4.44961ZM11.8666 2.475C11.9908 2.3112 12.1142 2.14779 12.2369 1.98477C12.2402 1.98037 12.2426 1.97533 12.2438 1.96997C12.2451 1.96461 12.2452 1.95905 12.2442 1.95367C12.2431 1.94828 12.241 1.94318 12.2378 1.93871C12.2347 1.93425 12.2306 1.9305 12.2259 1.92773C11.6514 1.58711 11.0297 1.39701 10.3607 1.35742C10.3554 1.3571 10.35 1.35788 10.345 1.35969C10.34 1.36151 10.3354 1.36434 10.3315 1.368C10.3277 1.37166 10.3246 1.37608 10.3225 1.38097C10.3203 1.38587 10.3193 1.39115 10.3193 1.39648L10.3185 4.42227C10.3185 4.48398 10.3371 4.49023 10.3744 4.44102C10.8728 3.78555 11.3702 3.13021 11.8666 2.475ZM12.5306 2.17812L10.5412 4.80078C10.5096 4.84245 10.5201 4.86328 10.5724 4.86328H14.1197C14.1254 4.8633 14.131 4.86208 14.1361 4.85971C14.1413 4.85735 14.1458 4.85389 14.1495 4.84958C14.1532 4.84527 14.1559 4.84021 14.1574 4.83475C14.159 4.82929 14.1593 4.82356 14.1584 4.81797C13.9774 3.7276 13.4532 2.84531 12.5857 2.17109C12.5816 2.16791 12.577 2.16557 12.572 2.1642C12.567 2.16283 12.5618 2.16247 12.5567 2.16312C12.5516 2.16377 12.5466 2.16544 12.5422 2.16801C12.5377 2.17059 12.5338 2.17402 12.5306 2.17812ZM7.20675 2.61055C6.61899 3.23268 6.26026 3.96862 6.13057 4.81836C6.12973 4.82393 6.13009 4.82961 6.13165 4.83502C6.13321 4.84043 6.13591 4.84544 6.13959 4.8497C6.14326 4.85397 6.14781 4.85739 6.15293 4.85974C6.15805 4.86208 6.16361 4.86329 6.16924 4.86328H9.7158C9.7592 4.86328 9.7673 4.84635 9.74 4.8125L7.67511 2.24297C7.66867 2.23492 7.6593 2.22975 7.64906 2.22858C7.63881 2.2274 7.62852 2.23033 7.62043 2.23672C7.46756 2.35573 7.32967 2.48034 7.20675 2.61055ZM9.9673 5.23047C9.9673 5.22622 9.9656 5.22215 9.9626 5.21914C9.9596 5.21614 9.9556 5.21445 9.9513 5.21445H6.10596C6.10171 5.21445 6.09764 5.21614 6.09464 5.21914C6.09163 5.22215 6.08995 5.22622 6.08995 5.23047V11.107C6.08995 11.1091 6.09036 11.1112 6.09116 11.1132C6.09197 11.1151 6.09315 11.1169 6.09464 11.1184C6.09612 11.1198 6.09789 11.121 6.09983 11.1218C6.10178 11.1226 6.10386 11.123 6.10596 11.123H9.9513C9.9534 11.123 9.9555 11.1226 9.9574 11.1218C9.9594 11.121 9.9611 11.1198 9.9626 11.1184C9.9641 11.1169 9.9653 11.1151 9.9661 11.1132C9.9669 11.1112 9.9673 11.1091 9.9673 11.107V5.23047ZM14.1963 5.225C14.1963 5.2222 14.1951 5.21952 14.1932 5.21754C14.1912 5.21556 14.1885 5.21445 14.1857 5.21445H10.3294C10.3266 5.21445 10.324 5.21556 10.322 5.21754C10.32 5.21952 10.3189 5.2222 10.3189 5.225V11.1125C10.3189 11.1153 10.32 11.118 10.322 11.12C10.324 11.1219 10.3266 11.123 10.3294 11.123H14.1857C14.1885 11.123 14.1912 11.1219 14.1932 11.12C14.1951 11.118 14.1963 11.1153 14.1963 11.1125V5.225ZM2.18601 9.77852C2.18601 9.71915 2.16243 9.66222 2.12045 9.62024C2.07847 9.57827 2.02154 9.55469 1.96218 9.55469C1.90281 9.55469 1.84588 9.57827 1.80391 9.62024C1.76193 9.66222 1.73835 9.71915 1.73835 9.77852C1.73835 9.83788 1.76193 9.89481 1.80391 9.93679C1.84588 9.97876 1.90281 10.0023 1.96218 10.0023C2.02154 10.0023 2.07847 9.97876 2.12045 9.93679C2.16243 9.89481 2.18601 9.83788 2.18601 9.77852ZM18.5479 9.77852C18.5479 9.71905 18.5242 9.66202 18.4822 9.61997C18.4401 9.57792 18.3831 9.5543 18.3236 9.5543C18.2642 9.5543 18.2071 9.57792 18.1651 9.61997C18.123 9.66202 18.0994 9.71905 18.0994 9.77852C18.0994 9.83798 18.123 9.89501 18.1651 9.93706C18.2071 9.97911 18.2642 10.0027 18.3236 10.0027C18.3831 10.0027 18.4401 9.97911 18.4822 9.93706C18.5242 9.89501 18.5479 9.83798 18.5479 9.77852ZM18.151 11.5039C18.151 11.4962 18.1479 11.4889 18.1425 11.4835C18.1371 11.478 18.1297 11.475 18.1221 11.475H2.16413C2.15647 11.475 2.14911 11.478 2.14369 11.4835C2.13827 11.4889 2.13523 11.4962 2.13523 11.5039V11.982C2.13523 11.9858 2.13597 11.9896 2.13743 11.9931C2.13888 11.9966 2.14101 11.9998 2.14369 12.0025C2.14638 12.0052 2.14956 12.0073 2.15307 12.0087C2.15658 12.0102 2.16034 12.0109 2.16413 12.0109H18.1221C18.1259 12.0109 18.1296 12.0102 18.1331 12.0087C18.1366 12.0073 18.1398 12.0052 18.1425 12.0025C18.1452 11.9998 18.1473 11.9966 18.1488 11.9931C18.1502 11.9896 18.151 11.9858 18.151 11.982V11.5039ZM6.36338 18.7305L6.36378 16.2645C6.3638 16.2563 6.36124 16.2483 6.35648 16.2416C6.35171 16.235 6.34497 16.23 6.33721 16.2273C5.67197 16.0039 5.69189 15.1578 6.33917 14.8961C6.34641 14.8932 6.35263 14.8882 6.35701 14.8818C6.3614 14.8754 6.36376 14.8679 6.36378 14.8602V12.4027C6.36378 12.3924 6.35966 12.3824 6.35233 12.3751C6.34501 12.3678 6.33507 12.3637 6.32471 12.3637L4.94775 12.3625C4.93739 12.3625 4.92745 12.3666 4.92013 12.3739C4.9128 12.3813 4.90869 12.3912 4.90869 12.4016V14.8637C4.90868 14.8716 4.91107 14.8793 4.91553 14.8859C4.91999 14.8924 4.92631 14.8975 4.93369 14.9004C5.56963 15.1469 5.5915 15.9949 4.93486 16.2207C4.9272 16.2233 4.92056 16.2283 4.91587 16.2349C4.91117 16.2414 4.90866 16.2493 4.90869 16.2574V18.7305C4.90869 18.7408 4.9128 18.7508 4.92013 18.7581C4.92745 18.7654 4.93739 18.7695 4.94775 18.7695H6.32432C6.33468 18.7695 6.34462 18.7654 6.35194 18.7581C6.35927 18.7508 6.36338 18.7408 6.36338 18.7305ZM6.73253 14.9016C7.37511 15.1137 7.39503 16.009 6.73253 16.2227C6.72468 16.2253 6.71786 16.2303 6.71303 16.2369C6.70819 16.2436 6.70558 16.2516 6.70557 16.2598V18.7305C6.70557 18.7408 6.70969 18.7508 6.71702 18.7581C6.72434 18.7654 6.73428 18.7695 6.74464 18.7695H8.1216C8.13196 18.7695 8.1419 18.7654 8.14922 18.758C8.15655 18.7506 8.16066 18.7405 8.16066 18.7301V16.2605C8.16066 16.2525 8.15818 16.2447 8.15357 16.2381C8.14896 16.2315 8.14243 16.2266 8.13488 16.2238C7.4841 15.9875 7.49269 15.1492 8.13566 14.9016C8.143 14.8988 8.14931 14.8938 8.15378 14.8873C8.15824 14.8809 8.16064 14.8731 8.16066 14.8652V12.4027C8.16066 12.3924 8.15655 12.3824 8.14922 12.3751C8.1419 12.3678 8.13196 12.3637 8.1216 12.3637L6.74464 12.3625C6.73428 12.3625 6.72434 12.3666 6.71702 12.3739C6.70969 12.3813 6.70557 12.3912 6.70557 12.4016V14.8645C6.70558 14.8726 6.70819 14.8806 6.71303 14.8873C6.71786 14.894 6.72468 14.8989 6.73253 14.9016ZM9.9419 16.2277C9.28294 15.9836 9.3013 15.1535 9.9427 14.8953C9.95 14.8924 9.9562 14.8874 9.9606 14.8809C9.965 14.8745 9.9673 14.8668 9.9673 14.859V12.4027C9.9673 12.3924 9.9632 12.3824 9.9559 12.3751C9.9486 12.3678 9.9386 12.3637 9.9283 12.3637L8.55129 12.3629C8.54093 12.3629 8.531 12.367 8.52367 12.3743C8.51635 12.3817 8.51223 12.3916 8.51223 12.402V14.8594C8.51223 14.8673 8.51466 14.875 8.5192 14.8815C8.52375 14.888 8.53017 14.893 8.53762 14.8957C9.18645 15.1406 9.19622 15.9848 8.53801 16.2254C8.53046 16.2281 8.52394 16.2331 8.51932 16.2397C8.51471 16.2463 8.51223 16.2541 8.51223 16.2621V18.7301C8.51223 18.7404 8.51635 18.7504 8.52367 18.7577C8.531 18.765 8.54093 18.7691 8.55129 18.7691L9.9283 18.7695C9.9386 18.7695 9.9486 18.7654 9.9559 18.7581C9.9632 18.7508 9.9673 18.7408 9.9673 18.7305V16.2645C9.9673 16.2564 9.9649 16.2486 9.9604 16.242C9.9558 16.2355 9.9494 16.2305 9.9419 16.2277ZM15.3385 18.7691C15.3488 18.7691 15.3588 18.765 15.3661 18.7577C15.3734 18.7504 15.3775 18.7404 15.3775 18.7301V16.2637C15.3775 16.2557 15.3751 16.248 15.3707 16.2415C15.3662 16.2349 15.3599 16.2299 15.3525 16.227C14.708 15.9789 14.7013 15.1414 15.3521 14.9C15.3596 14.8971 15.3661 14.8921 15.3706 14.8855C15.3751 14.879 15.3775 14.8712 15.3775 14.8633V12.4027C15.3775 12.3924 15.3734 12.3824 15.3661 12.3751C15.3588 12.3678 15.3488 12.3637 15.3385 12.3637L13.9619 12.3625C13.9514 12.3625 13.9414 12.3666 13.934 12.3739C13.9266 12.3813 13.9224 12.3912 13.9224 12.4016V14.8602C13.9224 14.868 13.9248 14.8756 13.9292 14.8821C13.9335 14.8886 13.9398 14.8936 13.947 14.8965C14.6029 15.157 14.6119 15.9613 13.947 16.2277C13.9398 16.2306 13.9335 16.2356 13.9292 16.2421C13.9248 16.2486 13.9224 16.2562 13.9224 16.2641V18.7305C13.9224 18.7408 13.9265 18.7508 13.9339 18.7581C13.9412 18.7654 13.9511 18.7695 13.9615 18.7695L15.3385 18.7691ZM15.7545 14.9008C16.2959 15.1023 16.4275 15.7559 15.9607 16.1207C15.9245 16.1488 15.855 16.1858 15.7521 16.2316C15.7453 16.2347 15.7395 16.2396 15.7354 16.2459C15.7313 16.2523 15.7291 16.2596 15.7291 16.2672V18.7324C15.7291 18.7428 15.7332 18.7527 15.7406 18.76C15.748 18.7674 15.7581 18.7715 15.7685 18.7715L17.1451 18.7648C17.1555 18.7647 17.1654 18.7606 17.1728 18.7533C17.1801 18.746 17.1842 18.7361 17.1842 18.7258V12.4027C17.1842 12.3924 17.1801 12.3824 17.1727 12.3751C17.1654 12.3678 17.1555 12.3637 17.1451 12.3637L15.7681 12.3625C15.7578 12.3625 15.7479 12.3666 15.7405 12.3739C15.7332 12.3813 15.7291 12.3912 15.7291 12.4016V14.8641C15.7291 14.8721 15.7315 14.8799 15.736 14.8865C15.7406 14.8931 15.747 14.898 15.7545 14.9008ZM3.38289 18.7625C3.7631 18.7719 4.14175 18.7736 4.51884 18.7676C4.52906 18.7674 4.5388 18.7632 4.54596 18.7559C4.55311 18.7486 4.55712 18.7387 4.55712 18.7285V16.2641C4.55712 16.2561 4.55469 16.2484 4.55015 16.2419C4.5456 16.2354 4.53918 16.2305 4.53173 16.2277C3.88172 15.9855 3.87508 15.1359 4.53134 14.9C4.53889 14.8973 4.54541 14.8923 4.55003 14.8857C4.55464 14.8791 4.55712 14.8713 4.55712 14.8633V12.4023C4.55712 12.392 4.553 12.382 4.54568 12.3747C4.53835 12.3674 4.52842 12.3633 4.51806 12.3633H3.14109C3.13073 12.3633 3.1208 12.3674 3.11347 12.3747C3.10615 12.382 3.10203 12.392 3.10203 12.4023V18.7227C3.10203 18.7279 3.10307 18.733 3.10508 18.7378C3.10709 18.7426 3.11004 18.7469 3.11375 18.7506C3.11746 18.7542 3.12186 18.7571 3.12669 18.759C3.13152 18.7609 3.13668 18.7618 3.14187 18.7617C3.22651 18.7604 3.30685 18.7607 3.38289 18.7625ZM10.3451 14.9047C11.0005 15.1371 10.9888 15.9723 10.3439 16.2246C10.3365 16.2275 10.3302 16.2325 10.3258 16.239C10.3213 16.2455 10.3189 16.2531 10.3189 16.2609V18.7305C10.3189 18.7408 10.323 18.7508 10.3303 18.7581C10.3377 18.7654 10.3476 18.7695 10.3579 18.7695H11.7349C11.7453 18.7695 11.7552 18.7654 11.7625 18.7581C11.7699 18.7508 11.774 18.7408 11.774 18.7305V16.2684C11.774 16.2605 11.7716 16.2529 11.7673 16.2464C11.7629 16.2399 11.7566 16.2349 11.7494 16.232C11.2423 16.0328 11.081 15.4559 11.483 15.0539C11.556 14.9809 11.6583 14.9391 11.7525 14.8918C11.7589 14.8887 11.7643 14.8837 11.7681 14.8776C11.7719 14.8714 11.774 14.8643 11.774 14.857V12.4023C11.774 12.392 11.7699 12.382 11.7625 12.3747C11.7552 12.3674 11.7453 12.3633 11.7349 12.3633H10.3579C10.3476 12.3633 10.3377 12.3674 10.3303 12.3747C10.323 12.382 10.3189 12.392 10.3189 12.4023V14.8676C10.3189 14.8757 10.3214 14.8836 10.3261 14.8903C10.3308 14.8969 10.3374 14.902 10.3451 14.9047ZM12.1509 14.9043C12.8009 15.141 12.7951 15.9809 12.1513 16.2234C12.1439 16.2262 12.1374 16.2311 12.1329 16.2376C12.1284 16.2441 12.1259 16.2518 12.1259 16.2598L12.1248 18.7305C12.1248 18.7408 12.1289 18.7508 12.1362 18.7581C12.1435 18.7654 12.1535 18.7695 12.1638 18.7695H13.5326C13.5429 18.7695 13.5529 18.7654 13.5602 18.7581C13.5675 18.7508 13.5716 18.7408 13.5716 18.7305L13.5705 16.2598C13.5705 16.2518 13.5681 16.2441 13.5635 16.2375C13.559 16.2309 13.5526 16.2259 13.5451 16.223C12.8959 15.9836 12.906 15.1523 13.547 14.9016C13.5544 14.8987 13.5607 14.8937 13.5652 14.8872C13.5696 14.8807 13.572 14.8731 13.572 14.8652V12.4023C13.572 12.392 13.5679 12.382 13.5606 12.3747C13.5533 12.3674 13.5433 12.3633 13.533 12.3633H12.1642C12.154 12.3633 12.1441 12.3674 12.1369 12.3747C12.1296 12.382 12.1255 12.392 12.1255 12.4023L12.1251 14.8676C12.1252 14.8756 12.1276 14.8834 12.1322 14.89C12.1369 14.8966 12.1434 14.9016 12.1509 14.9043ZM5.06767 15.5637C5.06767 15.4743 5.03215 15.3885 4.96893 15.3253C4.90571 15.2621 4.81997 15.2266 4.73056 15.2266C4.64115 15.2266 4.55541 15.2621 4.49219 15.3253C4.42896 15.3885 4.39345 15.4743 4.39345 15.5637C4.39345 15.6531 4.42896 15.7388 4.49219 15.802C4.55541 15.8653 4.64115 15.9008 4.73056 15.9008C4.81997 15.9008 4.90571 15.8653 4.96893 15.802C5.03215 15.7388 5.06767 15.6531 5.06767 15.5637ZM6.87198 15.5637C6.87198 15.4743 6.83646 15.3885 6.77324 15.3253C6.71002 15.2621 6.62428 15.2266 6.53487 15.2266C6.44546 15.2266 6.35972 15.2621 6.2965 15.3253C6.23328 15.3885 6.19776 15.4743 6.19776 15.5637C6.19776 15.6531 6.23328 15.7388 6.2965 15.802C6.35972 15.8653 6.44546 15.9008 6.53487 15.9008C6.62428 15.9008 6.71002 15.8653 6.77324 15.802C6.83646 15.7388 6.87198 15.6531 6.87198 15.5637ZM8.67629 15.5637C8.67629 15.4743 8.64078 15.3885 8.57756 15.3253C8.51433 15.2621 8.42859 15.2266 8.33918 15.2266C8.24977 15.2266 8.16403 15.2621 8.10081 15.3253C8.03759 15.3885 8.00207 15.4743 8.00207 15.5637C8.00207 15.6531 8.03759 15.7388 8.10081 15.802C8.16403 15.8653 8.24977 15.9008 8.33918 15.9008C8.42859 15.9008 8.51433 15.8653 8.57756 15.802C8.64078 15.7388 8.67629 15.6531 8.67629 15.5637ZM10.4806 15.5637C10.4806 15.4743 10.4451 15.3885 10.3819 15.3253C10.3186 15.2621 10.2329 15.2266 10.1435 15.2266C10.0541 15.2266 9.9683 15.2621 9.9051 15.3253C9.8419 15.3885 9.8064 15.4743 9.8064 15.5637C9.8064 15.6531 9.8419 15.7388 9.9051 15.802C9.9683 15.8653 10.0541 15.9008 10.1435 15.9008C10.2329 15.9008 10.3186 15.8653 10.3819 15.802C10.4451 15.7388 10.4806 15.6531 10.4806 15.5637ZM12.2841 15.5637C12.2841 15.4743 12.2486 15.3885 12.1854 15.3253C12.1222 15.2621 12.0364 15.2266 11.947 15.2266C11.8576 15.2266 11.7719 15.2621 11.7086 15.3253C11.6454 15.3885 11.6099 15.4743 11.6099 15.5637C11.6099 15.6531 11.6454 15.7388 11.7086 15.802C11.7719 15.8653 11.8576 15.9008 11.947 15.9008C12.0364 15.9008 12.1222 15.8653 12.1854 15.802C12.2486 15.7388 12.2841 15.6531 12.2841 15.5637ZM14.0877 15.5637C14.0877 15.4744 14.0522 15.3887 13.989 15.3256C13.9259 15.2624 13.8402 15.227 13.7509 15.227C13.6616 15.227 13.576 15.2624 13.5128 15.3256C13.4497 15.3887 13.4142 15.4744 13.4142 15.5637C13.4142 15.653 13.4497 15.7386 13.5128 15.8018C13.576 15.8649 13.6616 15.9004 13.7509 15.9004C13.8402 15.9004 13.9259 15.8649 13.989 15.8018C14.0522 15.7386 14.0877 15.653 14.0877 15.5637ZM15.8924 15.5633C15.8924 15.474 15.8569 15.3883 15.7937 15.3252C15.7306 15.262 15.6449 15.2266 15.5556 15.2266C15.4663 15.2266 15.3807 15.262 15.3175 15.3252C15.2544 15.3883 15.2189 15.474 15.2189 15.5633C15.2189 15.6526 15.2544 15.7382 15.3175 15.8014C15.3807 15.8645 15.4663 15.9 15.5556 15.9C15.6449 15.9 15.7306 15.8645 15.7937 15.8014C15.8569 15.7382 15.8924 15.6526 15.8924 15.5633ZM15.1064 19.118C11.2723 19.1099 7.43774 19.1086 3.60282 19.1141C3.59631 19.1141 3.58991 19.1158 3.5842 19.1189C3.57848 19.122 3.57363 19.1265 3.57007 19.1319C3.56651 19.1373 3.56436 19.1435 3.5638 19.15C3.56325 19.1564 3.5643 19.1628 3.56688 19.1688L3.76649 19.625C3.76953 19.632 3.77451 19.6379 3.78082 19.6421C3.78714 19.6462 3.79451 19.6484 3.80204 19.6484H16.4822C16.4898 19.6485 16.4972 19.6463 16.5035 19.6421C16.5099 19.6379 16.515 19.632 16.5182 19.625L16.7201 19.1688C16.7227 19.1628 16.7238 19.1563 16.7233 19.1498C16.7227 19.1433 16.7207 19.1371 16.7172 19.1317C16.7137 19.1262 16.7089 19.1217 16.7033 19.1186C16.6977 19.1154 16.6914 19.1138 16.685 19.1137C16.4185 19.1098 16.1529 19.1092 15.8881 19.1121C15.4987 19.1163 15.2382 19.1182 15.1064 19.118Z" fill="black" stroke="black" stroke-width="0.222222"/>
        <path d="M8.28086 6.96355L6.82244 8.42196C6.75776 8.48664 6.75776 8.59151 6.82244 8.65619L6.83293 8.66668C6.89762 8.73136 7.00248 8.73136 7.06716 8.66668L8.52558 7.20828C8.59027 7.14359 8.59027 7.03873 8.52558 6.97405L8.51509 6.96355C8.45041 6.89887 8.34554 6.89887 8.28086 6.96355Z" fill="black" stroke="black" stroke-width="0.222222"/>
        <path d="M12.759 6.96818L12.7557 6.96486C12.688 6.89713 12.5781 6.89713 12.5104 6.96486L11.0586 8.41664C10.9909 8.48437 10.9909 8.59419 11.0586 8.66192L11.0619 8.66523C11.1297 8.73297 11.2395 8.73297 11.3072 8.66523L12.759 7.21346C12.8267 7.14572 12.8267 7.03591 12.759 6.96818Z" fill="black" stroke="black" stroke-width="0.222222"/>
        <path d="M13.2183 7.6706L11.7616 9.12735C11.6949 9.19402 11.6949 9.3021 11.7616 9.36876L11.7643 9.37152C11.831 9.43819 11.9391 9.43819 12.0058 9.37152L13.4625 7.91477C13.5292 7.84811 13.5292 7.74003 13.4625 7.67336L13.4597 7.6706C13.3931 7.60394 13.285 7.60394 13.2183 7.6706Z" fill="black" stroke="black" stroke-width="0.222222"/>
        <path d="M9.23048 7.67552L9.22661 7.67165C9.15888 7.60392 9.04907 7.60392 8.98133 7.67165L7.53175 9.12122C7.46402 9.18895 7.46402 9.29877 7.53175 9.3665L7.53562 9.37036C7.60335 9.4381 7.71317 9.4381 7.7809 9.37036L9.23048 7.9208C9.29821 7.85306 9.29821 7.74325 9.23048 7.67552Z" fill="black" stroke="black" stroke-width="0.222222"/>
    </g>
</svg>
