<svg width="28" height="20" viewBox="0 0 28 20" fill="none" xmlns="http://www.w3.org/2000/svg">
    <path d="M27.2634 11.5571V17.2044C27.2147 17.3919 27.0945 17.4609 26.8986 17.4655C26.459 17.4765 26.0066 17.4779 25.5413 17.4691C25.5344 17.469 25.5275 17.4703 25.5211 17.4728C25.5147 17.4753 25.5089 17.4792 25.5039 17.484C25.499 17.4887 25.4951 17.4946 25.4925 17.5009C25.4898 17.5073 25.4884 17.5141 25.4884 17.521C25.4898 18.2584 25.4894 18.9795 25.4874 19.6846C25.4864 19.9233 25.2978 19.9991 25.0785 19.9991C24.184 19.9987 23.2884 19.9991 22.3916 20C22.0156 20.0005 22.0067 19.8426 21.899 19.5488C21.65 18.8694 21.3992 18.1888 21.1468 17.507C21.1429 17.4971 21.1363 17.4885 21.1275 17.4825C21.1189 17.4765 21.1086 17.4732 21.0981 17.4733H6.90208C6.89143 17.4732 6.88105 17.4765 6.87233 17.4825C6.86362 17.4886 6.857 17.4971 6.85338 17.507C6.5781 18.252 6.30419 18.9974 6.03167 19.7431C5.97779 19.8907 5.87832 19.9991 5.7234 19.9991C4.7967 19.9991 3.86998 19.9991 2.94328 19.9991C2.6977 19.9991 2.51119 19.9328 2.51119 19.6613C2.51153 18.9514 2.51136 18.2397 2.51067 17.5261C2.51067 17.5194 2.50932 17.5126 2.50668 17.5064C2.50404 17.5001 2.50018 17.4944 2.49531 17.4897C2.49044 17.4849 2.48468 17.4812 2.47832 17.4787C2.47198 17.4761 2.46519 17.4748 2.45833 17.4748C2.00448 17.4776 1.55287 17.4741 1.10351 17.4645C0.904558 17.4604 0.777106 17.3946 0.736694 17.1981V11.512C0.832024 10.3267 1.70295 9.4392 2.87489 9.33764C3.04966 9.32244 3.22185 9.31589 3.39144 9.31796C3.39829 9.31802 3.40508 9.31674 3.41142 9.31416C3.41777 9.31159 3.42354 9.30778 3.42841 9.30297C3.43328 9.29814 3.43714 9.29241 3.43978 9.2861C3.44242 9.27977 3.44377 9.27299 3.44377 9.26615C3.44342 6.2788 3.4436 3.30684 3.44429 0.35023C3.44429 0.0808263 3.61215 0.000517337 3.86343 0.000517337C4.85507 0.000862182 5.84637 0.00206931 6.83732 0.00413838C7.143 0.00518618 7.18548 0.201535 7.186 0.470952C7.18739 1.26294 7.18756 2.06789 7.18651 2.88579C7.18646 2.89451 7.18862 2.90309 7.1928 2.91074C7.19698 2.91838 7.20304 2.92485 7.21043 2.92956C7.21782 2.93426 7.22629 2.93703 7.23506 2.93763C7.24382 2.93821 7.25262 2.93661 7.2606 2.93294C8.08957 2.54747 8.94339 2.26063 9.8221 2.07238C12.5135 1.49557 15.2096 1.47588 17.9107 2.01332C18.8692 2.20398 19.8078 2.50914 20.7266 2.92879C20.7344 2.93233 20.743 2.93386 20.7516 2.93321C20.7603 2.93256 20.7686 2.92976 20.7759 2.92507C20.7831 2.92038 20.789 2.91396 20.7933 2.90638C20.7974 2.89879 20.7995 2.89029 20.7997 2.88166C20.7999 2.04026 20.8001 1.19231 20.8001 0.337802C20.8001 0.0559579 20.9981 0 21.2477 0C22.208 0.000689689 23.1678 0.000689689 24.1274 0C24.3604 0 24.5558 0.0699372 24.5558 0.32743C24.5565 3.28957 24.5567 6.27154 24.5563 9.2734C24.5563 9.28705 24.5618 9.30016 24.5713 9.30985C24.5809 9.31955 24.594 9.32508 24.6077 9.32521C24.7098 9.32625 24.8138 9.32676 24.9195 9.32676C26.2096 9.32625 27.1764 10.2806 27.2634 11.5571ZM6.90157 3.81784C6.6394 3.78365 6.5648 3.64998 6.5648 3.407C6.56549 2.48996 6.56549 1.57863 6.5648 0.673004C6.5648 0.659264 6.55933 0.646093 6.54963 0.636371C6.5399 0.626649 6.52673 0.621198 6.51299 0.621198L4.11729 0.62275C4.10355 0.62275 4.09038 0.628214 4.08066 0.637923C4.07095 0.647645 4.06548 0.660815 4.06548 0.674556V9.262C4.06548 9.27574 4.07095 9.28892 4.08066 9.29863C4.09038 9.30835 4.10355 9.3138 4.11729 9.3138L5.78662 9.31277C5.79342 9.31277 5.80016 9.31144 5.80645 9.30887C5.81273 9.3063 5.81844 9.30252 5.82325 9.29776C5.82806 9.29299 5.83187 9.28733 5.83448 9.28111C5.83708 9.27489 5.83842 9.26822 5.83842 9.26148C5.84049 8.56275 5.84084 7.86418 5.83946 7.16578C5.83877 6.80657 5.86346 6.54891 5.91355 6.39279C6.11094 5.78143 6.62231 5.54207 7.23678 5.54311C8.5448 5.54518 9.85336 5.54501 11.1624 5.5426C11.9903 5.54103 12.553 6.02338 12.5509 6.89171C12.5489 7.69166 12.5485 8.48209 12.5499 9.26303C12.5499 9.26981 12.5512 9.27654 12.5538 9.28278C12.5565 9.28904 12.5603 9.29472 12.5651 9.29949C12.5699 9.30426 12.5756 9.30802 12.5819 9.31057C12.5882 9.31312 12.5949 9.3144 12.6017 9.31434L15.3937 9.3138C15.4073 9.31382 15.4205 9.30842 15.4302 9.29882C15.4398 9.28922 15.4454 9.27618 15.4455 9.26252C15.4518 8.63735 15.4535 8.01235 15.4507 7.38753C15.4483 6.89016 15.4717 6.56186 15.5206 6.40263C15.7056 5.80061 16.2237 5.54103 16.8361 5.5426C18.1455 5.54536 19.4552 5.54553 20.7649 5.54311C21.3691 5.54155 21.8825 5.77729 22.0804 6.37569C22.1349 6.54113 22.1618 6.84509 22.1611 7.28754C22.1605 7.9431 22.1594 8.60091 22.1581 9.26096C22.1581 9.2747 22.1635 9.28789 22.1732 9.2976C22.1829 9.30732 22.1961 9.31277 22.2098 9.31277L23.8828 9.31434C23.8965 9.31434 23.9098 9.30887 23.9194 9.29915C23.9291 9.28944 23.9346 9.27626 23.9346 9.26252V0.673522C23.9346 0.659781 23.9291 0.64661 23.9194 0.636889C23.9098 0.627167 23.8965 0.621715 23.8828 0.621715L21.4737 0.62275C21.4599 0.62275 21.4468 0.628214 21.437 0.637923C21.4273 0.647645 21.4218 0.660815 21.4218 0.674556C21.4222 1.59159 21.422 2.5088 21.4213 3.42617C21.4213 3.808 21.1591 3.86811 20.8555 3.70232C19.7017 3.07231 18.4148 2.70809 17.1309 2.50396C15.189 2.19518 13.2357 2.1741 11.2707 2.44075C9.76304 2.6454 8.25795 3.05158 6.93369 3.81164C6.92397 3.81734 6.91263 3.81953 6.90157 3.81784ZM11.9178 6.7912C11.9147 6.50729 11.6816 6.1669 11.38 6.16638C10.0126 6.16604 8.6448 6.16569 7.27666 6.16535C6.80831 6.16535 6.46377 6.31456 6.46274 6.8399C6.46136 7.64986 6.46117 8.45705 6.46222 9.26148C6.46222 9.27522 6.46767 9.28841 6.47739 9.29811C6.4871 9.30784 6.50029 9.31329 6.51403 9.31329H11.8753C11.8891 9.31329 11.9022 9.30784 11.912 9.29811C11.9217 9.28841 11.9271 9.27522 11.9271 9.26148C11.9289 8.43737 11.9258 7.61393 11.9178 6.7912ZM16.83 6.16586C16.4041 6.16535 16.0698 6.35444 16.0704 6.82694C16.0704 7.64347 16.0714 8.45498 16.0734 9.26148C16.0734 9.27522 16.079 9.28841 16.0887 9.29811C16.0984 9.30784 16.1115 9.31329 16.1253 9.31329H21.486C21.4998 9.31329 21.513 9.30784 21.5228 9.29811C21.5325 9.28841 21.5379 9.27522 21.5379 9.26148C21.539 8.49505 21.5387 7.73155 21.5374 6.97098C21.5363 6.35601 21.3099 6.16483 20.6902 6.16535C19.4033 6.16604 18.1165 6.16621 16.83 6.16586ZM12.3779 9.94381C10.1008 9.96299 6.40885 9.91739 3.22409 9.94744C2.91116 9.95055 2.67457 9.97888 2.51429 10.0324C1.80865 10.2681 1.36256 10.9261 1.35997 11.6707C1.35824 12.1263 1.3579 12.5796 1.35893 13.0307C1.35907 13.0445 1.36459 13.0576 1.37429 13.0673C1.38399 13.077 1.39709 13.0824 1.41074 13.0824H26.5888C26.6025 13.0824 26.6156 13.0771 26.6253 13.0674C26.635 13.0579 26.6405 13.0447 26.6407 13.0311C26.6428 12.6671 26.6429 12.3004 26.6412 11.9313C26.6395 11.5838 26.6188 11.3362 26.579 11.1883C26.4314 10.6391 25.9914 10.1878 25.4506 10.021C25.2968 9.97335 25.0605 9.94865 24.7412 9.94693C21.081 9.9262 17.7262 9.97283 15.5834 9.94381C14.7776 9.93276 13.709 9.93276 12.3779 9.94381ZM26.6417 13.7347C26.6417 13.7266 26.6384 13.7188 26.6327 13.7131C26.627 13.7074 26.6192 13.7042 26.6111 13.7042H1.38898C1.38087 13.7042 1.3731 13.7074 1.36737 13.7131C1.36163 13.7188 1.35841 13.7266 1.35841 13.7347V16.8164C1.35841 16.8245 1.36163 16.8322 1.36737 16.838C1.3731 16.8437 1.38087 16.8469 1.38898 16.8469H26.6111C26.6192 16.8469 26.627 16.8437 26.6327 16.838C26.6384 16.8322 26.6417 16.8245 26.6417 16.8164V13.7347ZM5.48663 19.3773C5.49184 19.3774 5.49695 19.3758 5.50122 19.3729C5.5055 19.3699 5.50873 19.3656 5.51046 19.3607L6.18865 17.5065C6.18998 17.5027 6.19039 17.4987 6.18985 17.4948C6.18932 17.4909 6.18784 17.4871 6.18556 17.4838C6.18327 17.4806 6.18024 17.478 6.17673 17.4761C6.17321 17.4743 6.16931 17.4733 6.16535 17.4733H3.15777C3.15118 17.4733 3.14485 17.4759 3.14019 17.4806C3.13553 17.4853 3.1329 17.4915 3.1329 17.4982V19.3525C3.1329 19.359 3.13553 19.3654 3.14019 19.37C3.14485 19.3746 3.15118 19.3773 3.15777 19.3773H5.48663ZM22.4891 19.3577C22.4913 19.3635 22.4951 19.3684 22.5003 19.372C22.5053 19.3756 22.5114 19.3774 22.5176 19.3773H24.8371C24.8451 19.3773 24.8528 19.3741 24.8584 19.3685C24.8641 19.3628 24.8672 19.3553 24.8672 19.3473V17.5033C24.8672 17.4954 24.8641 17.4878 24.8584 17.4821C24.8528 17.4765 24.8451 17.4733 24.8371 17.4733H21.8426C21.8378 17.4733 21.833 17.4745 21.8288 17.4768C21.8245 17.4791 21.8208 17.4822 21.818 17.4862C21.8154 17.4902 21.8135 17.4948 21.813 17.4996C21.8123 17.5044 21.8128 17.5092 21.8146 17.5137L22.4891 19.3577Z" fill="black"/>
    <path d="M3.43124 15.9896C3.26182 16.2025 2.94681 16.0745 2.91779 15.788C2.89137 15.529 2.8204 14.7674 2.97945 14.5644C3.11002 14.397 3.45196 14.4498 3.5074 14.67C3.56749 14.9063 3.58459 15.7964 3.43124 15.9896Z" fill="black"/>
    <path d="M5.44877 16.0322C5.37003 15.9928 5.32617 15.9294 5.31719 15.842C5.29076 15.5794 5.22185 14.7556 5.38816 14.5576C5.49956 14.425 5.78554 14.4344 5.87881 14.6048C5.97932 14.7882 5.94513 15.4017 5.93217 15.6229C5.91559 15.9151 5.8156 16.2151 5.44877 16.0322Z" fill="black"/>
    <path d="M7.99681 16.0867C7.69165 16.052 7.68957 15.7562 7.68439 15.5189C7.68024 15.3096 7.6445 14.7252 7.77143 14.5666C7.87919 14.4315 8.13773 14.4304 8.2517 14.5744C8.3631 14.7164 8.3315 15.208 8.33927 15.4179C8.34859 15.6665 8.31233 16.1225 7.99681 16.0867Z" fill="black"/>
    <path d="M10.3893 16.09C10.0831 16.0417 10.0862 15.7604 10.08 15.5169C10.0693 15.109 10.0769 14.8341 10.1028 14.6922C10.1479 14.4424 10.5178 14.39 10.6546 14.589C10.7608 14.7428 10.7266 15.2222 10.7344 15.4201C10.7427 15.6516 10.7043 16.1392 10.3893 16.09Z" fill="black"/>
    <path d="M12.5251 15.9442C12.517 15.9361 12.5117 15.9255 12.5101 15.9141C12.4774 15.6468 12.4013 14.7785 12.5655 14.564C12.7453 14.3298 13.1214 14.5043 13.1168 14.8157C13.1154 14.8907 13.1176 15.1302 13.1235 15.5343C13.1281 15.8695 12.938 16.3576 12.5251 15.9442Z" fill="black"/>
    <path d="M14.9349 15.9711C14.9291 15.9668 14.924 15.9614 14.9203 15.9552C14.9166 15.9489 14.9142 15.942 14.9131 15.9349C14.8634 15.5213 14.8598 15.1071 14.9023 14.6918C14.9272 14.4526 15.2898 14.3982 15.4312 14.5635C15.5763 14.7339 15.5282 15.4427 15.5121 15.6721C15.4872 16.029 15.3012 16.228 14.9349 15.9711Z" fill="black"/>
    <path d="M17.578 16.0899C17.3133 16.0483 17.266 15.8173 17.2687 15.5847C17.2723 15.2718 17.2195 14.7448 17.3532 14.5703C17.5163 14.3567 17.8707 14.466 17.8955 14.7603C17.9106 14.9355 18.0593 16.1655 17.578 16.0899Z" fill="black"/>
    <path d="M20.3084 15.7115C20.2794 16.2078 19.713 16.2317 19.6773 15.6995C19.6507 15.3027 19.6551 14.9668 19.6903 14.6918C19.723 14.4417 20.1095 14.3929 20.2405 14.5903C20.3638 14.7768 20.3188 15.5281 20.3084 15.7115Z" fill="black"/>
    <path d="M22.7041 15.7122C22.671 16.2204 22.1057 16.2194 22.0741 15.7002C22.059 15.4594 22.0098 14.749 22.1538 14.5646C22.2881 14.3937 22.63 14.4532 22.6844 14.6766C22.6886 14.6928 22.6951 14.7855 22.7041 14.9547C22.719 15.238 22.719 15.4904 22.7041 15.7122Z" fill="black"/>
    <path d="M24.6171 16.0388C24.3912 15.9294 24.4549 15.0725 24.4689 14.8539C24.4778 14.7126 24.509 14.6114 24.5622 14.5503C24.7394 14.3467 25.0813 14.4922 25.0911 14.7881C25.103 15.1279 25.2653 16.3528 24.6171 16.0388Z" fill="black"/>
</svg>
