<svg width="56" height="56" viewBox="0 0 56 56" fill="none" xmlns="http://www.w3.org/2000/svg">
    <path d="M0 8C0 3.58172 3.58172 0 8 0H48C52.4183 0 56 3.58172 56 8V48C56 52.4183 52.4183 56 48 56H8C3.58172 56 0 52.4183 0 48V8Z" fill="#F8F6F3"/>
    <path d="M33.9203 31.8768L35.7184 34.4447C36.0979 34.9867 36.0225 35.7251 35.5412 36.1793L32.2528 39.282C31.0696 40.3983 29.1713 40.2044 28.2383 38.8719L16.4829 22.0835C15.5499 20.751 16.0169 18.9008 17.4706 18.1708L21.5109 16.1419C22.1022 15.845 22.8219 16.0266 23.2014 16.5687L24.9995 19.1366C25.2796 19.5366 25.3186 20.0578 25.1011 20.4951L23.4408 23.8332C23.2233 24.2705 23.2623 24.7917 23.5424 25.1918L27.7319 31.175C28.0121 31.575 28.4885 31.7899 28.9738 31.7351L32.6785 31.3167C33.1638 31.2619 33.6402 31.4768 33.9203 31.8768Z" stroke="#262626" stroke-linecap="round" stroke-linejoin="round"/>
    <path d="M33.2747 18.9922H39.9414" stroke="#262626"/>
    <path d="M37.9388 21.6582L40.6055 18.9915L37.9388 16.3249" stroke="#262626" stroke-linejoin="round"/>
    <path d="M40.6081 25.9922H33.9414" stroke="#262626"/>
    <path d="M35.9401 23.3242L33.2734 25.9909L35.9401 28.6576" stroke="#262626" stroke-linejoin="round"/>
</svg>
