<svg width="183" height="50" viewBox="0 0 183 50" fill="none" xmlns="http://www.w3.org/2000/svg">
    <path fill-rule="evenodd" clip-rule="evenodd" d="M78.2759 42.1456C79.297 42.1456 80.1563 42.4847 80.8531 43.1585C81.6104 43.8888 81.9877 44.8619 81.9877 46.0751C81.9877 47.3101 81.597 48.2921 80.8135 49.0209C80.1136 49.6747 79.2682 49.9991 78.2759 50C77.2138 50 76.3344 49.6386 75.6325 48.916C74.9218 48.1794 74.5658 47.2324 74.5658 46.0751C74.5658 44.8619 74.9449 43.8862 75.705 43.1528C76.4023 42.4818 77.2585 42.1467 78.2759 42.1456ZM107.67 42.1456V42.3611C107.188 42.383 106.864 42.4527 106.697 42.5699C106.534 42.6875 106.454 42.9365 106.454 43.3227V48.8863C106.454 49.0155 106.478 49.1172 106.524 49.1922C106.574 49.2639 106.684 49.3089 106.851 49.3278C106.95 49.3389 107.052 49.3465 107.159 49.35C107.27 49.3546 107.474 49.3564 107.773 49.3564C108.939 49.3564 109.726 49.2712 110.137 49.1006C110.546 48.9312 110.943 48.4987 111.327 47.8011H111.662L111.019 49.8084H103.961V49.5993C104.444 49.5535 104.755 49.4792 104.897 49.373C105.043 49.2639 105.115 48.9898 105.115 48.5526V43.4014C105.115 42.9899 105.044 42.723 104.904 42.5985C104.763 42.4702 104.45 42.3912 103.961 42.3611V42.1456H107.67ZM67.3095 42.1456V42.3611C66.8933 42.3912 66.6229 42.4684 66.499 42.5921C66.3737 42.7166 66.3112 42.987 66.3112 43.4014V45.6569H69.7311V43.4014C69.7311 42.987 69.6712 42.7166 69.5507 42.5921C69.4291 42.4684 69.1587 42.3912 68.7416 42.3611V42.1456H71.8746V42.3611C71.4612 42.3912 71.1896 42.4684 71.0657 42.5921C70.9433 42.7166 70.8837 42.987 70.8837 43.4014V48.5526C70.8837 48.9749 70.9433 49.2473 71.0657 49.3675C71.1896 49.4838 71.4612 49.5617 71.8746 49.5993V49.8084H68.7416V49.5993C69.1854 49.5535 69.4604 49.471 69.5655 49.35C69.6763 49.2298 69.7311 48.9192 69.7311 48.4159V46.1664H66.3112V48.5526C66.3112 48.9749 66.3737 49.2473 66.499 49.3675C66.6229 49.4882 66.8933 49.5655 67.3095 49.5993V49.8084H64.1737V49.5993C64.6149 49.5497 64.8899 49.4672 65.0004 49.35C65.1104 49.2298 65.1658 48.9192 65.1658 48.4159V43.4014C65.1658 42.987 65.1024 42.7166 64.9782 42.5921C64.8567 42.4684 64.5891 42.3912 64.1737 42.3611V42.1456H67.3095ZM92.3394 42.1456L92.4101 44.1137H92.0921C91.9352 43.4959 91.7336 43.0935 91.4913 42.9091C91.2519 42.7213 90.7454 42.6257 89.9709 42.6257H89.2253V48.5529C89.2253 49.002 89.3078 49.2805 89.4683 49.3896C89.6282 49.4961 89.9806 49.5655 90.5252 49.5996V49.8084H86.6305V49.5996C87.195 49.5611 87.5474 49.4803 87.6847 49.3558C87.8254 49.231 87.8955 48.9186 87.8955 48.4173V42.6257H87.1516C86.4111 42.6257 85.9065 42.7196 85.6379 42.9039C85.3714 43.0888 85.1718 43.491 85.0371 44.1137H84.7093L84.7874 42.1456H92.3394ZM118.855 42.1456L119.104 44.5143H118.832C118.647 43.8004 118.347 43.3031 117.935 43.0205C117.525 42.7373 117.12 42.5973 116.716 42.5973C116.405 42.5973 116.131 42.6881 115.897 42.8681C115.665 43.046 115.551 43.2935 115.551 43.6131C115.551 43.8982 115.64 44.1438 115.818 44.3463C115.997 44.5521 116.275 44.7677 116.65 44.9915L117.655 45.5953C118.284 45.9711 118.725 46.3159 118.984 46.6321C119.235 46.9508 119.361 47.3271 119.363 47.7621C119.363 48.3449 119.135 48.8313 118.682 49.2223C118.23 49.613 117.655 49.8084 116.953 49.8084C116.598 49.8084 116.228 49.7432 115.841 49.6129C115.458 49.483 115.238 49.4178 115.182 49.4178C115.048 49.4178 114.958 49.4572 114.91 49.5373C114.865 49.6174 114.835 49.702 114.819 49.7916H114.569L114.229 47.4249H114.491C114.683 47.9248 114.911 48.3227 115.171 48.6196C115.626 49.1377 116.189 49.3956 116.861 49.3956C117.227 49.3956 117.54 49.2842 117.806 49.0596C118.073 48.835 118.207 48.5216 118.207 48.1203C118.207 47.7576 118.073 47.4434 117.806 47.174C117.63 47.0042 117.262 46.75 116.7 46.4091L115.725 45.8179C115.429 45.6365 115.195 45.4533 115.019 45.2688C114.698 44.9173 114.535 44.5311 114.535 44.1068C114.535 43.5459 114.726 43.0785 115.111 42.7054C115.493 42.3332 116 42.1464 116.633 42.1456C116.894 42.1456 117.207 42.2092 117.571 42.3369C117.939 42.4598 118.149 42.5214 118.202 42.5214C118.343 42.5214 118.44 42.4889 118.491 42.424C118.548 42.3587 118.59 42.2663 118.62 42.1456H118.855ZM100.676 42.1456L100.719 43.8085H100.385C100.274 43.2961 100.107 42.9642 99.8851 42.8129C99.6637 42.6627 99.1666 42.5866 98.3968 42.5866H96.6118C96.4195 42.5866 96.301 42.6148 96.253 42.6717C96.2104 42.7251 96.1888 42.8257 96.1888 42.9771V45.5616H98.2115C98.7701 45.5616 99.1279 45.4875 99.2821 45.3408C99.436 45.1944 99.5607 44.8963 99.6544 44.4472H99.9619V47.128H99.6544C99.5564 46.68 99.4307 46.3831 99.2768 46.2399C99.1226 46.0935 98.7671 46.0192 98.2115 46.0192H96.1888V48.8863C96.1888 49.1172 96.2719 49.2529 96.4331 49.294C96.5996 49.3354 97.0946 49.3564 97.9163 49.3564C98.8055 49.3564 99.4618 49.2712 99.8851 49.1006C100.308 48.9274 100.69 48.5115 101.027 47.8524H101.394L100.796 49.8084H93.6936V49.5993C94.1761 49.5535 94.4869 49.4792 94.6308 49.373C94.7754 49.2639 94.8489 48.9898 94.8489 48.5526V43.4014C94.8489 42.9899 94.7771 42.723 94.6361 42.5985C94.4955 42.4702 94.1814 42.3912 93.6936 42.3611V42.1456H100.676ZM78.2759 42.5583C77.5982 42.5583 77.0227 42.8458 76.5503 43.4196C76.0823 43.9908 75.8495 44.8753 75.8495 46.0751C75.8495 47.2731 76.0823 48.1588 76.5503 48.7326C77.0201 49.3035 77.5945 49.5881 78.2759 49.5881C78.9444 49.5881 79.5132 49.3107 79.9855 48.7549C80.4615 48.1958 80.698 47.3027 80.698 46.0751C80.698 44.8346 80.4595 43.9384 79.9789 43.3861C79.5006 42.834 78.9339 42.5595 78.2759 42.5583ZM83.0795 6.50423L91.0729 18.0191L99.0646 6.50423H102.977L93.5211 20.9021L102.228 34.0896L182.143 34.2047L166.391 36.6637L100.045 36.8932L91.0729 23.4579L82.0999 36.8932L15.7538 36.6637L0 34.2047L79.9169 34.0896L88.623 20.9021L79.168 6.50423H83.0795ZM152.874 11.4943L153.44 17.4138H152.823C152.405 15.631 151.731 14.386 150.803 13.6796C149.882 12.974 148.97 12.6214 148.066 12.6214C147.363 12.6214 146.746 12.8477 146.22 13.3006C145.702 13.743 145.441 14.3631 145.441 15.1599C145.441 15.8751 145.643 16.4867 146.044 16.9929C146.446 17.5096 147.069 18.0472 147.916 18.6083L150.174 20.1152C151.589 21.0565 152.585 21.9207 153.164 22.7082C153.732 23.505 154.016 24.4468 154.017 25.5326C154.017 26.9893 153.507 28.2068 152.486 29.1849C151.472 30.1621 150.174 30.6513 148.592 30.6513C147.798 30.6513 146.965 30.4879 146.095 30.1621C145.231 29.8364 144.737 29.6729 144.613 29.6729C144.312 29.6729 144.105 29.7726 143.997 29.973C143.896 30.1718 143.83 30.3833 143.796 30.6093H143.232L142.466 24.691H143.056C143.491 25.9399 144.002 26.9361 144.587 27.6777C145.609 28.9722 146.877 29.62 148.392 29.62C149.212 29.62 149.919 29.3387 150.513 28.7776C151.118 28.2164 151.418 27.4326 151.418 26.4288C151.418 25.5238 151.118 24.7366 150.513 24.0661C150.121 23.6407 149.292 23.0025 148.027 22.1525L145.832 20.6718C145.169 20.221 144.643 19.7632 144.249 19.3015C143.52 18.4231 143.157 17.4555 143.157 16.3955C143.157 14.9919 143.587 13.8249 144.449 12.893C145.311 11.9605 146.454 11.4943 147.877 11.4943C148.463 11.4943 149.167 11.6538 149.985 11.969C150.816 12.2775 151.287 12.4307 151.406 12.4307C151.723 12.4307 151.941 12.35 152.058 12.1874C152.184 12.0243 152.281 11.7934 152.346 11.4943H152.874ZM119.363 11.4943C121.837 11.4943 123.915 12.3162 125.602 13.9617C127.433 15.7418 128.347 18.1157 128.347 21.0802C128.347 24.0896 127.402 26.4862 125.508 28.2644C123.813 29.8556 121.764 30.6513 119.363 30.6513C116.793 30.6513 114.66 29.7714 112.965 28.0082C111.241 26.2092 110.379 23.9007 110.379 21.0802C110.379 18.1157 111.298 15.7382 113.138 13.9484C114.825 12.3126 116.9 11.4952 119.363 11.4943ZM119.363 12.4976C117.72 12.4976 116.328 13.1983 115.187 14.599C114.053 15.9913 113.486 18.1516 113.486 21.0802C113.486 23.9994 114.053 26.16 115.187 27.5607C116.32 28.953 117.712 29.648 119.363 29.648C120.978 29.648 122.358 28.9699 123.501 27.6148C124.653 26.2499 125.228 24.0715 125.228 21.0802C125.228 18.0524 124.648 15.8652 123.487 14.5176C122.326 13.1708 120.952 12.4985 119.363 12.4976ZM66.7406 11.4943V11.9965C65.6812 12.049 64.9951 12.2208 64.682 12.5107C64.3684 12.7921 64.212 13.4308 64.212 14.4241V26.4453C64.212 27.492 64.3684 28.1428 64.682 28.3974C64.9951 28.6441 65.6812 28.8065 66.7406 28.8858V29.3742H59.0398V28.8858C60.0984 28.8065 60.7854 28.6441 61.0982 28.3974C61.4121 28.1428 61.5685 27.492 61.5685 26.4453V14.4241C61.5685 13.4308 61.4121 12.7921 61.0982 12.5107C60.7854 12.2208 60.0984 12.049 59.0398 11.9965V11.4943H66.7406ZM35.4248 11.4943C36.9213 11.4943 38.1673 11.6925 39.166 12.0878C41.0579 12.8361 42.0061 14.2124 42.0061 16.2183C42.0061 17.5649 41.584 18.5987 40.7379 19.3197C39.9015 20.0416 38.7599 20.5159 37.3134 20.7438L42.6659 27.5927C42.995 28.0156 43.324 28.3237 43.6542 28.5166C43.9832 28.7105 44.4054 28.8332 44.9216 28.8858V29.3742H40.7379L34.5497 21.0613L33.1048 21.1262V26.4455C33.1048 27.4488 33.2487 28.0855 33.5369 28.3589C33.832 28.6229 34.4698 28.7983 35.4499 28.8858V29.3742H28.2364V28.8858C29.2335 28.7889 29.8541 28.5868 30.0999 28.2787C30.344 27.9712 30.467 27.254 30.467 26.128V14.4238C30.467 13.4731 30.3287 12.8538 30.0485 12.5639C29.7781 12.2649 29.1748 12.0758 28.2364 11.9965V11.4943H35.4248ZM34.7032 12.5242C33.9661 12.5242 33.5145 12.5806 33.3461 12.6949C33.1846 12.8012 33.1048 13.0558 33.1048 13.4611V20.1256C34.9736 20.0533 36.3084 19.8512 37.1121 19.517C38.4895 18.9282 39.1776 17.8198 39.1776 16.1916C39.1776 14.6259 38.5613 13.5571 37.3277 12.9856C36.6685 12.6775 35.7923 12.5251 34.7032 12.5242ZM91.1271 0L93.2116 2.79743L92.032 9.60252L94.4699 2.79743H97.544L91.1271 12.7714L84.7093 2.79743H87.7834L90.2233 9.60252L89.0429 2.79743L91.1271 0Z" fill="white"/>
</svg>
