<svg width="20" height="20" viewBox="0 0 20 20" fill="none" xmlns="http://www.w3.org/2000/svg">
    <mask id="mask0_2018_12589" style="mask-type:luminance" maskUnits="userSpaceOnUse" x="0" y="0" width="21" height="20">
        <path d="M20.0001 0H0V20H20.0001V0Z" fill="white"/>
    </mask>
    <g mask="url(#mask0_2018_12589)">
        <path d="M1.43815 0H1.49674C1.61471 0.0226562 1.7052 0.084375 1.76823 0.185156C2.12969 0.764583 2.49115 1.34401 2.85261 1.92344C3.00769 2.17227 2.89519 2.4707 2.58972 2.48242C2.34336 2.49154 2.09596 2.4944 1.84752 2.49102C1.84231 2.49096 1.83714 2.49194 1.8323 2.49388C1.82747 2.49582 1.82308 2.49869 1.81937 2.50232C1.81567 2.50595 1.81272 2.51027 1.81072 2.51504C1.80871 2.5198 1.80768 2.52492 1.80768 2.53008C1.8069 2.98242 1.80651 3.43451 1.80651 3.88633C1.80651 4.27031 1.28189 4.39336 1.14986 4.02227C1.13189 3.97201 1.12317 3.88698 1.12369 3.76719C1.12473 3.35443 1.12369 2.94076 1.12056 2.52617C1.12052 2.52097 1.11943 2.51584 1.11737 2.51107C1.11531 2.5063 1.11232 2.50198 1.10857 2.49838C1.10483 2.49478 1.1004 2.49196 1.09555 2.49009C1.0907 2.48823 1.08552 2.48734 1.08033 2.4875C0.858974 2.49297 0.640093 2.49284 0.423685 2.48711C0.190871 2.48047 0.0412601 2.41016 0.000244141 2.17539V2.1168C0.0166505 2.05664 0.031885 1.99961 0.065479 1.94531C0.431107 1.35599 0.798427 0.767448 1.16744 0.179688C1.2302 0.0799479 1.32044 0.0200521 1.43815 0ZM0.967439 1.78594C0.96621 1.78798 0.965539 1.79032 0.965491 1.7927C0.965444 1.79509 0.966021 1.79744 0.967167 1.79954C0.968312 1.80163 0.969986 1.80339 0.972021 1.80463C0.974056 1.80588 0.976381 1.80657 0.978767 1.80664H1.95143C1.95382 1.80657 1.95614 1.80588 1.95818 1.80463C1.96021 1.80339 1.96188 1.80163 1.96303 1.79954C1.96418 1.79744 1.96475 1.79509 1.96471 1.7927C1.96466 1.79032 1.96399 1.78798 1.96276 1.78594L1.47682 1.00352C1.4756 1.00149 1.47388 0.99982 1.47183 0.998658C1.46978 0.997496 1.46746 0.996886 1.4651 0.996886C1.46274 0.996886 1.46042 0.997496 1.45837 0.998658C1.45631 0.99982 1.45459 1.00149 1.45338 1.00352L0.967439 1.78594Z" fill="black"/>
        <path d="M4.23111 0H19.6804C19.8635 0.0325521 19.9702 0.140755 20.0004 0.324609V1.43789C19.9132 1.88984 19.3183 1.82461 19.3179 1.37578C19.3179 1.15938 19.3168 0.941536 19.3144 0.722266C19.3143 0.711973 19.3102 0.702138 19.3028 0.694896C19.2955 0.687655 19.2856 0.683593 19.2754 0.683594H9.62919C9.61883 0.683594 9.6089 0.687709 9.60157 0.695035C9.59424 0.702361 9.59013 0.712296 9.59013 0.722656L9.58974 8.34961C9.58974 8.35997 9.59385 8.36991 9.60118 8.37723C9.60851 8.38456 9.61844 8.38867 9.6288 8.38867C11.6033 8.38841 13.5847 8.38854 15.573 8.38906C15.6665 8.38906 15.737 8.39961 15.7847 8.4207C16.0546 8.54141 16.048 8.93242 15.7706 9.03594C15.723 9.05365 15.6447 9.0625 15.5359 9.0625C13.5627 9.06224 11.5938 9.06224 9.62919 9.0625C9.62403 9.0625 9.61892 9.06351 9.61415 9.06548C9.60939 9.06745 9.60506 9.07033 9.60143 9.07397C9.5978 9.0776 9.59493 9.08191 9.59299 9.08665C9.59105 9.09138 9.59008 9.09645 9.59013 9.10156C9.59065 9.78854 9.59052 10.4635 9.58974 11.1266C9.58948 11.2844 9.57463 11.3953 9.54521 11.4594C9.46552 11.6332 9.22411 11.7133 9.05575 11.591C8.9245 11.4957 8.90653 11.3836 8.90653 11.2109C8.90653 7.71016 8.90653 4.21406 8.90653 0.722656C8.90653 0.712296 8.90241 0.702361 8.89509 0.695035C8.88776 0.687709 8.87783 0.683594 8.86747 0.683594H4.61939C4.60903 0.683594 4.59909 0.687709 4.59177 0.695035C4.58444 0.702361 4.58033 0.712296 4.58033 0.722656V15.3809C4.58033 15.3912 4.58444 15.4012 4.59177 15.4085C4.59909 15.4158 4.60903 15.4199 4.61939 15.4199H8.86786C8.87822 15.4199 8.88815 15.4158 8.89548 15.4085C8.90281 15.4012 8.90692 15.3912 8.90692 15.3809C8.90588 14.8707 8.90614 14.3618 8.9077 13.8543C8.90926 13.2848 9.58193 13.3043 9.58583 13.8188C9.58974 14.3294 9.59091 14.8501 9.58935 15.3809C9.58935 15.3912 9.59346 15.4012 9.60079 15.4085C9.60811 15.4158 9.61805 15.4199 9.62841 15.4199H19.2777C19.2881 15.4199 19.298 15.4158 19.3053 15.4085C19.3126 15.4012 19.3168 15.3912 19.3168 15.3809L19.3172 9.10117C19.3172 9.09081 19.313 9.08088 19.3056 9.07355C19.2982 9.06623 19.2882 9.06211 19.2777 9.06211C18.8652 9.06315 18.4536 9.06302 18.0429 9.06172C17.9468 9.06146 17.8748 9.05052 17.8269 9.02891C17.5593 8.90859 17.5679 8.52461 17.841 8.4168C17.8881 8.39805 17.9618 8.38867 18.0621 8.38867C18.4673 8.38867 18.8726 8.38854 19.2781 8.38828C19.2883 8.38828 19.2982 8.38417 19.3054 8.37684C19.3127 8.36951 19.3168 8.35958 19.3168 8.34922C19.3165 6.44479 19.3166 4.53958 19.3172 2.63359C19.3175 2.11484 19.9406 2.06641 20.0004 2.54141V15.7738C19.9574 16.0457 19.7855 16.0938 19.5269 16.0938C14.4808 16.0938 9.43479 16.0938 4.38892 16.0938C4.06743 16.0938 3.90649 16.0168 3.90649 15.6805C3.90649 10.6159 3.90649 5.5513 3.90649 0.486719C3.90649 0.221094 3.94907 0.0425781 4.23111 0Z" fill="black"/>
        <path d="M0.000244141 13.9818V13.9232C0.0467288 13.6584 0.218996 13.6111 0.472513 13.6138C0.673035 13.6157 0.877073 13.6136 1.08463 13.6076C1.09478 13.6073 1.10442 13.603 1.11149 13.5957C1.11857 13.5885 1.12252 13.5787 1.12252 13.5685C1.12356 10.6597 1.12382 7.75147 1.1233 4.84392C1.12291 4.48103 1.60416 4.33845 1.76237 4.67009C1.79205 4.73207 1.8069 4.83207 1.8069 4.97009C1.8069 7.83754 1.8069 10.7053 1.8069 13.5732C1.8069 13.5835 1.81096 13.5934 1.8182 13.6007C1.82544 13.608 1.83528 13.6122 1.84557 13.6123C2.06042 13.6141 2.27643 13.6141 2.49362 13.6123C2.6043 13.6112 2.69011 13.6269 2.75104 13.6592C3.02019 13.8025 2.92956 14.051 2.7944 14.2674C2.478 14.7723 2.16276 15.2779 1.84869 15.7842C1.75833 15.9302 1.67955 16.0217 1.61237 16.0584C1.41119 16.1685 1.24322 16.0427 1.13189 15.8638C0.770953 15.2857 0.410534 14.7073 0.0506351 14.1287C0.0370934 14.1071 0.0202964 14.0581 0.000244141 13.9818ZM1.95924 14.3158C1.9604 14.3138 1.96101 14.3115 1.96102 14.3092C1.96103 14.3069 1.96043 14.3046 1.95929 14.3026C1.95814 14.3006 1.95649 14.2989 1.95449 14.2977C1.9525 14.2965 1.95023 14.2959 1.94791 14.2959L0.981111 14.2974C0.978769 14.2975 0.976484 14.2982 0.974487 14.2994C0.972491 14.3006 0.970855 14.3024 0.969744 14.3044C0.968633 14.3065 0.968088 14.3088 0.968163 14.3111C0.968239 14.3135 0.968932 14.3158 0.970173 14.3177L1.45455 15.0955C1.45574 15.0974 1.4574 15.099 1.45939 15.1001C1.46137 15.1012 1.46361 15.1018 1.46588 15.1018C1.46815 15.1018 1.47039 15.1012 1.47237 15.1001C1.47436 15.099 1.47602 15.0974 1.47721 15.0955L1.95924 14.3158Z" fill="black"/>
        <path d="M19.9994 18.5184V18.5672C19.9791 18.6836 19.9295 18.7666 19.8505 18.816C19.2518 19.1905 18.6525 19.5638 18.0525 19.936C18.0005 19.968 17.9447 19.9828 17.8876 20.0004H17.8193C17.6136 19.9543 17.5104 19.8241 17.5099 19.6098C17.5094 19.3765 17.509 19.1453 17.5087 18.9164C17.5087 18.9061 17.5046 18.8961 17.4973 18.8888C17.49 18.8815 17.48 18.8774 17.4697 18.8774H6.43092C6.42076 18.8774 6.411 18.8813 6.4037 18.8884C6.39641 18.8955 6.39216 18.9051 6.39186 18.9153C6.38561 19.1226 6.38339 19.3263 6.38522 19.5266C6.38795 19.7825 6.3399 19.9571 6.07115 20.0004H6.02232C5.94628 19.9825 5.89563 19.9657 5.87037 19.95C5.31464 19.6042 4.75916 19.2582 4.20395 18.9121C4.06619 18.8262 3.98025 18.7538 3.94614 18.695C3.82465 18.4852 3.96293 18.3008 4.15239 18.1836C4.71333 17.8373 5.27427 17.491 5.83521 17.145C6.01763 17.0325 6.24107 17.0528 6.34225 17.2516C6.37324 17.3123 6.38756 17.4091 6.38522 17.5422C6.38131 17.7474 6.3847 17.9522 6.39537 18.1567C6.39587 18.1667 6.40021 18.1761 6.40748 18.183C6.41475 18.1899 6.4244 18.1938 6.43444 18.1938H17.4724C17.4777 18.1938 17.4829 18.1927 17.4877 18.1907C17.4926 18.1886 17.4969 18.1857 17.5006 18.1819C17.5042 18.1781 17.5071 18.1737 17.509 18.1688C17.5108 18.1639 17.5117 18.1588 17.5115 18.1535C17.5037 17.9106 17.5057 17.667 17.5177 17.4227C17.5279 17.2149 17.6705 17.0512 17.8841 17.0793C17.9505 17.0879 18.0442 17.1297 18.165 17.2047C18.7176 17.5479 19.2696 17.8918 19.8209 18.2364C19.924 18.3009 19.9835 18.395 19.9994 18.5184ZM5.6817 19.0289C5.68374 19.0302 5.68607 19.0308 5.68846 19.0309C5.69084 19.0309 5.6932 19.0304 5.69529 19.0292C5.69739 19.0281 5.69915 19.0264 5.70039 19.0244C5.70164 19.0223 5.70233 19.02 5.7024 19.0176V18.052C5.70233 18.0496 5.70164 18.0473 5.70039 18.0452C5.69915 18.0432 5.69739 18.0415 5.69529 18.0404C5.6932 18.0392 5.69084 18.0387 5.68846 18.0387C5.68607 18.0388 5.68374 18.0394 5.6817 18.0407L4.90513 18.5231C4.9031 18.5243 4.90143 18.526 4.90027 18.5281C4.89911 18.5301 4.8985 18.5324 4.8985 18.5348C4.8985 18.5372 4.89911 18.5395 4.90027 18.5415C4.90143 18.5436 4.9031 18.5453 4.90513 18.5465L5.6817 19.0289ZM18.2177 18.0403C18.2152 18.0387 18.2124 18.0379 18.2094 18.0378C18.2065 18.0378 18.2036 18.0385 18.2011 18.0399C18.1985 18.0414 18.1964 18.0435 18.1949 18.046C18.1935 18.0485 18.1927 18.0514 18.1927 18.0543V19.0176C18.1927 19.0205 18.1935 19.0234 18.1949 19.0259C18.1964 19.0285 18.1985 19.0306 18.2011 19.032C18.2036 19.0334 18.2065 19.0342 18.2094 19.0341C18.2124 19.034 18.2152 19.0332 18.2177 19.0317L18.9919 18.55C18.9944 18.5486 18.9964 18.5465 18.9978 18.544C18.9992 18.5416 18.9999 18.5388 18.9999 18.536C18.9999 18.5331 18.9992 18.5304 18.9978 18.5279C18.9964 18.5254 18.9944 18.5234 18.9919 18.5219L18.2177 18.0403Z" fill="black"/>
    </g>
</svg>
