<svg width="20" height="20" viewBox="0 0 20 20" fill="none" xmlns="http://www.w3.org/2000/svg">
    <g clip-path="url(#clip0_582_14230)">
        <path d="M4.17644 14.3468V13.8C4.17644 13.7407 4.1284 13.6932 4.06963 13.6932H3.52282C3.46354 13.6932 3.41602 13.6451 3.41602 13.5864V13.3145C3.41602 13.2552 3.46405 13.2077 3.52282 13.2077H4.06963C4.12891 13.2077 4.17644 13.1597 4.17644 13.1009V12.5541C4.17644 12.4948 4.22448 12.4473 4.28325 12.4473H4.55512C4.6144 12.4473 4.66193 12.4953 4.66193 12.5541V13.1009C4.66193 13.1602 4.70996 13.2077 4.76873 13.2077H5.31555C5.37483 13.2077 5.42235 13.2557 5.42235 13.3145V13.5864C5.42235 13.6457 5.37431 13.6932 5.31555 13.6932H4.76873C4.70945 13.6932 4.66193 13.7412 4.66193 13.8V14.3468C4.66193 14.4061 4.61389 14.4536 4.55512 14.4536H4.28325C4.22397 14.4536 4.17644 14.4056 4.17644 14.3468Z" fill="black" stroke="black" stroke-width="0.4"/>
        <path d="M8.64504 13.207H7.50134C7.44235 13.207 7.39453 13.2549 7.39453 13.3138V13.5862C7.39453 13.6452 7.44235 13.693 7.50134 13.693H8.64504C8.70403 13.693 8.75185 13.6452 8.75185 13.5862V13.3138C8.75185 13.2549 8.70403 13.207 8.64504 13.207Z" fill="black" stroke="black" stroke-width="0.4"/>
        <path d="M11.4831 14.3468V13.8C11.4831 13.7407 11.435 13.6932 11.3763 13.6932H10.8295C10.7702 13.6932 10.7227 13.6451 10.7227 13.5864V13.3145C10.7227 13.2552 10.7707 13.2077 10.8295 13.2077H11.3763C11.4356 13.2077 11.4831 13.1597 11.4831 13.1009V12.5541C11.4831 12.4948 11.5311 12.4473 11.5899 12.4473H11.8618C11.921 12.4473 11.9686 12.4953 11.9686 12.5541V13.1009C11.9686 13.1602 12.0166 13.2077 12.0754 13.2077H12.6222C12.6815 13.2077 12.729 13.2557 12.729 13.3145V13.5864C12.729 13.6457 12.681 13.6932 12.6222 13.6932H12.0754C12.0161 13.6932 11.9686 13.7412 11.9686 13.8V14.3468C11.9686 14.4061 11.9205 14.4536 11.8618 14.4536H11.5899C11.5306 14.4536 11.4831 14.4056 11.4831 14.3468Z" fill="black" stroke="black" stroke-width="0.4"/>
        <path d="M3.0857 20.002C2.29921 20.002 1.52907 19.5916 1.02672 18.9042C0.52897 18.2235 0.372081 17.3757 0.607159 16.6363L0.610225 16.626L1.69414 12.8331C2.1694 11.1676 3.67952 10.049 5.4518 10.049C5.4518 10.049 5.4518 10.049 5.45231 10.049C5.49218 10.049 5.52846 10.072 5.54635 10.1072L6.0303 11.0751C6.04819 11.1114 6.08549 11.1344 6.12586 11.1344H8.93709C8.99637 11.1344 9.04389 11.0864 9.04389 11.0276V0.10876C9.04389 0.0494797 9.09193 0.00195312 9.1507 0.00195312H19.1793C19.2386 0.00195312 19.2861 0.0499907 19.2861 0.10876V17.4549C19.2861 17.5142 19.2381 17.5617 19.1793 17.5617H15.7359C15.6843 17.5617 15.6399 17.5985 15.6307 17.6491L15.5918 17.8602C15.3711 19.0606 14.2498 20.0014 13.0397 20.0014C13.0254 20.0014 13.0111 20.0014 12.9968 20.0014H12.9901C11.9057 20.0014 10.9378 19.3969 10.4641 18.4234L10.3941 18.2792C10.3762 18.2424 10.3389 18.2195 10.298 18.2189H10.1375C9.5212 18.2169 8.96877 17.8244 8.76282 17.2418L8.70201 17.0701C8.68668 17.0272 8.64631 16.9991 8.60133 16.9991H7.54451C7.49902 16.9991 7.45865 17.0277 7.44383 17.0701L7.38302 17.2418C7.17707 17.8239 6.62464 18.2164 6.00832 18.2184H5.84786C5.80698 18.2189 5.76967 18.2424 5.75178 18.2792L5.68177 18.4234C5.20855 19.3969 4.24064 20.0014 3.15622 20.0014H3.14702C3.12658 20.002 3.10614 20.0025 3.08621 20.0025L3.0857 20.002ZM12.9845 19.5154C13.0024 19.5154 13.0198 19.516 13.0377 19.516C13.6851 19.516 14.3173 19.1817 14.7282 18.6216C15.1396 18.0615 15.2632 17.3813 15.068 16.7548L13.9856 12.966C13.6172 11.6766 12.5174 10.7358 11.1841 10.5697L11.0037 10.5472C10.9588 10.5416 10.9153 10.5651 10.8949 10.6055L10.4171 11.5611C10.3992 11.5974 10.3619 11.6204 10.3215 11.6204H10.0174C9.9377 11.6204 9.88608 11.5366 9.92186 11.4656L10.5959 10.1185C10.6143 10.0822 10.6521 10.0592 10.693 10.0592C10.9373 10.0607 11.0477 10.0669 11.0737 10.0699L11.3635 10.1067C11.4274 10.1149 11.4841 10.0648 11.4841 10.0004V0.594758C11.4841 0.535477 11.4361 0.487951 11.3773 0.487951H9.63772C9.57844 0.487951 9.53091 0.535988 9.53091 0.594758V11.5136C9.53091 11.5729 9.48287 11.6204 9.42411 11.6204H5.82691C5.78653 11.6204 5.74923 11.5974 5.73134 11.5611L5.25352 10.6055C5.23308 10.5651 5.18964 10.5416 5.14467 10.5472L4.96376 10.5697C3.63046 10.7363 2.53071 11.6771 2.16225 12.9665L1.07987 16.7548C0.884653 17.3813 1.00832 18.0615 1.41971 18.6216C1.83059 19.1817 2.46274 19.516 3.11023 19.516C3.1276 19.516 3.14549 19.516 3.16337 19.5154C3.98921 19.5134 4.75781 19.0693 5.17022 18.3554L5.28009 18.1653C5.30616 18.1198 5.29594 18.0621 5.25505 18.0288L5.08488 17.8903C4.47368 17.3931 4.32547 16.4753 4.92288 15.7292C4.92748 15.723 4.9331 15.7174 4.93923 15.7123C5.88005 14.9079 7.06106 15.3525 7.38506 16.2698L7.44588 16.4415C7.46121 16.4845 7.50158 16.5126 7.54655 16.5126H8.60338C8.64886 16.5126 8.68923 16.484 8.70405 16.4415L8.76487 16.2698C9.08886 15.353 10.2694 14.9084 11.2102 15.7118C11.2158 15.7169 11.2214 15.7225 11.2265 15.7287C11.8245 16.4748 11.6763 17.3931 11.0656 17.8903L10.8954 18.0288C10.8545 18.0621 10.8438 18.1198 10.8703 18.1653L10.9802 18.3554C11.3926 19.0693 12.1612 19.5139 12.9871 19.516L12.9845 19.5154ZM10.8427 16.0317C9.80943 15.2554 8.64119 16.4237 9.41746 17.457C9.42411 17.4657 9.43228 17.4738 9.44097 17.4805C10.4743 18.2573 11.6425 17.0885 10.8663 16.0552C10.8596 16.0465 10.8514 16.0383 10.8427 16.0317ZM6.70436 16.0317C5.67155 15.2554 4.5028 16.4237 5.27907 17.457C5.28572 17.4657 5.29389 17.4738 5.30258 17.4805C6.3359 18.2573 7.50465 17.0885 6.72787 16.0552C6.72122 16.0465 6.71305 16.0383 6.70436 16.0317ZM16.9543 17.0763H18.6938C18.7531 17.0763 18.8006 17.0282 18.8006 16.9695V0.594758C18.8006 0.535477 18.7526 0.487951 18.6938 0.487951H16.9543C16.895 0.487951 16.8475 0.535988 16.8475 0.594758V16.9695C16.8475 17.0287 16.8955 17.0763 16.9543 17.0763ZM15.5371 16.6276C15.552 16.6797 15.5658 16.7344 15.578 16.7901L15.6225 16.9924C15.6332 17.0415 15.6767 17.0763 15.7267 17.0763H16.2546C16.3139 17.0763 16.3615 17.0282 16.3615 16.9695V0.594758C16.3615 0.535477 16.3134 0.487951 16.2546 0.487951H12.0759C12.0166 0.487951 11.9691 0.535988 11.9691 0.594758V10.167C11.9691 10.2105 11.9951 10.2498 12.0355 10.2662L12.1955 10.3316C12.6125 10.5017 12.9891 10.7348 13.3162 11.0245L13.7444 11.4042C13.8134 11.4656 13.9223 11.4165 13.9223 11.324V7.42632C13.9223 7.36704 13.9703 7.31951 14.0291 7.31951H14.3009C14.3602 7.31951 14.4078 7.36755 14.4078 7.42632V12.6721C14.4078 12.6829 14.4093 12.6941 14.4129 12.7043L14.4246 12.7421C14.4665 12.8745 14.8748 14.308 15.1733 15.3551C15.3629 16.0199 15.5131 16.5468 15.5366 16.6276H15.5371Z" fill="black" stroke="black" stroke-width="0.4"/>
        <path d="M14.3011 2.44141H14.0287C13.9697 2.44141 13.9219 2.48923 13.9219 2.54821V2.8206C13.9219 2.87958 13.9697 2.9274 14.0287 2.9274H14.3011C14.3601 2.9274 14.4079 2.87958 14.4079 2.8206V2.54821C14.4079 2.48923 14.3601 2.44141 14.3011 2.44141Z" fill="black" stroke="black" stroke-width="0.4"/>
        <path d="M14.3011 4.88086H14.0287C13.9697 4.88086 13.9219 4.92868 13.9219 4.98767V5.26005C13.9219 5.31904 13.9697 5.36686 14.0287 5.36686H14.3011C14.3601 5.36686 14.4079 5.31904 14.4079 5.26005V4.98767C14.4079 4.92868 14.3601 4.88086 14.3011 4.88086Z" fill="black" stroke="black" stroke-width="0.4"/>
    </g>
    <defs>
        <clipPath id="clip0_582_14230">
            <rect width="20" height="20" fill="white"/>
        </clipPath>
    </defs>
</svg>
