<svg width="20" height="20" viewBox="0 0 20 20" fill="none" xmlns="http://www.w3.org/2000/svg">
    <g clip-path="url(#clip0_579_13835)">
        <path d="M17.4874 11.6758V5.07856C17.4869 4.84229 17.406 4.61322 17.2582 4.42895C17.1103 4.24468 16.9042 4.11616 16.6736 4.06448C16.4431 4.0128 16.2018 4.04103 15.9894 4.14454C15.777 4.24805 15.6061 4.42068 15.5048 4.63411C12.4839 2.898 6.51866 2.898 3.49783 4.63411C3.39649 4.42068 3.22559 4.24805 3.01321 4.14454C2.80082 4.04103 2.55955 4.0128 2.329 4.06448C2.09845 4.11616 1.89232 4.24468 1.74445 4.42895C1.59657 4.61322 1.51573 4.84229 1.51519 5.07856V11.6758C1.4231 11.6758 1.33478 11.7124 1.26967 11.7775C1.20455 11.8426 1.16797 11.9309 1.16797 12.023V16.1897C1.16797 16.2818 1.20455 16.3701 1.26967 16.4352C1.33478 16.5003 1.4231 16.5369 1.51519 16.5369H2.90408C2.99617 16.5369 3.08449 16.5003 3.1496 16.4352C3.21472 16.3701 3.2513 16.2818 3.2513 16.1897V14.4536H15.7513V16.1897C15.7513 16.2818 15.7879 16.3701 15.853 16.4352C15.9181 16.5003 16.0064 16.5369 16.0985 16.5369H17.4874C17.5795 16.5369 17.6678 16.5003 17.7329 16.4352C17.7981 16.3701 17.8346 16.2818 17.8346 16.1897V12.023C17.8346 11.9309 17.7981 11.8426 17.7329 11.7775C17.6678 11.7124 17.5795 11.6758 17.4874 11.6758ZM1.86241 13.7591V12.3702H17.1402V13.7591H1.86241ZM2.90408 5.07856V5.20356C2.90437 5.26718 2.92214 5.32949 2.95544 5.3837C2.98873 5.4379 3.03628 5.48192 3.09289 5.51094C3.14951 5.53997 3.213 5.55288 3.27645 5.54827C3.3399 5.54366 3.40087 5.52171 3.45269 5.48481C6.16102 3.55773 12.8277 3.55773 15.5499 5.48481C15.6017 5.52171 15.6627 5.54366 15.7262 5.54827C15.7896 5.55288 15.8531 5.53997 15.9097 5.51094C15.9663 5.48192 16.0139 5.4379 16.0472 5.3837C16.0805 5.32949 16.0982 5.26718 16.0985 5.20356V5.07856C16.0985 4.98647 16.1351 4.89815 16.2002 4.83304C16.2653 4.76792 16.3537 4.73134 16.4457 4.73134C16.5378 4.73134 16.6262 4.76792 16.6913 4.83304C16.7564 4.89815 16.793 4.98647 16.793 5.07856V9.93967C16.3705 9.64461 15.8519 9.52054 15.3416 9.59245C15.397 9.43556 15.4141 9.26768 15.3914 9.10284C15.3686 8.938 15.3067 8.78101 15.2109 8.64501C15.115 8.50901 14.9879 8.39796 14.8403 8.32116C14.6927 8.24435 14.5288 8.20403 14.3624 8.20356H11.5846C11.4182 8.20403 11.2544 8.24435 11.1068 8.32116C10.9591 8.39796 10.8321 8.50901 10.7362 8.64501C10.6403 8.78101 10.5784 8.938 10.5557 9.10284C10.5329 9.26768 10.55 9.43556 10.6055 9.59245H8.39714C8.4526 9.43556 8.46968 9.26768 8.44693 9.10284C8.42419 8.938 8.36229 8.78101 8.26641 8.64501C8.17053 8.50901 8.04346 8.39796 7.89585 8.32116C7.74823 8.24435 7.58437 8.20403 7.41797 8.20356H4.64019C4.36392 8.20356 4.09897 8.31331 3.90362 8.50866C3.70827 8.70401 3.59852 8.96896 3.59852 9.24522C3.59852 9.67925 3.86241 9.59245 3.2513 9.59245C2.87533 9.59041 2.50919 9.71246 2.20964 9.93967V5.07856C2.20964 4.98647 2.24622 4.89815 2.31133 4.83304C2.37645 4.76792 2.46477 4.73134 2.55686 4.73134C2.64895 4.73134 2.73726 4.76792 2.80238 4.83304C2.8675 4.89815 2.90408 4.98647 2.90408 5.07856ZM11.5846 8.898H14.3624C14.4545 8.898 14.5428 8.93458 14.6079 8.9997C14.6731 9.06482 14.7096 9.15314 14.7096 9.24522C14.7096 9.33731 14.6731 9.42563 14.6079 9.49075C14.5428 9.55587 14.4545 9.59245 14.3624 9.59245H11.5846C11.4925 9.59245 11.4042 9.55587 11.3391 9.49075C11.274 9.42563 11.2374 9.33731 11.2374 9.24522C11.2374 9.15314 11.274 9.06482 11.3391 8.9997C11.4042 8.93458 11.4925 8.898 11.5846 8.898ZM4.64019 8.898H7.41797C7.51006 8.898 7.59838 8.93458 7.66349 8.9997C7.72861 9.06482 7.76519 9.15314 7.76519 9.24522C7.76519 9.33731 7.72861 9.42563 7.66349 9.49075C7.59838 9.55587 7.51006 9.59245 7.41797 9.59245H4.64019C4.5481 9.59245 4.45978 9.55587 4.39467 9.49075C4.32955 9.42563 4.29297 9.33731 4.29297 9.24522C4.29297 9.15314 4.32955 9.06482 4.39467 8.9997C4.45978 8.93458 4.5481 8.898 4.64019 8.898ZM2.20964 11.3286C2.20964 11.0523 2.31938 10.7873 2.51473 10.592C2.71008 10.3966 2.97503 10.2869 3.2513 10.2869H15.7513C16.0276 10.2869 16.2925 10.3966 16.4879 10.592C16.6832 10.7873 16.793 11.0523 16.793 11.3286V11.6758H2.20964V11.3286ZM2.55686 15.8424H1.86241V14.4536H2.55686V15.8424ZM17.1402 15.8424H16.4457V14.4536H17.1402V15.8424Z" fill="black"/>
    </g>
    <defs>
        <clipPath id="clip0_579_13835">
            <rect width="20" height="20" fill="white"/>
        </clipPath>
    </defs>
</svg>
