<svg width="20" height="20" viewBox="0 0 20 20" fill="none" xmlns="http://www.w3.org/2000/svg">
    <g clip-path="url(#clip0_579_13819)">
        <path d="M1.16797 18.3346L2.0013 17.5013C2.46154 17.0411 3.20773 17.0411 3.66797 17.5013V17.5013C4.12821 17.9615 4.8744 17.9615 5.33464 17.5013V17.5013C5.79487 17.0411 6.54106 17.0411 7.0013 17.5013V17.5013C7.46154 17.9615 8.20773 17.9615 8.66797 17.5013V17.5013C9.12821 17.0411 9.8744 17.0411 10.3346 17.5013V17.5013C10.7949 17.9615 11.5411 17.9615 12.0013 17.5013V17.5013C12.4615 17.0411 13.2077 17.0411 13.668 17.5013V17.5013C14.1282 17.9615 14.8744 17.9615 15.3346 17.5013V17.5013C15.7949 17.0411 16.5411 17.0411 17.0013 17.5013L17.8346 18.3346" stroke="black" stroke-width="0.833333" stroke-linejoin="round"/>
        <path d="M1.16797 15.4186L2.0013 14.5853C2.46154 14.125 3.20773 14.125 3.66797 14.5853V14.5853C4.12821 15.0455 4.8744 15.0455 5.33464 14.5853V14.5853C5.79487 14.125 6.54106 14.125 7.0013 14.5853V14.5853C7.46154 15.0455 8.20773 15.0455 8.66797 14.5853V14.5853C9.12821 14.125 9.8744 14.125 10.3346 14.5853V14.5853C10.7949 15.0455 11.5411 15.0455 12.0013 14.5853V14.5853C12.4615 14.125 13.2077 14.125 13.668 14.5853V14.5853C14.1282 15.0455 14.8744 15.0455 15.3346 14.5853V14.5853C15.7949 14.125 16.5411 14.125 17.0013 14.5853L17.8346 15.4186" stroke="black" stroke-width="0.833333" stroke-linejoin="round"/>
        <path d="M2.83398 14.1673L4.04 11.7553C4.32232 11.1907 4.89942 10.834 5.53071 10.834H13.4706C14.1019 10.834 14.679 11.1907 14.9613 11.7553L16.1673 14.1673" stroke="black" stroke-width="0.833333" stroke-linejoin="round"/>
        <path d="M7.00065 3.33398C4.69946 3.33398 2.83398 5.19946 2.83398 7.50065L5.43815 6.80621L7.00065 7.50065L8.56315 6.80621L11.1673 7.50065C11.1673 5.19946 9.30184 3.33398 7.00065 3.33398Z" stroke="black" stroke-width="0.833333" stroke-linejoin="round"/>
        <path d="M7.00195 7.50195V10.8353" stroke="black" stroke-width="0.833333" stroke-linejoin="round"/>
        <circle cx="15.7513" cy="3.7513" r="2.08333" stroke="black" stroke-width="0.833333"/>
    </g>
    <defs>
        <clipPath id="clip0_579_13819">
            <rect width="20" height="20" fill="white"/>
        </clipPath>
    </defs>
</svg>
