<svg width="21" height="20" viewBox="0 0 21 20" fill="none" xmlns="http://www.w3.org/2000/svg">
    <path d="M16.1014 12.3241C16.1014 12.7459 15.7596 13.0877 15.3378 13.0877C14.9161 13.0877 14.5742 12.7459 14.5742 12.3241C14.5742 11.9024 14.9161 11.5605 15.3378 11.5605C15.7596 11.5605 16.1014 11.9024 16.1014 12.3241Z" stroke="black" stroke-width="0.8" stroke-linecap="round" stroke-linejoin="round"/>
    <path d="M3.10142 12.3241C3.10142 12.7459 2.75957 13.0877 2.33782 13.0877C1.91606 13.0877 1.57422 12.7459 1.57422 12.3241C1.57422 11.9024 1.91606 11.5605 2.33782 11.5605C2.75957 11.5605 3.10142 11.9024 3.10142 12.3241Z" stroke="black" stroke-width="0.8" stroke-linecap="round" stroke-linejoin="round"/>
    <path d="M17.2216 12.7789C17.4725 11.7386 16.8326 10.6918 15.7923 10.4409C14.752 10.19 13.7052 10.83 13.4543 11.8703C13.2034 12.9106 13.8433 13.9573 14.8836 14.2082C15.924 14.4591 16.9707 13.8192 17.2216 12.7789Z" stroke="black" stroke-width="0.8" stroke-linecap="round" stroke-linejoin="round"/>
    <path d="M4.2216 12.7789C4.47251 11.7386 3.83257 10.6918 2.79226 10.4409C1.75196 10.19 0.705218 10.83 0.45431 11.8703C0.203401 12.9106 0.843337 13.9573 1.88364 14.2082C2.92395 14.4591 3.97069 13.8192 4.2216 12.7789Z" stroke="black" stroke-width="0.8" stroke-linecap="round" stroke-linejoin="round"/>
    <path d="M3.59375 13.7988H14.0804" stroke="black" stroke-width="0.8" stroke-linecap="round" stroke-linejoin="round"/>
    <path d="M16.5947 13.7992H19.2847C19.67 13.7992 19.9822 13.4871 19.9822 13.1017C19.9822 12.4699 19.6918 11.8732 19.1951 11.4829L13.5977 7.08789" stroke="black" stroke-width="0.8" stroke-linecap="round" stroke-linejoin="round"/>
    <path d="M14.739 8.09375L13.1344 9.67618C12.8976 9.90965 12.7243 10.2 12.631 10.5193L12.293 11.6774" stroke="black" stroke-width="0.8" stroke-linecap="round" stroke-linejoin="round"/>
    <path d="M13.5293 9.28704L11.5 7.5293" stroke="black" stroke-width="0.8" stroke-linecap="round" stroke-linejoin="round"/>
    <path d="M12.2391 6.74609L10.75 8.32266" stroke="black" stroke-width="0.8" stroke-linecap="round" stroke-linejoin="round"/>
    <path d="M4.27539 11.6777H13.3997" stroke="black" stroke-width="0.8" stroke-linecap="round" stroke-linejoin="round"/>
    <path d="M11.5549 11.6169V11.4252C11.5549 10.9353 11.1578 10.5378 10.6675 10.5378H8.35073L6.96705 6.73025C6.81768 6.31937 6.36412 6.1064 5.95241 6.25368C5.55617 6.39552 5.33944 6.8223 5.45827 7.22607L6.73107 11.6771" stroke="black" stroke-width="0.8" stroke-linecap="round" stroke-linejoin="round"/>
    <path d="M6.05398 9.3125H2.51967C2.23933 9.3125 2.01172 9.5397 2.01172 9.82045V10.2552" stroke="black" stroke-width="0.8" stroke-linecap="round" stroke-linejoin="round"/>
</svg>
