<svg width="20" height="20" viewBox="0 0 20 20" fill="none" xmlns="http://www.w3.org/2000/svg">
    <path d="M8.97233 19.3559H4.26286C3.43028 19.3559 2.72564 18.7062 2.65799 17.8763L1.75977 6.79688H11.4748L10.5765 17.8763C10.5096 18.7062 9.80424 19.3559 8.97166 19.3559H8.97233ZM2.45838 7.44057L3.30034 17.8234C3.34053 18.3217 3.76318 18.7115 4.26286 18.7115H8.97166C9.47134 18.7115 9.89399 18.3217 9.93418 17.8234L10.7761 7.44057H2.45838Z" fill="black"/>
    <path d="M8.99891 17.4224H4.23988C3.5627 17.4224 2.92704 17.0614 2.58008 16.4793L3.13268 16.1491C3.36443 16.5369 3.78842 16.7781 4.23988 16.7781H8.99824C9.44969 16.7781 9.87436 16.5369 10.1054 16.1484L10.6587 16.478C10.3117 17.0607 9.67542 17.4218 8.99824 17.4218L8.99891 17.4224Z" fill="black"/>
    <path d="M13.3527 18.7109C12.6802 18.7109 12.074 18.2875 11.8415 17.6559L10.4262 13.8092C10.3646 13.6424 10.4503 13.4575 10.6171 13.3959C10.7839 13.3343 10.9688 13.42 11.0304 13.5868L12.4457 17.4335C12.585 17.8126 12.9488 18.0665 13.352 18.0665C13.4478 18.0685 13.5261 18.0544 13.6119 18.0303L18.1479 16.7671C18.5645 16.6512 18.8552 16.2687 18.8552 15.8374C18.8552 15.7757 18.8491 15.7141 18.8378 15.6538L16.9295 5.76803C16.894 5.58316 16.7084 5.46862 16.5269 5.51886L12.5187 6.63477C12.3473 6.68233 12.1698 6.58253 12.1222 6.41105C12.0746 6.23958 12.1744 6.06208 12.3459 6.01452L17.0273 4.71106C17.2081 4.66083 17.3943 4.77537 17.4298 4.96024L19.4701 15.5312C19.4895 15.631 19.4995 15.7342 19.4995 15.8367C19.4995 16.5561 19.0153 17.1937 18.3213 17.3873L13.7854 18.6506C13.6454 18.6894 13.5013 18.7095 13.3573 18.7102H13.3533L13.3527 18.7109Z" fill="black"/>
    <path d="M12.7266 16.7771C12.2242 16.7771 11.7118 16.5742 11.3555 16.2346L11.8002 15.7684C12.117 16.0705 12.6 16.2145 13.0635 16.0859L17.6477 14.8092C18.0891 14.686 18.4227 14.3564 18.5392 13.9277L19.1608 14.0972C18.984 14.7469 18.483 15.2446 17.8205 15.4295L13.2363 16.7061C13.0668 16.7537 12.8954 16.7778 12.7266 16.7778V16.7771Z" fill="black"/>
    <path d="M5.16801 9.69463C4.14855 9.69463 3.14718 9.58277 2.19336 9.36307L2.33804 8.73545C3.24564 8.9451 4.19744 9.05093 5.16868 9.05093C7.37973 9.05093 9.3597 8.54322 10.8956 7.58203L11.2372 8.12793C9.59883 9.15342 7.5003 9.6953 5.16868 9.6953L5.16801 9.69463Z" fill="black"/>
    <path d="M13.7034 8.72846C13.27 8.72846 12.8353 8.70635 12.4066 8.66282C12.2264 8.64473 12.0965 8.48063 12.1199 8.30112C12.142 8.12763 12.2981 8.00439 12.4716 8.02247C12.8782 8.064 13.2914 8.08544 13.7034 8.08544C15.0142 8.08544 16.1448 7.91396 17.2326 7.54825C17.3974 7.49265 17.5762 7.57772 17.6365 7.74115C17.6995 7.91195 17.6097 8.10084 17.4376 8.15912C16.2821 8.54761 15.0859 8.7298 13.7027 8.7298L13.7034 8.72846Z" fill="black"/>
    <path d="M7.59312 4.16085L6.17228 8.91786C6.12136 9.08835 6.21815 9.2678 6.38846 9.31867C6.55878 9.36954 6.73813 9.27257 6.78905 9.10208L8.20989 4.34507C8.26081 4.17458 8.16403 3.99512 7.99371 3.94425C7.82339 3.89338 7.64404 3.99036 7.59312 4.16085Z" fill="black"/>
    <path d="M9.22975 3.18182L7.57658 8.71669C7.52566 8.88718 7.62244 9.06663 7.79276 9.1175C7.96307 9.16837 8.14242 9.0714 8.19335 8.9009L9.84652 3.36604C9.89744 3.19554 9.80066 3.01609 9.63034 2.96522C9.46002 2.91435 9.28067 3.01133 9.22975 3.18182Z" fill="black"/>
    <path d="M0.982936 6.47362C0.71635 6.47362 0.5 6.25727 0.5 5.99068C0.5 5.88887 0.533491 5.78974 0.597793 5.704L2.53289 3.12321C2.63068 2.99929 2.76799 2.93164 2.91468 2.93164L2.99171 2.93767L6.23093 3.58806C6.46001 3.63629 6.61808 3.82986 6.61808 4.05827C6.61808 4.2572 6.49283 4.43872 6.30528 4.50905L1.15173 6.44214C1.09747 6.4629 1.03987 6.47362 0.982936 6.47362ZM0.924662 5.8393C0.924662 5.8393 0.924662 5.8393 0.923993 5.8393H0.924662ZM2.98568 3.59275L1.44846 5.64305L5.54437 4.10716L2.98568 3.59275Z" fill="black"/>
    <path d="M3.868 5.10999L3.24805 5.2832L4.41293 9.45254L5.03288 9.27933L3.868 5.10999Z" fill="black"/>
    <path d="M5.97463 16.1333C4.73212 16.1333 3.7207 15.1219 3.7207 13.8794C3.7207 13.3529 3.90624 12.8405 4.24383 12.4366L4.45013 12.1895L7.91307 15.075L7.70677 15.3228C7.27675 15.8386 6.64578 16.134 5.9753 16.134L5.97463 16.1333ZM4.55663 13.1171C4.43138 13.3502 4.36439 13.6121 4.36439 13.8794C4.36439 14.7669 5.08645 15.4896 5.97463 15.4896C6.34437 15.4896 6.69669 15.3637 6.98002 15.1366L4.55663 13.1171Z" fill="black"/>
    <path d="M5.4802 11.4529C4.79431 11.9807 4.01063 11.197 4.53844 10.5111C5.22433 9.98328 6.00801 10.767 5.4802 11.4529Z" fill="black"/>
    <path d="M8.89043 13.5759C7.68945 14.4996 6.31901 13.1285 7.24269 11.9282C8.44366 11.0045 9.8141 12.3756 8.89043 13.5759ZM8.41955 12.399C7.90446 12.0032 7.31771 12.5906 7.7129 13.1057C8.22798 13.5015 8.81474 12.9141 8.41955 12.399Z" fill="black"/>
    <path d="M13.7225 11.6462C12.5215 12.5699 11.151 11.1988 12.0747 9.99847C13.2757 9.07479 14.6461 10.4459 13.7225 11.6462ZM13.2516 10.4687C12.7365 10.0728 12.1497 10.6602 12.5449 11.1753C13.06 11.5712 13.6468 10.9838 13.2516 10.4687Z" fill="black"/>
    <path d="M9.51741 10.3379H8.87305V10.9823H9.51741V10.3379Z" fill="black"/>
    <path d="M13.0604 13.8809H12.416V14.5246H13.0604V13.8809Z" fill="black"/>
    <path d="M17.939 3.89745H12.3634C12.0004 3.62149 12.0292 3.22496 12.2851 3.03138L14.8665 1.09562C15.044 0.967012 15.2631 0.970361 15.4312 1.09227L18.0173 3.03138C18.2732 3.22496 18.302 3.62149 17.939 3.89745ZM13.0627 3.25309H17.2397L15.1512 1.68706L13.0627 3.25309Z" fill="black"/>
    <path d="M15.0555 3.52286L14.2715 8.32617L14.9074 8.42997L15.6914 3.62666L15.0555 3.52286Z" fill="black"/>
    <path d="M14.1852 13.728L13.8945 13.6168L15.3574 9.37891L15.6548 9.47067C17.0869 9.91141 17.8123 11.6502 16.7138 13.1774C15.9241 13.8693 15.0031 14.0435 14.1846 13.7287L14.1852 13.728ZM14.7164 13.2109C15.2355 13.304 15.7854 13.1325 16.2509 12.6945C16.9201 11.7212 16.5678 10.6388 15.7539 10.2061L14.7164 13.2109Z" fill="black"/>
</svg>
