<svg width="21" height="20" viewBox="0 0 21 20" fill="none" xmlns="http://www.w3.org/2000/svg">
    <g clip-path="url(#clip0_583_16134)">
        <path d="M5.58358 6.97741C6.62104 6.97741 7.46208 6.13644 7.46208 5.09906C7.46208 4.06167 6.62104 3.2207 5.58358 3.2207C4.54611 3.2207 3.70508 4.06167 3.70508 5.09906C3.70508 6.13644 4.54611 6.97741 5.58358 6.97741Z" stroke="black" stroke-width="0.852897" stroke-linecap="round" stroke-linejoin="round"/>
        <path d="M6.15982 2.18132L5.58284 0.767578L5.00586 2.18132" stroke="black" stroke-width="0.852897" stroke-linecap="round" stroke-linejoin="round"/>
        <path d="M3.93009 2.62773L1.91016 1.42383L3.11415 3.44361" stroke="black" stroke-width="0.852897" stroke-linecap="round" stroke-linejoin="round"/>
        <path d="M2.66669 4.52344L1.27734 5.10037L2.66669 5.67731" stroke="black" stroke-width="0.852897" stroke-linecap="round" stroke-linejoin="round"/>
        <path d="M3.11241 6.75391L1.9707 8.7114L3.92835 7.56978" stroke="black" stroke-width="0.852897" stroke-linecap="round" stroke-linejoin="round"/>
        <path d="M5.00586 8.01562L5.58284 9.40486L6.15982 8.01562" stroke="black" stroke-width="0.852897" stroke-linecap="round" stroke-linejoin="round"/>
        <path d="M7.24023 7.56978L9.40467 8.91817L8.05617 6.75391" stroke="black" stroke-width="0.852897" stroke-linecap="round" stroke-linejoin="round"/>
        <path d="M8.50391 5.67731L10.4059 5.10037L8.50391 4.52344" stroke="black" stroke-width="0.852897" stroke-linecap="round" stroke-linejoin="round"/>
        <path d="M8.05617 3.44247L9.07737 1.60547L7.24023 2.62659" stroke="black" stroke-width="0.852897" stroke-linecap="round" stroke-linejoin="round"/>
        <path d="M1.54883 12.4794C3.35891 12.4401 3.38495 13.6466 5.19452 13.6078C7.00459 13.5684 6.97855 12.3625 8.78812 12.3232C10.5982 12.2839 10.6242 13.4903 12.4343 13.4515C14.2444 13.4122 14.2184 12.2063 16.0284 12.167C17.8385 12.1276 17.8646 13.3341 19.6746 13.2953" stroke="black" stroke-width="0.852897" stroke-linecap="round" stroke-linejoin="round"/>
        <path d="M1.74023 15.5195C3.37007 15.5195 3.37007 16.4242 4.99991 16.4242C6.62974 16.4242 6.62974 15.5195 8.25958 15.5195" stroke="black" stroke-width="0.852897" stroke-linecap="round" stroke-linejoin="round"/>
        <path d="M14.0193 18.8285C12.3895 18.8285 12.3895 17.9238 10.7597 17.9238C9.12984 17.9238 9.12984 18.8285 7.5 18.8285" stroke="black" stroke-width="0.852897" stroke-linecap="round" stroke-linejoin="round"/>
        <path d="M19.6619 16.018C18.0321 16.018 18.0321 15.1133 16.4023 15.1133C14.7724 15.1133 14.7724 16.018 13.1426 16.018" stroke="black" stroke-width="0.852897" stroke-linecap="round" stroke-linejoin="round"/>
    </g>
    <defs>
        <clipPath id="clip0_583_16134">
            <rect width="20" height="19.6466" fill="white" transform="translate(0.5)"/>
        </clipPath>
    </defs>
</svg>
