<svg width="20" height="20" viewBox="0 0 20 20" fill="none" xmlns="http://www.w3.org/2000/svg">
    <g clip-path="url(#clip0_582_14565)">
        <g clip-path="url(#clip1_582_14565)">
            <path d="M9.99852 19.458C15.2228 19.458 19.458 15.2228 19.458 9.99852C19.458 4.77421 15.2228 0.539062 9.99852 0.539062C4.77421 0.539062 0.539062 4.77421 0.539062 9.99852C0.539062 15.2228 4.77421 19.458 9.99852 19.458Z" stroke="black" stroke-width="0.9" stroke-linecap="round" stroke-linejoin="round"/>
            <path d="M13.6836 9.99805H16.7106" stroke="black" stroke-width="0.9" stroke-linecap="round" stroke-linejoin="round"/>
            <path d="M15.1973 8.48438V11.5114" stroke="black" stroke-width="0.9" stroke-linecap="round" stroke-linejoin="round"/>
            <path d="M8.49288 14.144C7.46888 14.144 6.72888 13.748 6.27288 12.956C5.81688 12.164 5.58887 11.104 5.58887 9.776C5.58887 9.144 5.63688 8.576 5.73288 8.072C5.83688 7.56 5.99688 7.1 6.21288 6.692C6.43688 6.284 6.74088 5.972 7.12488 5.756C7.50888 5.532 7.96488 5.42 8.49288 5.42C9.19688 5.42 9.77288 5.62 10.2209 6.02C10.6689 6.42 10.9769 6.932 11.1449 7.556C11.3209 8.18 11.4089 8.92 11.4089 9.776C11.4089 10.416 11.3569 10.992 11.2529 11.504C11.1569 12.008 10.9969 12.464 10.7729 12.872C10.5569 13.272 10.2569 13.584 9.87288 13.808C9.48888 14.032 9.02888 14.144 8.49288 14.144ZM8.49288 13.364C9.00488 13.364 9.41688 13.2 9.72888 12.872C10.0489 12.544 10.2649 12.128 10.3769 11.624C10.4889 11.12 10.5449 10.504 10.5449 9.776C10.5449 9.248 10.5129 8.78 10.4489 8.372C10.3849 7.956 10.2769 7.584 10.1249 7.256C9.97288 6.92 9.76088 6.664 9.48888 6.488C9.21688 6.304 8.88488 6.212 8.49288 6.212C7.13288 6.212 6.45288 7.4 6.45288 9.776C6.45288 10.896 6.60488 11.776 6.90888 12.416C7.22088 13.048 7.74888 13.364 8.49288 13.364Z" fill="black"/>
        </g>
    </g>
    <defs>
        <clipPath id="clip0_582_14565">
            <rect width="20" height="20" fill="white"/>
        </clipPath>
        <clipPath id="clip1_582_14565">
            <rect width="20" height="20" fill="white"/>
        </clipPath>
    </defs>
</svg>
