<svg width="20" height="20" viewBox="0 0 20 20" fill="none" xmlns="http://www.w3.org/2000/svg">
    <g clip-path="url(#clip0_650_13145)">
        <path d="M4.55399 5.59459C5.48802 5.37414 6.06649 4.43824 5.84603 3.50421C5.62558 2.57018 4.68969 1.99172 3.75566 2.21217C2.82163 2.43262 2.24316 3.36851 2.46361 4.30254C2.68407 5.23657 3.61996 5.81504 4.55399 5.59459Z" stroke="black" stroke-width="0.8" stroke-linecap="round" stroke-linejoin="round"/>
        <path d="M4.1543 0.285156V1.25552" stroke="black" stroke-width="0.8" stroke-linecap="round" stroke-linejoin="round"/>
        <path d="M6.71312 1.3457L6.02734 2.03148" stroke="black" stroke-width="0.8" stroke-linecap="round" stroke-linejoin="round"/>
        <path d="M7.77309 3.90234H6.80273" stroke="black" stroke-width="0.8" stroke-linecap="round" stroke-linejoin="round"/>
        <path d="M6.71312 6.46117L6.02734 5.77539" stroke="black" stroke-width="0.8" stroke-linecap="round" stroke-linejoin="round"/>
        <path d="M4.1543 7.52114V6.55078" stroke="black" stroke-width="0.8" stroke-linecap="round" stroke-linejoin="round"/>
        <path d="M1.59766 6.46117L2.28343 5.77539" stroke="black" stroke-width="0.8" stroke-linecap="round" stroke-linejoin="round"/>
        <path d="M0.537109 3.90234H1.50747" stroke="black" stroke-width="0.8" stroke-linecap="round" stroke-linejoin="round"/>
        <path d="M1.59766 1.3457L2.28343 2.03148" stroke="black" stroke-width="0.8" stroke-linecap="round" stroke-linejoin="round"/>
        <path d="M10.3108 16.4799C10.1347 16.4106 9.9227 16.3633 9.6324 16.3633C8.55604 16.3633 8.55604 17.0156 7.47967 17.0156C6.40331 17.0156 6.40331 16.3633 5.32694 16.3633C4.25058 16.3633 4.25058 17.0156 3.17421 17.0156C2.09785 17.0156 2.09785 16.3633 1.02148 16.3633" stroke="black" stroke-width="0.8" stroke-linecap="round" stroke-linejoin="round"/>
        <path d="M9.77787 18.6135C9.56097 18.4961 9.30737 18.4023 8.89803 18.4023C7.82166 18.4023 7.82166 19.0547 6.7453 19.0547C5.66893 19.0547 5.66893 18.4023 4.59257 18.4023C3.5162 18.4023 3.5162 19.0547 2.43984 19.0547C1.36347 19.0547 1.36347 18.4023 0.287109 18.4023" stroke="black" stroke-width="0.8" stroke-linecap="round" stroke-linejoin="round"/>
        <path d="M14.5977 5.84834V3.46484H19.7161V10.7124" stroke="black" stroke-width="0.8" stroke-linecap="round" stroke-linejoin="round"/>
        <path d="M16.6777 3.46472V2.54492" stroke="black" stroke-width="0.8" stroke-linecap="round" stroke-linejoin="round"/>
        <path d="M18.6348 3.46472V2.54492" stroke="black" stroke-width="0.8" stroke-linecap="round" stroke-linejoin="round"/>
        <path d="M11.5059 16.1937L11.5491 8.14949L14.9233 6.88477V14.0556" stroke="black" stroke-width="0.8" stroke-linecap="round" stroke-linejoin="round"/>
        <path d="M13.209 8.70312V9.6001" stroke="black" stroke-width="0.8" stroke-linecap="round" stroke-linejoin="round"/>
        <path d="M13.209 11.0059V13.1146" stroke="black" stroke-width="0.8" stroke-linecap="round" stroke-linejoin="round"/>
        <path d="M13.209 13.8164V14.7134" stroke="black" stroke-width="0.8" stroke-linecap="round" stroke-linejoin="round"/>
        <path d="M17.3008 4.75391V5.52856" stroke="black" stroke-width="0.8" stroke-linecap="round" stroke-linejoin="round"/>
        <path d="M17.3008 6.85938V11.5171" stroke="black" stroke-width="0.8" stroke-linecap="round" stroke-linejoin="round"/>
        <path d="M17.3008 12.1836V12.9583" stroke="black" stroke-width="0.8" stroke-linecap="round" stroke-linejoin="round"/>
        <path d="M10.4941 18.5147C11.3536 17.0477 13.1533 15.7512 15.4283 15.1445C16.9548 14.7376 18.4503 14.7066 19.715 14.9847" stroke="black" stroke-width="0.8" stroke-linecap="round" stroke-linejoin="round"/>
    </g>
    <defs>
        <clipPath id="clip0_650_13145">
            <rect width="20" height="19.3403" fill="white"/>
        </clipPath>
    </defs>
</svg>
