<svg width="22" height="20" viewBox="0 0 22 20" fill="none" xmlns="http://www.w3.org/2000/svg">
    <path d="M19.864 18.0499C19.6992 18.0499 19.5654 17.9161 19.5654 17.7513V11.6948H4.70069V12.3119C4.70069 12.4767 4.56692 12.6105 4.4021 12.6105C4.23728 12.6105 4.10352 12.4767 4.10352 12.3119V11.3962C4.10352 11.2314 4.23728 11.0977 4.4021 11.0977H19.864C20.0288 11.0977 20.1626 11.2314 20.1626 11.3962V17.7513C20.1626 17.9161 20.0288 18.0499 19.864 18.0499Z" fill="black" stroke="black" stroke-width="0.25"/>
    <path d="M2.19096 17.2598C2.1607 17.2598 2.13004 17.255 2.09979 17.2454C1.55995 17.0727 1.19727 16.5874 1.19727 16.0372C1.19727 15.6892 1.33979 15.3668 1.58861 15.1307C1.52451 14.9873 1.49028 14.8317 1.49028 14.6736C1.49028 14.2584 1.72516 13.8826 2.08187 13.6807C2.06237 13.6051 2.05241 13.5267 2.05241 13.4467C2.05241 12.9148 2.4983 12.4824 3.0465 12.4824C3.45934 12.4824 3.82043 12.7297 3.96853 13.0864C4.51474 13.1891 4.92838 13.6553 4.92838 14.2134C4.92838 14.3536 4.9029 14.4893 4.85353 14.6167C5.18118 14.8528 5.38064 15.2258 5.38064 15.6359C5.38064 16.2498 4.92798 16.7761 4.30414 16.8871C4.14211 16.9158 3.98684 16.8079 3.95778 16.6455C3.92872 16.4831 4.03701 16.3282 4.19944 16.2991C4.53783 16.239 4.78347 15.9599 4.78347 15.6355C4.78347 15.3608 4.6083 15.1155 4.33718 15.0108C4.248 14.9766 4.18112 14.9018 4.15644 14.8094C4.13176 14.717 4.15286 14.6187 4.21257 14.5446C4.29021 14.4483 4.33161 14.3336 4.33161 14.213C4.33161 13.9101 4.06925 13.6636 3.74559 13.662H3.7432C3.59231 13.6664 3.46054 13.5533 3.44063 13.4021C3.41675 13.2181 3.24755 13.0792 3.0465 13.0792C2.82754 13.0792 2.64958 13.244 2.64958 13.4463C2.64958 13.5235 2.67506 13.5971 2.72363 13.6596C2.78693 13.7409 2.80365 13.8491 2.76782 13.9459C2.73239 14.0426 2.64918 14.1143 2.54806 14.135C2.28093 14.1903 2.08705 14.4165 2.08705 14.6728C2.08705 14.7971 2.13044 14.9145 2.21245 15.0124C2.26899 15.0797 2.29287 15.1689 2.27774 15.2557C2.26262 15.3425 2.21007 15.4181 2.13403 15.4623C1.92064 15.5869 1.79364 15.8015 1.79364 16.0364C1.79364 16.3258 1.98951 16.5826 2.28093 16.6757C2.43818 16.7259 2.52457 16.8939 2.47441 17.0512C2.4338 17.1782 2.31636 17.259 2.19016 17.259L2.19096 17.2598Z" fill="black" stroke="black" stroke-width="0.25"/>
    <path d="M3.28882 17.9558C3.124 17.9558 2.99023 17.8221 2.99023 17.6573V15.1189C2.99023 14.9541 3.124 14.8203 3.28882 14.8203C3.45364 14.8203 3.5874 14.9541 3.5874 15.1189V17.6573C3.5874 17.8221 3.45364 17.9558 3.28882 17.9558Z" fill="black" stroke="black" stroke-width="0.25"/>
    <path d="M3.29013 16.2883C3.25829 16.2883 3.22564 16.2831 3.19379 16.2724L2.71964 16.1104C2.56358 16.057 2.48037 15.8874 2.53372 15.7314C2.58707 15.5753 2.75666 15.4921 2.91272 15.5454L3.38727 15.7075C3.54333 15.7608 3.62654 15.9304 3.57319 16.0865C3.53099 16.2107 3.41474 16.2887 3.29053 16.2887L3.29013 16.2883Z" fill="black" stroke="black" stroke-width="0.25"/>
    <path d="M7.74585 18.0508C7.58103 18.0508 7.44727 17.917 7.44727 17.7522V12.99C7.44727 12.8252 7.58103 12.6914 7.74585 12.6914H19.7533C19.9182 12.6914 20.0519 12.8252 20.0519 12.99C20.0519 13.1548 19.9182 13.2886 19.7533 13.2886H8.04444V17.7522C8.04444 17.917 7.91067 18.0508 7.74585 18.0508Z" fill="black" stroke="black" stroke-width="0.25"/>
    <path d="M10.5642 18.0501C10.3994 18.0501 10.2656 17.9163 10.2656 17.7515V13.0291C10.2656 12.8642 10.3994 12.7305 10.5642 12.7305C10.729 12.7305 10.8628 12.8642 10.8628 13.0291V17.7515C10.8628 17.9163 10.729 18.0501 10.5642 18.0501Z" fill="black" stroke="black" stroke-width="0.25"/>
    <path d="M13.656 18.0501C13.4912 18.0501 13.3574 17.9163 13.3574 17.7515V13.0291C13.3574 12.8642 13.4912 12.7305 13.656 12.7305C13.8208 12.7305 13.9546 12.8642 13.9546 13.0291V17.7515C13.9546 17.9163 13.8208 18.0501 13.656 18.0501Z" fill="black" stroke="black" stroke-width="0.25"/>
    <path d="M16.7498 18.0501C16.5849 18.0501 16.4512 17.9163 16.4512 17.7515V13.0291C16.4512 12.8642 16.5849 12.7305 16.7498 12.7305C16.9146 12.7305 17.0483 12.8642 17.0483 13.0291V17.7515C17.0483 17.9163 16.9146 18.0501 16.7498 18.0501Z" fill="black" stroke="black" stroke-width="0.25"/>
    <path d="M20.6995 18.2495H1.29663C1.13181 18.2495 0.998047 18.1157 0.998047 17.9509C0.998047 17.7861 1.13181 17.6523 1.29663 17.6523H20.6995C20.8643 17.6523 20.998 17.7861 20.998 17.9509C20.998 18.1157 20.8643 18.2495 20.6995 18.2495Z" fill="black" stroke="black" stroke-width="0.25"/>
    <path d="M16.7502 11.6552C16.5854 11.6552 16.4516 11.5214 16.4516 11.3566V3.59894L8.70875 2.60366L5.93311 3.54957V11.3562C5.93311 11.521 5.79934 11.6548 5.63452 11.6548C5.4697 11.6548 5.33594 11.521 5.33594 11.3562V3.33618C5.33594 3.20839 5.41715 3.09493 5.53818 3.05352L8.58175 2.01604C8.62475 2.00131 8.67093 1.99653 8.71631 2.00251L16.7885 3.03999C16.9373 3.0591 17.0488 3.1861 17.0488 3.33618V11.3566C17.0488 11.5214 16.9151 11.6552 16.7502 11.6552Z" fill="black" stroke="black" stroke-width="0.25"/>
    <path d="M8.67749 11.4876C8.51267 11.4876 8.37891 11.3538 8.37891 11.189V2.5603C8.37891 2.39548 8.51267 2.26172 8.67749 2.26172C8.84231 2.26172 8.97608 2.39548 8.97608 2.5603V11.1894C8.97608 11.3542 8.84231 11.488 8.67749 11.488V11.4876Z" fill="black" stroke="black" stroke-width="0.25"/>
</svg>
