<svg width="20" height="20" viewBox="0 0 20 20" fill="none" xmlns="http://www.w3.org/2000/svg">
    <g clip-path="url(#clip0_582_14664)">
        <path d="M19.1705 19.5C19.0525 19.5 18.933 19.4734 18.8199 19.4189L7.4794 13.9632C7.2076 13.8322 7.01498 13.5764 6.96435 13.2791C6.91372 12.9814 7.01079 12.6765 7.22435 12.4629L12.9336 6.75364C13.1472 6.54009 13.4521 6.44302 13.7498 6.49365C14.0475 6.54428 14.3033 6.73689 14.4339 7.00869L19.8896 18.3492C20.0392 18.6602 19.9783 19.0192 19.7343 19.2632C19.579 19.4185 19.3772 19.4996 19.1709 19.4996L19.1705 19.5ZM13.5914 7.05171C13.4966 7.05171 13.4064 7.08901 13.3371 7.15792L7.62786 12.8672C7.54373 12.9513 7.50719 13.0667 7.52698 13.1839C7.54678 13.3012 7.61986 13.3979 7.72683 13.4492L19.0674 18.905C19.204 18.9709 19.303 18.8875 19.33 18.8605C19.3571 18.8334 19.4404 18.7345 19.3746 18.5978L13.9188 7.25727C13.8674 7.1503 13.7707 7.07721 13.6535 7.05742C13.6325 7.05399 13.6116 7.05209 13.5911 7.05209L13.5914 7.05171Z" fill="black"/>
        <path d="M9.03991 14.6838C9.01973 14.6838 8.99918 14.6815 8.97862 14.6773C8.82445 14.6438 8.727 14.4916 8.7605 14.3374L9.6958 10.0567C9.7293 9.90258 9.88157 9.80512 10.0357 9.83862C10.1899 9.87212 10.2874 10.0244 10.2539 10.1786L9.31856 14.4592C9.28925 14.5928 9.17124 14.6838 9.03991 14.6838Z" fill="black"/>
        <path d="M11.1297 15.6883C11.1099 15.6883 11.0897 15.6864 11.0692 15.6818C10.915 15.6487 10.8168 15.4968 10.8503 15.3426L12.5991 7.21763C12.6322 7.06346 12.7841 6.96524 12.9383 6.99874C13.0925 7.03186 13.1907 7.18375 13.1572 7.33792L11.4084 15.4629C11.3794 15.5969 11.261 15.6883 11.1297 15.6883Z" fill="black"/>
        <path d="M13.2216 16.6948C13.2014 16.6948 13.1808 16.6925 13.1603 16.6883C13.0061 16.6548 12.9086 16.5025 12.9421 16.3484L14.6338 8.60362C14.6673 8.44945 14.8196 8.352 14.9738 8.3855C15.1279 8.419 15.2254 8.57127 15.1919 8.72544L13.5002 16.4702C13.4709 16.6038 13.3529 16.6948 13.2216 16.6948Z" fill="black"/>
        <path d="M15.3114 17.7002C15.2912 17.7002 15.2707 17.6979 15.2501 17.6937C15.0959 17.6602 14.9985 17.5079 15.032 17.3537L16.222 11.9064C16.2555 11.7522 16.4077 11.6547 16.5619 11.6882C16.7161 11.7217 16.8135 11.874 16.78 12.0282L15.59 17.4756C15.5607 17.6092 15.4427 17.7002 15.3114 17.7002Z" fill="black"/>
        <path d="M17.4012 18.7182C17.3811 18.7182 17.3605 18.7159 17.3399 18.7117C17.1858 18.6782 17.0883 18.5259 17.1218 18.3717L17.8124 15.211C17.8459 15.0569 17.9981 14.9594 18.1523 14.9929C18.3065 15.0264 18.4039 15.1787 18.3704 15.3329L17.6799 18.4936C17.6506 18.6272 17.5326 18.7182 17.4012 18.7182Z" fill="black"/>
        <path d="M2.36572 12.2966C2.31128 12.2966 2.25685 12.281 2.20964 12.2502C2.11866 12.1908 2.06918 12.085 2.08212 11.9769L2.16473 11.2924L1.64739 10.8364C1.56593 10.7644 1.53243 10.6525 1.5606 10.5478C1.58915 10.4428 1.67442 10.3632 1.78101 10.3423L2.45746 10.209L2.73116 9.57637C2.77418 9.47664 2.87049 9.41002 2.97898 9.40469C3.08747 9.39898 3.18987 9.45608 3.24278 9.55087L3.57853 10.1531L4.26488 10.2182C4.37299 10.2285 4.46626 10.2993 4.5047 10.4009C4.54353 10.5025 4.52107 10.6171 4.44722 10.6967L3.97824 11.2018L4.1286 11.8749C4.1522 11.9811 4.11375 12.0911 4.02925 12.1596C3.94474 12.2277 3.82863 12.2422 3.73004 12.1961L3.1046 11.9061L2.51113 12.257C2.46622 12.2837 2.41597 12.2966 2.36572 12.2966ZM2.45898 10.7907L2.65503 10.9635C2.72545 11.0256 2.76085 11.1185 2.74981 11.2117L2.7186 11.471L2.94319 11.3381C3.0239 11.2901 3.12325 11.2852 3.20852 11.3248L3.4453 11.4344L3.3882 11.1798C3.36764 11.088 3.39353 10.9921 3.45748 10.9232L3.63525 10.7317L3.37526 10.707C3.28161 10.6982 3.19862 10.6438 3.15294 10.5615L3.0258 10.3335L2.92226 10.573C2.88495 10.6594 2.80768 10.7214 2.71517 10.7397L2.45898 10.7899V10.7907Z" fill="black"/>
        <path d="M11.0742 3.45573C11.0289 3.45573 10.9832 3.44469 10.9413 3.42299C10.845 3.37236 10.786 3.27148 10.7887 3.16299L10.8039 2.57295L10.3265 2.22578C10.2386 2.16183 10.1948 2.05372 10.2131 1.94637C10.2314 1.83902 10.309 1.75185 10.4133 1.72101L10.9794 1.55314L11.1621 0.99203C11.1956 0.888868 11.285 0.813496 11.3928 0.797888C11.5001 0.782281 11.6075 0.829103 11.6691 0.918561L12.0038 1.40506H12.5942C12.703 1.40506 12.802 1.46711 12.85 1.56456C12.8979 1.66201 12.8865 1.77849 12.8203 1.86453L12.4609 2.33275L12.6433 2.89424C12.6768 2.99778 12.6486 3.11122 12.5709 3.18697C12.4933 3.26273 12.3791 3.28785 12.2767 3.25169L11.7202 3.05488L11.2424 3.40167C11.1925 3.43783 11.1339 3.45611 11.0745 3.45611L11.0742 3.45573ZM11.1305 2.10397L11.2614 2.19913C11.3376 2.25433 11.3814 2.34341 11.3791 2.43743L11.3749 2.59922L11.5058 2.50405C11.582 2.44885 11.6802 2.43439 11.7689 2.46598L11.9215 2.52004L11.8717 2.36625C11.8427 2.27679 11.8595 2.17896 11.9166 2.10435L12.0152 1.97606H11.8534C11.7594 1.97606 11.6714 1.92962 11.6181 1.85234L11.5264 1.71911L11.4761 1.8729C11.4472 1.96236 11.376 2.03164 11.2858 2.05829L11.1305 2.10435V2.10397Z" fill="black"/>
        <path d="M2.892 4.21995C2.88933 4.21995 2.88667 4.21995 2.884 4.21995C2.77551 4.21691 2.67806 4.15258 2.63276 4.0536L2.21745 3.14837L1.23646 2.97745C1.1295 2.95879 1.04232 2.88076 1.01149 2.77683C0.981035 2.67253 1.01225 2.55985 1.09181 2.48638L1.82422 1.81184L1.68375 0.8259C1.66852 0.71817 1.71535 0.611202 1.80519 0.549914C1.89502 0.488626 2.01151 0.483297 2.10629 0.536591L2.97422 1.02499L3.86842 0.586839C3.96587 0.538875 4.08235 0.550676 4.16838 0.616912C4.25442 0.683149 4.29553 0.792782 4.27383 0.899369L4.07779 1.87579L4.77098 2.59069C4.84674 2.66872 4.87148 2.78292 4.83494 2.88532C4.79839 2.98773 4.70703 3.06043 4.59892 3.073L3.60956 3.18834L3.14362 4.06845C3.09413 4.16209 2.99668 4.22033 2.89124 4.22033L2.892 4.21995ZM1.90416 2.51417L2.46336 2.61162C2.55587 2.62761 2.63466 2.68852 2.67387 2.77379L2.91065 3.2896L3.17598 2.78787C3.21975 2.70489 3.30198 2.64855 3.39524 2.63789L3.95902 2.57203L3.56388 2.16472C3.49841 2.09734 3.47062 2.00179 3.48889 1.90967L3.60081 1.35313L3.09109 1.60285C3.00658 1.64434 2.90722 1.6413 2.82538 1.59523L2.33089 1.31696L2.41083 1.87883C2.42415 1.97172 2.39066 2.06536 2.32175 2.12893L1.90416 2.51341V2.51417Z" fill="black"/>
        <path d="M9.25363 9.11764C9.18054 9.11764 9.10745 9.08985 9.05188 9.03389L8.83756 8.81957C8.72602 8.70804 8.72602 8.52722 8.83756 8.41568C8.94909 8.30415 9.12991 8.30415 9.24145 8.41568L9.45577 8.63C9.5673 8.74154 9.5673 8.92236 9.45577 9.03389C9.40019 9.08947 9.3271 9.11764 9.25401 9.11764H9.25363Z" fill="black"/>
        <path d="M8.05131 7.91532C7.97822 7.91532 7.90513 7.88753 7.84956 7.83157L4.3649 4.34692C4.25337 4.23538 4.25337 4.05456 4.3649 3.94303C4.47644 3.83149 4.65726 3.83149 4.76879 3.94303L8.25345 7.42768C8.36498 7.53922 8.36498 7.72003 8.25345 7.83157C8.19787 7.88715 8.12478 7.91532 8.05169 7.91532H8.05131Z" fill="black"/>
        <path d="M9.50575 6.3594C9.39383 6.3594 9.28763 6.29316 9.24195 6.18315L8.06682 3.34792C8.00629 3.20212 8.07557 3.03539 8.22137 2.97486C8.36717 2.91472 8.5339 2.98362 8.59443 3.12941L9.76955 5.96464C9.83008 6.11044 9.7608 6.27717 9.615 6.3377C9.57922 6.35255 9.54229 6.3594 9.50575 6.3594Z" fill="black"/>
        <path d="M7.89214 2.45993C7.78022 2.45993 7.67402 2.39369 7.62834 2.28368L7.56096 2.12151C7.50043 1.97572 7.56971 1.80898 7.71551 1.74846C7.86131 1.68793 8.02804 1.75721 8.08857 1.90301L8.15595 2.06518C8.21647 2.21097 8.14719 2.37771 8.00139 2.43823C7.96561 2.45308 7.92869 2.45993 7.89214 2.45993Z" fill="black"/>
        <path d="M2.01535 7.05172C1.97386 7.05172 1.93199 7.04258 1.89201 7.02355L1.71272 6.93752C1.57073 6.86938 1.51058 6.69884 1.5791 6.55647C1.64724 6.41448 1.81778 6.35433 1.96015 6.42285L2.13945 6.50889C2.28144 6.57703 2.34159 6.74757 2.27307 6.88994C2.22396 6.99234 2.12194 7.05172 2.01535 7.05172Z" fill="black"/>
        <path d="M7.12623 9.50527C7.08473 9.50527 7.04286 9.49613 7.00289 9.4771L3.28108 7.68947C3.13909 7.62133 3.07894 7.45079 3.14746 7.30842C3.2156 7.16643 3.38652 7.10629 3.52851 7.17481L7.25032 8.96243C7.39231 9.03057 7.45246 9.20111 7.38394 9.34348C7.33483 9.44588 7.23281 9.50527 7.12623 9.50527Z" fill="black"/>
        <path d="M7.12644 11.2155H5.59996C5.44236 11.2155 5.31445 11.0876 5.31445 10.93C5.31445 10.7724 5.44236 10.6445 5.59996 10.6445H7.12644C7.28404 10.6445 7.41194 10.7724 7.41194 10.93C7.41194 11.0876 7.28404 11.2155 7.12644 11.2155Z" fill="black"/>
        <path d="M12.0032 6.28871C11.8608 6.28871 11.7375 6.18212 11.7199 6.03709L11.5235 4.39373C11.5049 4.23728 11.6164 4.09491 11.7732 4.07626C11.9297 4.0576 12.0721 4.16914 12.0907 4.32598L12.2871 5.96933C12.3058 6.12578 12.1943 6.26815 12.0374 6.28681C12.026 6.28833 12.0146 6.28871 12.0032 6.28871Z" fill="black"/>
        <path d="M1.44929 13.5365C1.29931 13.5365 1.17331 13.4192 1.16455 13.2673C1.15541 13.1097 1.27571 12.975 1.43292 12.9658L1.64496 12.9537C1.80217 12.9441 1.93731 13.0648 1.94645 13.222C1.95558 13.3796 1.83529 13.5144 1.67807 13.5235L1.46604 13.5357C1.46033 13.5357 1.455 13.5361 1.44929 13.5361V13.5365Z" fill="black"/>
        <path d="M2.81062 13.4586C2.66064 13.4586 2.53463 13.3413 2.52588 13.1894C2.51674 13.0322 2.63703 12.8971 2.79425 12.8879L5.94429 12.7056C6.10151 12.6961 6.23665 12.8168 6.24579 12.974C6.25492 13.1312 6.13463 13.2663 5.97741 13.2755L2.82737 13.4578C2.82166 13.4578 2.81633 13.4582 2.81062 13.4582V13.4586Z" fill="black"/>
        <path d="M13.9557 4.22136C13.9431 4.22136 13.9302 4.2206 13.9173 4.2187C13.7612 4.19776 13.6515 4.05387 13.6725 3.89741L14.0246 1.2864C14.0455 1.13032 14.1891 1.02069 14.3459 1.04163C14.502 1.06256 14.6116 1.20646 14.5907 1.36291L14.2385 3.97393C14.2191 4.11706 14.0966 4.22136 13.9561 4.22136H13.9557Z" fill="black"/>
        <path d="M13.735 5.85882C13.7224 5.85882 13.7095 5.85805 13.6966 5.85615C13.5401 5.83521 13.4309 5.69132 13.4518 5.53487L13.5039 5.14772C13.5249 4.99165 13.6688 4.88202 13.8252 4.90295C13.9813 4.92389 14.0909 5.06778 14.07 5.22424L14.0178 5.61138C13.9984 5.75451 13.8759 5.85882 13.7354 5.85882H13.735Z" fill="black"/>
    </g>
    <defs>
        <clipPath id="clip0_582_14664">
            <rect width="18.9703" height="19" fill="white" transform="translate(1 0.5)"/>
        </clipPath>
    </defs>
</svg>
