<svg width="21" height="20" viewBox="0 0 21 20" fill="none" xmlns="http://www.w3.org/2000/svg">
    <g clip-path="url(#clip0_583_13422)">
        <mask id="mask0_583_13422" style="mask-type:luminance" maskUnits="userSpaceOnUse" x="0" y="-1" width="21" height="22">
            <path d="M20.498 -0.00195312H0.498047V19.998H20.498V-0.00195312Z" fill="white" stroke="white" stroke-width="0.25"/>
        </mask>
        <g mask="url(#mask0_583_13422)">
            <path fill-rule="evenodd" clip-rule="evenodd" d="M9.4124 9.88062C9.26446 9.88062 9.14053 9.76057 9.14053 9.60875V8.94882C9.14053 8.59795 9.6897 8.59795 9.6897 8.94882V9.60875C9.6897 9.76134 9.56499 9.88062 9.41318 9.88062H9.4124ZM20.2222 19.0569C19.5995 19.0569 19.0038 18.5728 18.4554 18.5728C17.907 18.5728 17.3114 19.0569 16.6887 19.0569C16.0659 19.0569 15.4664 18.5728 14.9219 18.5728C14.3774 18.5728 13.7778 19.0569 13.1504 19.0569C12.523 19.0569 11.9328 18.5728 11.3837 18.5728C10.8345 18.5728 10.2396 19.0569 9.61689 19.0569C8.99414 19.0569 8.39463 18.5728 7.85011 18.5728C7.30559 18.5728 6.70608 19.0569 6.07868 19.0569C5.45129 19.0569 4.86107 18.5728 4.3119 18.5728C3.76274 18.5728 3.16787 19.0569 2.54512 19.0569C1.92238 19.0569 1.32286 18.5728 0.773698 18.5728C0.422821 18.5728 0.422821 18.0236 0.773698 18.0236C1.40109 18.0236 1.99596 18.5077 2.54512 18.5077C3.09429 18.5077 3.68915 18.0236 4.3119 18.0236C4.93465 18.0236 5.52952 18.5077 6.07868 18.5077C6.62785 18.5077 7.22271 18.0236 7.85011 18.0236C8.47751 18.0236 9.06772 18.5077 9.61689 18.5077C10.1661 18.5077 10.7609 18.0236 11.3837 18.0236C12.0064 18.0236 12.6059 18.5077 13.1504 18.5077C13.695 18.5077 14.2945 18.0236 14.9219 18.0236C15.5493 18.0236 16.1403 18.5077 16.6887 18.5077C17.237 18.5077 17.8327 18.0236 18.4554 18.0236C19.0782 18.0236 19.6777 18.5077 20.2222 18.5077C20.5777 18.5077 20.5777 19.0569 20.2222 19.0569ZM17.0845 15.6472V13.1563H16.0001V15.5365C16.3873 15.6937 16.6646 15.7812 17.0845 15.6472ZM9.95692 15.6612C10.3124 15.5551 10.6672 15.3568 11.0413 15.2739V13.1563H9.95692V15.6612ZM3.913 15.2871C4.29099 15.1903 4.63722 15.2453 4.99274 15.3746V13.1555H3.913V15.2871ZM10.7733 10.8264H13.3061V7.73044H10.7733V10.8264ZM7.69132 10.8264H10.2241V7.73044H7.69132V10.8264ZM7.41016 7.18592H13.6849C14.1279 7.18592 14.1279 6.51205 13.6849 6.51205H7.31334C6.87029 6.51205 6.87029 7.18592 7.31334 7.18592H7.41016ZM10.6347 2.3782L18.3904 6.85363C18.8334 7.11234 19.1882 6.43847 18.7684 6.19835L10.6943 1.53393C10.5789 1.46964 10.4178 1.46964 10.3024 1.53393L2.2291 6.19835C1.80929 6.43847 2.16017 7.11156 2.60709 6.85363L10.3628 2.3782C10.4457 2.33173 10.5518 2.33173 10.6347 2.3782ZM4.24529 6.54458V10.8264H7.14293V7.7165C6.10966 7.51821 6.24366 5.96366 7.31334 5.96366H13.6849C14.7553 5.96366 14.8893 7.51821 13.8507 7.7165V10.8264H16.7529V6.54458L10.4968 2.93202L4.24529 6.54458ZM2.88361 11.3748C2.07651 11.3748 2.07651 12.611 2.88361 12.611H18.1131C18.9202 12.611 18.9202 11.3748 18.1131 11.3748H2.88361ZM9.4124 13.1563H5.54191V15.5969C6.06319 15.7952 6.32654 15.717 6.85712 15.5001C7.67815 15.1585 8.01509 15.1585 8.83613 15.5001C9.03442 15.583 9.22806 15.6612 9.41318 15.6984V13.1563H9.4124ZM15.4563 13.1563H11.5858V15.246C12.0978 15.3196 12.6656 15.7208 13.1497 15.7208C13.8971 15.7208 14.3812 14.9873 15.4563 15.3243V13.1555V13.1563ZM18.1138 13.1563H17.6297V15.4311C18.3586 15.1407 18.7281 15.2003 19.443 15.5001C19.7242 15.6108 19.9829 15.7216 20.223 15.7216C20.5785 15.7216 20.5785 16.2661 20.223 16.2661C19.6002 16.2661 19.0046 15.782 18.4562 15.782C17.9078 15.782 17.3401 16.239 16.7677 16.2661C16.4633 16.2429 16.3664 16.2475 16.1031 16.16C15.7251 16.026 15.282 15.782 14.9219 15.782C14.3727 15.782 13.7778 16.2661 13.1504 16.2661C12.2419 16.2661 11.8724 15.5512 10.9313 15.8742C9.96699 16.2065 9.80123 16.4876 8.62932 16.0035C7.93299 15.7177 7.76181 15.7177 7.07012 16.0035C6.2305 16.3498 5.91215 16.3405 5.09111 16.0035C4.37155 15.7084 4.19107 15.7317 3.53192 16.0035C2.71088 16.3451 2.37859 16.3451 1.55756 16.0035C1.27639 15.8881 1.01769 15.782 0.772924 15.782C0.422046 15.782 0.422046 15.2329 0.772924 15.2329C1.40032 15.2329 1.99518 15.7216 2.54435 15.7216C2.79376 15.7216 3.08422 15.5969 3.37003 15.4768V13.1563H2.88593C2.24459 13.1563 1.72331 12.635 1.72331 11.9936C1.72331 11.3523 2.24459 10.8264 2.88593 10.8264H3.69767V6.85905L2.88128 7.32999C2.44288 7.58404 1.83872 7.43146 1.6079 6.97446C1.37708 6.51282 1.52502 5.97295 1.95878 5.72432L10.0259 1.06377C10.3117 0.898014 10.6811 0.898014 10.967 1.06377L19.041 5.72354C19.8303 6.18054 19.5344 7.45392 18.5887 7.45392C18.4229 7.45392 18.2564 7.41209 18.1138 7.32921L17.3021 6.85828V10.8256H18.1138C18.7552 10.8256 19.2765 11.3515 19.2765 11.9929C19.2765 12.6342 18.7552 13.1555 18.1138 13.1555V13.1563ZM11.5851 9.88062C11.4325 9.88062 11.3085 9.76057 11.3085 9.60875V8.94882C11.3085 8.59795 11.8577 8.59795 11.8577 8.94882V9.60875C11.8577 9.76134 11.733 9.88062 11.5858 9.88062H11.5851Z" fill="black" stroke="black" stroke-width="0.25"/>
        </g>
    </g>
    <defs>
        <clipPath id="clip0_583_13422">
            <rect width="20" height="20" fill="white" transform="translate(0.5)"/>
        </clipPath>
    </defs>
</svg>
