<svg width="21" height="20" viewBox="0 0 21 20" fill="none" xmlns="http://www.w3.org/2000/svg">
    <path d="M19.372 10.9941V17.9879H2.24609V10.9941" stroke="black" stroke-width="0.8" stroke-linecap="round" stroke-linejoin="round"/>
    <path d="M14.2559 9.81872H20.5254L18.7283 6.89844H15.388" stroke="black" stroke-width="0.8" stroke-linecap="round" stroke-linejoin="round"/>
    <path d="M6.30825 6.89844H2.89166L1.09375 9.81872H7.36413" stroke="black" stroke-width="0.8" stroke-linecap="round" stroke-linejoin="round"/>
    <path d="M8.87891 17.9889V14.8545C8.87891 13.8092 9.72636 12.9609 10.7725 12.9609C11.8178 12.9609 12.6661 13.8084 12.6661 14.8545V17.9889" stroke="black" stroke-width="0.8" stroke-linecap="round" stroke-linejoin="round"/>
    <path d="M3.65039 14.667V13.0938H5.96164V15.6686H4.54002" stroke="black" stroke-width="0.8" stroke-linecap="round" stroke-linejoin="round"/>
    <path d="M16.5568 13.0938H17.9955V15.6686H15.6348V13.9323" stroke="black" stroke-width="0.8" stroke-linecap="round" stroke-linejoin="round"/>
    <path d="M11.5412 10.0462C11.1179 10.3738 10.7441 10.5863 10.7441 10.5863C10.7441 10.5863 8.82531 9.4939 8.74989 8.44532C8.66718 7.29132 9.95418 6.54199 10.7441 7.63355C11.5339 6.54118 12.8209 7.29051 12.7382 8.44532C12.696 9.03165 12.0781 9.63095 11.5412 10.0462Z" stroke="black" stroke-width="0.8" stroke-linecap="round" stroke-linejoin="round"/>
    <path d="M14.2559 16.7721V4.95312" stroke="black" stroke-width="0.8" stroke-linecap="round" stroke-linejoin="round"/>
    <path d="M7.36523 16.7721V4.95312" stroke="black" stroke-width="0.8" stroke-linecap="round" stroke-linejoin="round"/>
    <path d="M15.0894 4.95264H6.53125L7.41601 2.16211H14.2046L15.0894 4.95264Z" stroke="black" stroke-width="0.8" stroke-linecap="round" stroke-linejoin="round"/>
</svg>
