<svg width="20" height="20" viewBox="0 0 20 20" fill="none" xmlns="http://www.w3.org/2000/svg">
    <g clip-path="url(#clip0_655_14719)">
        <g clip-path="url(#clip1_655_14719)">
            <path d="M14.924 0H16.2131C16.2821 0.0166667 16.329 0.0373698 16.3537 0.0621094C16.9959 0.698568 17.6344 1.33919 18.2693 1.98398C18.2766 1.99124 18.2806 2.00107 18.2806 2.01133C18.2814 2.61081 18.2814 3.21393 18.2806 3.8207C18.2804 3.93477 18.2627 4.01888 18.2275 4.07305C18.1244 4.23047 17.849 4.22617 17.7471 4.05898C17.7174 4.01003 17.7019 3.9375 17.7006 3.84141C17.6946 3.37813 17.6925 2.91471 17.6943 2.45117C17.6943 2.44081 17.6902 2.43088 17.6829 2.42355C17.6756 2.41623 17.6656 2.41211 17.6553 2.41211H13.4764C13.466 2.41211 13.4561 2.41623 13.4487 2.42355C13.4414 2.43088 13.4373 2.44081 13.4373 2.45117L13.4369 6.02539C13.4369 6.03575 13.441 6.04569 13.4483 6.05301C13.4557 6.06034 13.4656 6.06445 13.476 6.06445H14.0228C14.0332 6.06445 14.0431 6.06034 14.0505 6.05301C14.0578 6.04569 14.0619 6.03575 14.0619 6.02539C14.0624 5.53919 14.0627 5.05091 14.0627 4.56055C14.0623 2.80156 16.5486 2.45312 17.015 4.14414C17.0512 4.27513 17.0695 4.46471 17.0697 4.71289C17.0705 5.15039 17.0705 5.58789 17.0697 6.02539C17.0697 6.03575 17.0738 6.04569 17.0812 6.05301C17.0885 6.06034 17.0984 6.06445 17.1088 6.06445H17.6666C17.6719 6.06446 17.6772 6.06339 17.6821 6.0613C17.687 6.05921 17.6914 6.05615 17.6951 6.0523C17.6987 6.04846 17.7016 6.04392 17.7034 6.03895C17.7052 6.03399 17.706 6.02871 17.7057 6.02344C17.6943 5.78828 17.6385 5.17578 17.7642 4.99961C17.9275 4.77109 18.281 4.90234 18.281 5.18789C18.281 9.13294 18.281 13.0783 18.281 17.0238C18.281 17.0298 18.2824 17.0357 18.2849 17.041C18.2875 17.0463 18.2913 17.051 18.2959 17.0547C18.5542 17.2591 18.848 17.3694 19.1771 17.3855C19.6318 17.4078 19.6045 17.9918 19.0939 17.9613C18.499 17.9258 18.1529 17.6922 17.7146 17.3172C17.2162 16.891 16.5623 16.8582 16.0178 17.1887C15.9589 17.2246 15.8606 17.304 15.7228 17.427C14.981 18.0895 13.9014 18.1379 13.099 17.5254C12.9775 17.4328 12.8217 17.2602 12.6615 17.1707C12.0064 16.8055 11.4119 16.9406 10.8736 17.4242C10.1201 18.1016 9.00096 18.1457 8.21971 17.4926C8.15226 17.4363 8.08508 17.3797 8.01815 17.3227C7.57362 16.9438 7.00799 16.8637 6.48299 17.0973C6.17167 17.2355 5.96893 17.525 5.66581 17.6898C4.90331 18.1043 4.03182 18.0527 3.3576 17.4891C3.20995 17.3656 3.06542 17.2199 2.89901 17.1379C2.27909 16.832 1.6951 16.95 1.19471 17.4047C0.838072 17.7285 0.41815 17.9266 -0.0685686 17.9621C-0.195392 17.9712 -0.29422 17.9542 -0.365053 17.9109C-0.587319 17.7742 -0.497084 17.3969 -0.224428 17.3852C0.176614 17.3677 0.514244 17.234 0.788463 16.984C1.42088 16.4074 2.14315 16.2219 2.95604 16.5211C3.26815 16.6359 3.47518 16.816 3.72831 17.043C4.19901 17.4652 4.93338 17.4758 5.44667 17.134C5.5744 17.0488 5.7244 16.8953 5.82753 16.8145C6.10148 16.6001 6.41047 16.4639 6.75448 16.4059C6.76357 16.4043 6.77182 16.3996 6.77775 16.3926C6.78369 16.3856 6.78693 16.3767 6.7869 16.3676V15.4484C6.78694 15.4423 6.78549 15.4362 6.78267 15.4307C6.77986 15.4252 6.77576 15.4205 6.77071 15.4169C6.76567 15.4133 6.75983 15.411 6.75367 15.4101C6.74752 15.4092 6.74123 15.4097 6.73534 15.4117C6.05018 15.6448 5.3632 15.874 4.6744 16.0992C3.75643 16.3992 2.73963 15.9832 2.22831 15.1563C2.22441 15.15 2.21887 15.145 2.21232 15.1418C2.20576 15.1385 2.19844 15.1372 2.1912 15.1379C1.76047 15.1835 1.47857 15.402 1.34549 15.7934C1.30253 15.9203 1.30213 16.0797 1.2787 16.218C1.27695 16.2278 1.27166 16.2365 1.26385 16.2426C0.957213 16.4785 0.679478 16.2934 0.723619 15.9375C0.81776 15.1805 1.25956 14.7742 1.95838 14.5711C1.96777 14.5684 1.9758 14.5623 1.98087 14.554C1.98594 14.5457 1.98767 14.5357 1.98573 14.5262C1.8675 13.9147 1.97805 13.3673 2.31737 12.884C2.76346 12.248 3.39003 12.0703 4.10448 11.8313C4.87245 11.5747 5.64237 11.3237 6.41424 11.0781C6.46685 11.0615 6.46997 11.0382 6.42362 11.0082C5.35226 10.3173 4.27492 9.62136 3.19159 8.92031C2.88117 8.71953 2.67154 8.56576 2.56268 8.45899C1.44667 7.36211 1.90096 5.52695 3.33221 4.98281C3.48508 4.92474 3.98586 4.75742 4.83456 4.48086C5.30018 4.32891 5.43378 4.89883 5.06776 5.01875C4.61437 5.16771 4.1619 5.3194 3.71034 5.47383C3.47622 5.55404 3.30266 5.63281 3.18963 5.71016C1.81971 6.64844 2.74823 8.76406 4.35526 8.45391C4.41255 8.44271 4.6606 8.36419 5.0994 8.21836C7.26711 7.49753 9.43417 6.77474 11.6006 6.05C11.8451 5.96797 12.0258 5.88867 12.1428 5.81211C13.6357 4.83125 12.524 2.53125 10.8099 3.10313C9.32844 3.59766 7.84693 4.09167 6.36542 4.58516C5.89745 4.74102 5.7326 4.18086 6.12909 4.04688C6.33664 3.97682 6.5468 3.90729 6.75956 3.83828C6.76738 3.83579 6.7742 3.83086 6.77905 3.82419C6.78389 3.81752 6.78651 3.80946 6.78651 3.80117C6.78677 3.26237 6.7869 2.71836 6.7869 2.16914C6.7869 1.96211 6.87479 1.82578 7.08768 1.82188C7.46919 1.81458 7.8507 1.81328 8.23221 1.81797C8.47388 1.82083 8.59354 1.94427 8.5912 2.18828C8.58755 2.52031 8.58456 2.84935 8.58221 3.17539C8.58213 3.18164 8.58355 3.18781 8.58635 3.19339C8.58915 3.19897 8.59325 3.2038 8.5983 3.20747C8.60335 3.21115 8.6092 3.21356 8.61538 3.2145C8.62155 3.21544 8.62786 3.21489 8.63378 3.21289C9.29107 2.99076 9.94628 2.77331 10.5994 2.56055C10.8093 2.49232 10.9852 2.45247 11.1271 2.44102C11.7563 2.39128 12.3093 2.58542 12.7861 3.02344C12.8296 3.06354 12.8514 3.05391 12.8514 2.99453V2.01797C12.8514 2.00771 12.8554 1.99788 12.8627 1.99063C13.4945 1.34714 14.1295 0.707161 14.7678 0.0707031C14.8003 0.0384115 14.8524 0.0148438 14.924 0ZM16.0904 0.624219C16.0894 0.623255 16.0882 0.622464 16.0869 0.621875L16.0174 0.5875C16.0156 0.586534 16.0136 0.586 16.0115 0.585938H15.0885C15.0849 0.585946 15.0816 0.587351 15.0791 0.589844L13.865 1.80352C13.8632 1.80537 13.8619 1.80774 13.8614 1.81031C13.8609 1.81288 13.8612 1.81555 13.8622 1.81797C13.8632 1.82039 13.8649 1.82246 13.867 1.82392C13.8692 1.82538 13.8718 1.82617 13.8744 1.82617L17.2568 1.82656C17.2594 1.82656 17.262 1.82577 17.2642 1.82431C17.2664 1.82285 17.2681 1.82078 17.2691 1.81836C17.2701 1.81594 17.2703 1.81327 17.2698 1.8107C17.2693 1.80813 17.268 1.80576 17.2662 1.80391L16.0904 0.624219ZM7.38729 2.40234C7.38366 2.40234 7.38019 2.40378 7.37762 2.40635C7.37506 2.40891 7.37362 2.41239 7.37362 2.41602L7.37088 3.61289C7.37084 3.61508 7.37131 3.61725 7.37228 3.61922C7.37324 3.62118 7.37467 3.62289 7.37643 3.62419C7.37819 3.62549 7.38024 3.62635 7.3824 3.6267C7.38456 3.62704 7.38678 3.62686 7.38885 3.62617L7.98846 3.42695C7.99118 3.42605 7.99354 3.42433 7.99522 3.42202C7.9969 3.4197 7.99782 3.41692 7.99784 3.41406V2.41602C7.99784 2.41239 7.9964 2.40891 7.99383 2.40635C7.99127 2.40378 7.98779 2.40234 7.98417 2.40234H7.38729ZM14.8873 3.9207C14.7282 4.09596 14.6485 4.28971 14.6482 4.50195C14.648 5.01211 14.6481 5.51992 14.6486 6.02539C14.6486 6.03575 14.6527 6.04569 14.6601 6.05301C14.6674 6.06034 14.6773 6.06445 14.6877 6.06445H16.4447C16.4551 6.06445 16.465 6.06034 16.4723 6.05301C16.4797 6.04569 16.4838 6.03575 16.4838 6.02539C16.4848 5.57149 16.4847 5.11784 16.4834 4.66445C16.4829 4.47227 16.4661 4.32865 16.433 4.23359C16.2049 3.58008 15.351 3.40977 14.8873 3.9207ZM8.93807 7.60898L12.7908 10.1535C12.8312 10.1803 12.8514 10.1695 12.8514 10.1211V6.08398C12.8516 6.02357 12.8297 6.01406 12.7857 6.05547C12.6178 6.2138 12.4313 6.34219 12.2264 6.44063C12.1477 6.47839 11.918 6.56107 11.5373 6.68867C10.6805 6.97565 9.81646 7.2638 8.9451 7.55313C8.90448 7.56667 8.90213 7.58529 8.93807 7.60898ZM17.6963 6.66055C17.6963 6.65785 17.6952 6.65527 17.6933 6.65337C17.6914 6.65146 17.6888 6.65039 17.6861 6.65039H13.4478C13.4451 6.65039 13.4426 6.65146 13.4407 6.65337C13.4388 6.65527 13.4377 6.65785 13.4377 6.66055V7.26524C13.4377 7.26793 13.4388 7.27051 13.4407 7.27242C13.4426 7.27432 13.4451 7.27539 13.4478 7.27539H17.6861C17.6888 7.27539 17.6914 7.27432 17.6933 7.27242C17.6952 7.27051 17.6963 7.26793 17.6963 7.26524V6.66055ZM13.4853 17.0816C13.6429 17.2051 13.8192 17.2901 14.0142 17.3367C14.0199 17.3381 14.0259 17.3382 14.0316 17.337C14.0374 17.3358 14.0427 17.3332 14.0474 17.3296C14.052 17.3259 14.0558 17.3213 14.0583 17.3159C14.0609 17.3106 14.0623 17.3048 14.0623 17.2988V7.90039C14.0623 7.89003 14.0582 7.8801 14.0508 7.87277C14.0435 7.86544 14.0336 7.86133 14.0232 7.86133H13.4764C13.466 7.86133 13.4561 7.86544 13.4487 7.87277C13.4414 7.8801 13.4373 7.89003 13.4373 7.90039V17.0348C13.4373 17.0394 13.4383 17.044 13.4404 17.0482C13.4424 17.0524 13.4454 17.0561 13.449 17.059C13.4611 17.0684 13.4764 17.0746 13.4853 17.0816ZM16.4846 7.87188C16.4846 7.86918 16.4835 7.8666 16.4816 7.86469C16.4797 7.86279 16.4771 7.86172 16.4744 7.86172H14.6588C14.6561 7.86172 14.6535 7.86279 14.6516 7.86469C14.6497 7.8666 14.6486 7.86918 14.6486 7.87188V8.47656C14.6486 8.47926 14.6497 8.48184 14.6516 8.48374C14.6535 8.48565 14.6561 8.48672 14.6588 8.48672H16.4744C16.4771 8.48672 16.4797 8.48565 16.4816 8.48374C16.4835 8.48184 16.4846 8.47926 16.4846 8.47656V7.87188ZM17.1025 16.4047C17.2898 16.4362 17.4687 16.493 17.6392 16.575C17.6452 16.5778 17.6518 16.5791 17.6583 16.5787C17.6649 16.5783 17.6713 16.5763 17.6768 16.5728C17.6824 16.5693 17.687 16.5644 17.6902 16.5587C17.6934 16.5529 17.6951 16.5464 17.6951 16.5398V7.90039C17.6951 7.89003 17.691 7.8801 17.6837 7.87277C17.6763 7.86544 17.6664 7.86133 17.656 7.86133H17.1092C17.0988 7.86133 17.0889 7.86544 17.0815 7.87277C17.0742 7.8801 17.0701 7.89003 17.0701 7.90039V16.366C17.0701 16.3753 17.0734 16.3843 17.0793 16.3913C17.0853 16.3984 17.0935 16.4031 17.1025 16.4047ZM7.38299 8.07461C7.38018 8.07551 7.37771 8.07728 7.37596 8.07967C7.37421 8.08205 7.37325 8.08493 7.37323 8.08789L7.37206 10.7383C7.37205 10.7405 7.37259 10.7428 7.37362 10.7448C7.37466 10.7468 7.37615 10.7485 7.37799 10.7498C7.37983 10.7511 7.38195 10.7519 7.38418 10.7522C7.38641 10.7525 7.38868 10.7523 7.39081 10.7516L7.98807 10.5504C7.99089 10.5495 7.99335 10.5477 7.9951 10.5453C7.99686 10.5429 7.99782 10.5401 7.99784 10.5371V7.88828C7.99782 7.88608 7.99728 7.88391 7.99627 7.88195C7.99526 7.87998 7.9938 7.87829 7.99202 7.877C7.99023 7.8757 7.98816 7.87485 7.98599 7.8745C7.98381 7.87416 7.98158 7.87433 7.97948 7.875L7.38299 8.07461ZM9.49471 8.66914C9.20669 8.48346 8.92297 8.3 8.64354 8.11875C8.60344 8.09271 8.58338 8.10365 8.58338 8.15156V10.2992C8.58337 10.3054 8.58483 10.3116 8.58766 10.3171C8.59048 10.3226 8.59459 10.3274 8.59963 10.331C8.60467 10.3347 8.6105 10.337 8.61665 10.3379C8.62279 10.3389 8.62906 10.3383 8.63495 10.3363C9.35109 10.097 10.0671 9.85846 10.783 9.6207C10.8064 9.61315 10.8409 9.60886 10.8865 9.60781C10.8896 9.60771 10.8926 9.6068 10.8947 9.60527C10.8969 9.60374 10.8982 9.60172 10.8982 9.59961V9.58867C10.8982 9.58458 10.8972 9.58054 10.8952 9.57693C10.8932 9.57331 10.8904 9.57024 10.8869 9.56797C10.4228 9.26797 9.95878 8.96836 9.49471 8.66914ZM4.52245 9.0832L6.72674 10.5078C6.76685 10.5336 6.7869 10.5227 6.7869 10.475V8.33086C6.7869 8.32469 6.78543 8.31862 6.78263 8.31313C6.77982 8.30764 6.77576 8.30289 6.77077 8.29927C6.76578 8.29565 6.76 8.29326 6.75391 8.2923C6.74782 8.29134 6.74159 8.29184 6.73573 8.29375C6.05422 8.51615 5.37323 8.7405 4.69276 8.9668C4.63599 8.98555 4.58325 9.00078 4.53456 9.0125C4.47544 9.02682 4.47141 9.05039 4.52245 9.0832ZM16.4849 9.09531C16.4849 9.0892 16.4825 9.08334 16.4782 9.07902C16.4739 9.07469 16.468 9.07227 16.4619 9.07227H14.6713C14.6652 9.07227 14.6593 9.07469 14.655 9.07902C14.6507 9.08334 14.6482 9.0892 14.6482 9.09531V10.2891C14.6482 10.2952 14.6507 10.301 14.655 10.3054C14.6593 10.3097 14.6652 10.3121 14.6713 10.3121H16.4619C16.468 10.3121 16.4739 10.3097 16.4782 10.3054C16.4825 10.301 16.4849 10.2952 16.4849 10.2891V9.09531ZM9.8826 13.7531C10.2283 13.8086 10.2978 14.2215 9.96893 14.332C9.51711 14.4841 9.06424 14.6362 8.61034 14.7883C8.60258 14.7909 8.59584 14.7959 8.59107 14.8026C8.58631 14.8092 8.58375 14.8172 8.58378 14.8254V17.0293C8.58379 17.0355 8.58524 17.0416 8.58803 17.0471C8.59081 17.0526 8.59484 17.0573 8.59979 17.0609C9.08963 17.4185 9.60292 17.4732 10.1396 17.225C10.3224 17.1406 10.4463 17.0145 10.6123 16.8723C10.8941 16.6298 11.2477 16.4673 11.6732 16.3848C12.0714 16.3077 12.4447 16.3656 12.7932 16.5586C12.7992 16.5619 12.806 16.5635 12.8128 16.5634C12.8197 16.5633 12.8264 16.5614 12.8322 16.5579C12.8381 16.5544 12.843 16.5495 12.8463 16.5436C12.8497 16.5377 12.8514 16.531 12.8514 16.5242L12.8517 13.2105C12.8517 13.1533 12.8301 13.1435 12.7869 13.1813C12.5898 13.3531 12.3793 13.4896 12.1557 13.5906C11.8754 13.7172 11.571 13.824 11.2424 13.9109C10.7713 14.0359 10.6564 13.4668 11.0377 13.3617C11.9111 13.1211 12.9713 12.5938 12.8377 11.5094C12.7361 10.6844 12.0576 10.1086 11.2271 10.1438C11.1037 10.1487 10.9456 10.1833 10.7529 10.2477C8.84667 10.8813 6.94419 11.515 5.04549 12.1488C4.9895 12.1676 4.98716 12.1913 5.03846 12.2199C5.2356 12.3303 5.40904 12.4664 5.55877 12.6281C5.71242 12.7945 5.84016 12.9908 5.94198 13.2168C6.20031 13.7918 6.19966 14.3842 5.94003 14.9941C5.91737 15.0473 5.93351 15.0647 5.98846 15.0465L9.86424 13.7547C9.87023 13.7526 9.87635 13.7521 9.8826 13.7531ZM16.4846 10.9125C16.4846 10.9088 16.4831 10.9052 16.4804 10.9026C16.4778 10.8999 16.4742 10.8984 16.4705 10.8984H14.6619C14.6582 10.8984 14.6546 10.8999 14.652 10.9026C14.6493 10.9052 14.6478 10.9088 14.6478 10.9125V12.1148C14.6478 12.1167 14.6482 12.1185 14.6489 12.1202C14.6496 12.1219 14.6507 12.1235 14.652 12.1248C14.6533 12.1261 14.6548 12.1271 14.6565 12.1278C14.6582 12.1285 14.6601 12.1289 14.6619 12.1289H16.4705C16.4723 12.1289 16.4742 12.1285 16.4759 12.1278C16.4776 12.1271 16.4791 12.1261 16.4804 12.1248C16.4817 12.1235 16.4828 12.1219 16.4835 12.1202C16.4842 12.1185 16.4846 12.1167 16.4846 12.1148V10.9125ZM4.16932 14.5863C4.37088 14.6816 4.39237 14.9723 4.19784 15.0914C4.1494 15.1211 4.06945 15.1361 3.95799 15.1363C3.6468 15.1376 3.33833 15.1372 3.0326 15.1352C2.96125 15.1346 2.95279 15.1576 3.00721 15.2039C3.41086 15.5482 3.85682 15.6681 4.3451 15.5637C5.76971 15.259 6.01815 13.3094 4.67557 12.7043C3.47987 12.1656 2.2326 13.2754 2.59003 14.5219C2.59225 14.53 2.59713 14.5371 2.6039 14.5422C2.61068 14.5473 2.61898 14.55 2.62753 14.55C3.06763 14.5497 3.50669 14.5507 3.94471 14.5527C4.04836 14.5533 4.12323 14.5645 4.16932 14.5863ZM16.4842 12.7254C16.4842 12.7226 16.4831 12.7199 16.4811 12.7179C16.4791 12.716 16.4764 12.7148 16.4736 12.7148H14.6588C14.656 12.7148 14.6533 12.716 14.6513 12.7179C14.6493 12.7199 14.6482 12.7226 14.6482 12.7254V13.9348C14.6482 13.9376 14.6493 13.9402 14.6513 13.9422C14.6533 13.9442 14.656 13.9453 14.6588 13.9453H16.4736C16.4764 13.9453 16.4791 13.9442 16.4811 13.9422C16.4831 13.9402 16.4842 13.9376 16.4842 13.9348V12.7254ZM16.4849 14.5543C16.4849 14.5482 16.4825 14.5423 16.4782 14.538C16.4739 14.5337 16.468 14.5313 16.4619 14.5313H14.6713C14.6652 14.5313 14.6593 14.5337 14.655 14.538C14.6507 14.5423 14.6482 14.5482 14.6482 14.5543V15.748C14.6482 15.7542 14.6507 15.76 14.655 15.7643C14.6593 15.7687 14.6652 15.7711 14.6713 15.7711H16.4619C16.468 15.7711 16.4739 15.7687 16.4782 15.7643C16.4825 15.76 16.4849 15.7542 16.4849 15.748V14.5543ZM7.40448 16.4063C7.59094 16.4393 7.77023 16.4957 7.94237 16.5754C7.9483 16.5781 7.95482 16.5793 7.96134 16.5789C7.96786 16.5785 7.97417 16.5764 7.97969 16.5729C7.98521 16.5694 7.98976 16.5646 7.99293 16.5589C7.9961 16.5532 7.99779 16.5468 7.99784 16.5402V15.0469C7.99785 15.0407 7.99639 15.0345 7.99356 15.029C7.99074 15.0235 7.98664 15.0187 7.98159 15.0151C7.97655 15.0114 7.97072 15.0091 7.96458 15.0081C7.95843 15.0072 7.95216 15.0078 7.94627 15.0098L7.39901 15.1918C7.39117 15.1944 7.38434 15.1994 7.37951 15.2061C7.37467 15.2127 7.37206 15.2207 7.37206 15.2289V16.3676C7.37209 16.3768 7.37535 16.3857 7.38128 16.3928C7.3872 16.3998 7.39541 16.4046 7.40448 16.4063ZM14.6877 16.3551C14.6825 16.355 14.6774 16.356 14.6726 16.3579C14.6678 16.3599 14.6635 16.3627 14.6598 16.3664C14.6561 16.37 14.6532 16.3743 14.6512 16.3791C14.6493 16.3839 14.6482 16.389 14.6482 16.3941V17.2973C14.6482 17.303 14.6495 17.3086 14.652 17.3138C14.6544 17.319 14.6579 17.3235 14.6623 17.3272C14.6667 17.3308 14.6719 17.3335 14.6774 17.3349C14.6829 17.3364 14.6887 17.3366 14.6943 17.3355C14.9461 17.2892 15.1477 17.1865 15.299 17.0273C15.6256 16.6833 16.0002 16.4663 16.4228 16.3762C16.4252 16.3757 16.4274 16.3746 16.4291 16.373C16.4308 16.3714 16.432 16.3694 16.4326 16.3672L16.4365 16.3543C16.437 16.3527 16.437 16.3511 16.4367 16.3495C16.4363 16.3479 16.4356 16.3464 16.4345 16.3451C16.4334 16.3439 16.432 16.3429 16.4305 16.3422C16.4289 16.3416 16.4273 16.3413 16.4256 16.3414C16.3506 16.3474 16.2757 16.3508 16.201 16.3516C15.7017 16.3568 15.1973 16.3579 14.6877 16.3551Z" fill="black"/>
            <path d="M1.66658 13.3597C1.80668 13.45 1.8628 13.5634 1.83494 13.6999C1.76384 14.0515 1.33103 13.7765 1.31072 14.2483C1.29353 14.6538 0.597045 14.6472 0.753295 14.0019C0.851342 13.5983 1.23298 13.2913 1.65095 13.3538C1.65668 13.3548 1.66189 13.3568 1.66658 13.3597Z" fill="black"/>
            <path d="M19.2236 20.0003H19.1357C18.6967 19.9774 18.305 19.833 17.9608 19.5671C17.8342 19.4695 17.7014 19.3214 17.5654 19.2366C17.0795 18.9335 16.5798 18.9168 16.0662 19.1866C15.8522 19.2991 15.6744 19.5175 15.4842 19.6441C14.8201 20.0862 13.8756 20.121 13.2127 19.6464C13.0283 19.5144 12.7869 19.2499 12.5322 19.1351C12.0911 18.9356 11.6567 18.9511 11.2291 19.1816C11.0225 19.2933 10.8299 19.5159 10.6498 19.6366C10.3136 19.8622 9.94239 19.9834 9.53614 20.0003H9.45802C8.84669 19.973 8.47638 19.7542 8.03536 19.3675C7.50528 18.903 6.64395 18.8546 6.11778 19.3624C5.70242 19.7637 5.22403 19.9764 4.68263 20.0003H4.6045C4.02442 19.9737 3.61153 19.7616 3.19513 19.3796C2.71739 18.9413 2.00724 18.8741 1.46153 19.2159C1.41388 19.2456 1.31661 19.3266 1.16974 19.4589C0.806455 19.7862 0.372601 19.9667 -0.131826 20.0003H-0.239248C-0.507607 19.9433 -0.597841 19.5999 -0.35331 19.4597C-0.310081 19.4349 -0.229221 19.4185 -0.110732 19.4105C0.136664 19.3935 0.357367 19.3223 0.551377 19.1968C0.730674 19.0808 0.921299 18.878 1.08341 18.7663C1.81583 18.262 2.84356 18.3027 3.51036 18.8804C3.70997 19.0534 3.85724 19.1987 4.08692 19.2945C4.48198 19.4593 4.87221 19.4521 5.25763 19.273C5.53927 19.1421 5.73888 18.8855 6.00958 18.7175C6.77091 18.2452 7.68771 18.3323 8.37521 18.8984C8.5338 19.0292 8.68302 19.1761 8.86271 19.2605C9.32364 19.4769 9.77312 19.4632 10.2111 19.2195C10.4096 19.1089 10.5998 18.8968 10.7912 18.7628C11.5389 18.2405 12.5584 18.3296 13.2436 18.9093C13.3682 19.0152 13.492 19.1374 13.6291 19.2124C14.1333 19.4877 14.6411 19.4734 15.1525 19.1695C15.1937 19.145 15.3075 19.0471 15.494 18.8757C16.149 18.2734 17.2065 18.2937 17.9252 18.7706C18.0869 18.878 18.2768 19.0886 18.4498 19.1952C18.6691 19.3304 18.9097 19.4045 19.1717 19.4175C19.5822 19.4378 19.6037 19.9269 19.2236 20.0003Z" fill="black"/>
        </g>
    </g>
    <defs>
        <clipPath id="clip0_655_14719">
            <rect width="20" height="20" fill="white"/>
        </clipPath>
        <clipPath id="clip1_655_14719">
            <rect width="20" height="20" fill="white" transform="translate(-0.5)"/>
        </clipPath>
    </defs>
</svg>
