<svg width="20" height="20" viewBox="0 0 20 20" fill="none" xmlns="http://www.w3.org/2000/svg">
    <g clip-path="url(#clip0_650_13077)">
        <path d="M7.32499 11.6439L6.77183 11.1612C6.47884 10.9047 6.31067 10.5347 6.31067 10.1453V4.08163C6.31067 3.62128 5.93744 3.24805 5.47748 3.24805C5.01753 3.24805 4.6439 3.62128 4.6439 4.08163V9.78301L3.50962 9.37777C3.12261 9.24282 2.85231 8.82299 2.85231 8.35655V6.30845C2.85231 5.84809 2.47909 5.47486 2.01873 5.47486C1.55837 5.47486 1.18555 5.84809 1.18555 6.30845V8.35655C1.18555 9.53865 1.89918 10.5813 2.95525 10.9493L5.08399 11.7103C5.24285 11.9713 5.4402 12.2108 5.67565 12.4163L6.2284 12.8989C6.48371 13.1222 6.63 13.4444 6.63 13.7832V13.8298H5.3628C5.04185 13.8298 4.74318 13.6855 4.5438 13.4339L4.12924 12.9111C3.84354 12.5508 3.31916 12.49 2.95849 12.7761C2.59782 13.0622 2.53744 13.5862 2.82354 13.9469L3.23811 14.4697C3.7556 15.1221 4.53002 15.4961 5.3628 15.4961H6.63V17.1098C6.74468 17.0689 6.86301 17.0316 6.98378 16.9984C7.28771 16.9149 7.60907 16.8557 7.94299 16.8245C8.05929 16.8136 8.17722 16.8059 8.29677 16.8022V13.7832C8.29677 12.9634 7.94258 12.1837 7.32499 11.6439ZM6.98378 16.2685V15.4965C6.98378 15.3008 6.82533 15.1428 6.63 15.1428H5.3628C4.63863 15.1428 3.96511 14.8174 3.51529 14.2496L3.10073 13.7272C3.0209 13.6267 2.98523 13.5011 2.99982 13.3739C3.01441 13.2466 3.07804 13.1328 3.17854 13.0533C3.26404 12.9852 3.36779 12.9492 3.47558 12.9492C3.49382 12.9492 3.51246 12.9504 3.5315 12.9524C3.65875 12.9674 3.77262 13.0306 3.85205 13.1311L4.26662 13.6539C4.53367 13.9903 4.93324 14.1836 5.3628 14.1836H6.63C6.82533 14.1836 6.98378 14.0251 6.98378 13.8298V13.7832C6.98378 13.3423 6.79331 12.9228 6.46101 12.6327L5.90826 12.15C5.70564 11.9729 5.53017 11.7634 5.3863 11.5264C5.34416 11.4571 5.27932 11.4044 5.20313 11.3772L3.07155 10.6154C2.15489 10.296 1.53932 9.3883 1.53932 8.35655V6.30845C1.53932 6.04382 1.75451 5.82864 2.01873 5.82864C2.28295 5.82864 2.49854 6.04382 2.49854 6.30845V8.35655C2.49854 8.9709 2.8665 9.52811 3.39048 9.71088L4.52476 10.1161C4.63336 10.1546 4.75372 10.1384 4.84774 10.0719C4.94175 10.0059 4.99768 9.8981 4.99768 9.78301V4.08163C4.99768 3.81701 5.21286 3.60182 5.47748 3.60182C5.74211 3.60182 5.95689 3.81701 5.95689 4.08163V10.1453C5.95689 10.6369 6.16924 11.1041 6.53922 11.4275L7.09198 11.9105C7.63298 12.3826 7.94299 13.0655 7.94299 13.7832V16.1149C7.61434 16.1421 7.29338 16.194 6.98378 16.2685Z" fill="black"/>
        <path d="M6.98404 16.2684V16.9982C7.28797 16.9148 7.60933 16.8556 7.94325 16.8244V16.1148C7.6146 16.142 7.29364 16.1938 6.98404 16.2684ZM8.3647 12.4619C8.17829 12.0518 7.90516 11.681 7.55786 11.3775L7.00511 10.8949C6.78871 10.7056 6.66471 10.4325 6.66471 10.1452V4.08149C6.66471 3.42702 6.13222 2.89453 5.47775 2.89453C4.82328 2.89453 4.29038 3.42702 4.29038 4.08149V9.28077L3.62619 9.0437C3.38304 8.9586 3.20595 8.66966 3.20595 8.35641V6.30831C3.20595 5.65343 2.67346 5.12094 2.01899 5.12094C1.36452 5.12094 0.832031 5.65343 0.832031 6.30831V8.35641C0.832031 9.68885 1.63847 10.8649 2.83637 11.2823L4.85083 12.002C5.01861 12.2569 5.21758 12.4854 5.4433 12.6824L5.99605 13.1654C6.09412 13.2509 6.16909 13.3579 6.21691 13.4759H5.36306C5.15072 13.4759 4.95296 13.3806 4.82125 13.2141L4.40669 12.6913C4.20974 12.4429 3.92769 12.2861 3.61281 12.2496C3.29794 12.2135 2.98752 12.3019 2.73911 12.4988C2.22607 12.9057 2.13975 13.6538 2.54662 14.1664L2.96118 14.6892C3.54595 15.4267 4.42168 15.8498 5.36306 15.8498H6.27648V17.2507C6.39076 17.1996 6.50869 17.1522 6.63026 17.1097C6.74494 17.0687 6.86328 17.0315 6.98404 16.9982C7.28797 16.9148 7.60933 16.8556 7.94325 16.8244C8.05956 16.8134 8.17748 16.8057 8.29703 16.8021C8.36389 16.7997 8.43157 16.7984 8.49925 16.7984C8.5499 16.7984 8.60015 16.7993 8.6504 16.8005V13.783C8.6504 13.3223 8.55112 12.8724 8.3647 12.4619ZM6.63026 15.1426H5.36306C4.63889 15.1426 3.96538 14.8172 3.51556 14.2495L3.10099 13.7271C3.02116 13.6266 2.9855 13.501 3.00009 13.3737C3.01467 13.2465 3.0783 13.1326 3.1788 13.0532C3.2643 12.9851 3.36805 12.949 3.47584 12.949C3.49408 12.949 3.51272 12.9503 3.53177 12.9523C3.65901 12.9673 3.77289 13.0305 3.85231 13.131L4.26688 13.6538C4.53393 13.9901 4.9335 14.1834 5.36306 14.1834H6.63026C6.82559 14.1834 6.98404 14.025 6.98404 13.8296V13.783C6.98404 13.3421 6.79357 12.9227 6.46127 12.6325L5.90852 12.1499C5.7059 11.9728 5.53043 11.7633 5.38657 11.5262C5.34442 11.4569 5.27958 11.4042 5.2034 11.3771L3.07181 10.6152C2.15515 10.2959 1.53959 9.38816 1.53959 8.35641V6.30831C1.53959 6.04368 1.75477 5.8285 2.01899 5.8285C2.28321 5.8285 2.4988 6.04368 2.4988 6.30831V8.35641C2.4988 8.97076 2.86676 9.52797 3.39074 9.71073L4.52502 10.116C4.63362 10.1545 4.75398 10.1383 4.848 10.0718C4.94201 10.0058 4.99794 9.89796 4.99794 9.78287V4.08149C4.99794 3.81687 5.21312 3.60168 5.47775 3.60168C5.74237 3.60168 5.95715 3.81687 5.95715 4.08149V10.1452C5.95715 10.6367 6.1695 11.104 6.53949 11.4273L7.09224 11.9104C7.63324 12.3825 7.94325 13.0653 7.94325 13.783V16.1148C7.6146 16.142 7.29364 16.1938 6.98404 16.2684V15.4964C6.98404 15.3007 6.82559 15.1426 6.63026 15.1426Z" fill="black"/>
        <path d="M15.4023 9.7828C14.942 9.7828 14.5687 10.1556 14.5687 10.616C14.5687 11.4978 13.9358 12.2333 13.0637 12.3642L11.4366 12.609C11.3997 12.6142 11.3641 12.6228 11.328 12.63V12.3366C11.328 11.7969 11.5659 11.2887 11.9805 10.943L13.1395 9.97773C13.9354 9.31434 14.3917 8.33973 14.3917 7.30393V3.863C14.3917 3.40305 14.0184 3.02982 13.5581 3.02982C13.0977 3.02982 12.7249 3.40305 12.7249 3.863V7.30393C12.7249 7.78657 12.534 8.24247 12.1973 8.58085L11.3138 7.60421C10.7376 6.96717 10.4207 6.14371 10.4207 5.2846V1.18474C10.4207 0.724792 10.0474 0.351562 9.58709 0.351562C9.12673 0.351562 8.75391 0.724792 8.75391 1.18474V5.2846C8.75391 6.55747 9.22399 7.77847 10.0778 8.72228L10.9224 9.65556L10.9135 9.66285C10.118 10.3258 9.66125 11.3004 9.66125 12.3366V16.9135C9.7816 16.9378 9.89953 16.9662 10.015 16.9982C10.3303 17.0849 10.6261 17.1975 10.8972 17.3329C11.005 17.3864 11.1088 17.4435 11.2081 17.5039C11.2693 17.403 11.3098 17.2879 11.3227 17.1643C11.3264 17.1343 11.328 17.1039 11.328 17.0731V14.6713C11.328 14.4622 11.478 14.2879 11.6846 14.2567L13.3113 14.0123C15.0056 13.7578 16.2355 12.3294 16.2355 10.616C16.2355 10.1556 15.8623 9.7828 15.4023 9.7828ZM13.2586 13.6626L11.6319 13.907C11.2506 13.9645 10.9742 14.2859 10.9742 14.6713V16.5905C10.6715 16.4568 10.3502 16.349 10.015 16.2679V12.3366C10.015 11.4058 10.4251 10.5305 11.14 9.93436L11.1485 9.92747C11.2227 9.86588 11.268 9.77672 11.2749 9.68068C11.2818 9.58464 11.249 9.48981 11.1846 9.41849L10.34 8.48481C9.54535 7.60624 9.10768 6.46953 9.10768 5.2846V1.18474C9.10768 0.920525 9.32287 0.70534 9.58709 0.70534C9.85131 0.70534 10.0669 0.920525 10.0669 1.18474V5.2846C10.0669 6.23165 10.4166 7.1394 11.0516 7.84128L11.9351 8.81832C11.9999 8.89005 12.0919 8.9322 12.1888 8.93463C12.2852 8.93787 12.3796 8.89937 12.4481 8.83048C12.8546 8.42159 13.0787 7.87937 13.0787 7.30393V3.863C13.0787 3.59878 13.2939 3.3836 13.5581 3.3836C13.8223 3.3836 14.0379 3.59878 14.0379 3.863V7.30393C14.0379 8.23477 13.6278 9.1101 12.9129 9.70581L11.7543 10.6715C11.2587 11.0844 10.9742 11.6915 10.9742 12.3366V12.63C10.9742 12.7366 11.0221 12.8371 11.1039 12.904C11.1862 12.9713 11.2944 12.998 11.3985 12.9769L11.4314 12.97C11.4504 12.966 11.4699 12.9615 11.4893 12.9587L13.1164 12.7143C14.1627 12.5567 14.9225 11.6745 14.9225 10.616C14.9225 10.3514 15.1377 10.1362 15.4023 10.1362C15.667 10.1362 15.8817 10.3514 15.8817 10.616C15.8817 12.1531 14.7787 13.4345 13.2586 13.6626Z" fill="black"/>
        <path d="M15.4026 9.42929C14.7481 9.42929 14.2156 9.96178 14.2156 10.6162C14.2156 11.3218 13.7091 11.9102 13.0113 12.0147L11.6869 12.2137C11.7193 11.8259 11.9049 11.4669 12.2073 11.2152L13.3658 10.2495C14.2428 9.51885 14.7453 8.44535 14.7453 7.30419V3.86326C14.7453 3.20879 14.2128 2.6763 13.5583 2.6763C12.9039 2.6763 12.3714 3.20879 12.3714 3.86326V7.30419C12.3714 7.56314 12.3041 7.81236 12.1773 8.0316L11.5763 7.367C11.0592 6.79561 10.7743 6.05604 10.7743 5.28486V1.18501C10.7743 0.530537 10.2418 -0.00195312 9.58735 -0.00195312C8.93288 -0.00195312 8.40039 0.530537 8.40039 1.18501V5.28486C8.40039 6.64567 8.9033 7.95055 9.81591 8.95961L10.4242 9.63231C9.71095 10.348 9.30773 11.3153 9.30773 12.3369V16.8534C9.42768 16.8696 9.54561 16.8898 9.66151 16.9137C9.78187 16.9381 9.89979 16.9664 10.0153 16.9984V12.3369C10.0153 11.4061 10.4254 10.5307 11.1402 9.93463L11.1488 9.92774C11.2229 9.86614 11.2683 9.77699 11.2752 9.68094C11.2821 9.5849 11.2493 9.49007 11.1848 9.41875L10.3403 8.48507C9.54561 7.6065 9.10795 6.46979 9.10795 5.28486V1.18501C9.10795 0.920787 9.32313 0.705603 9.58735 0.705603C9.85157 0.705603 10.0672 0.920787 10.0672 1.18501V5.28486C10.0672 6.23191 10.4169 7.13966 11.0519 7.84154L11.9353 8.81858C12.0002 8.89031 12.0922 8.93246 12.189 8.93489C12.2855 8.93813 12.3799 8.89963 12.4484 8.83074C12.8548 8.42185 13.0789 7.87963 13.0789 7.30419V3.86326C13.0789 3.59904 13.2941 3.38386 13.5583 3.38386C13.8226 3.38386 14.0381 3.59904 14.0381 3.86326V7.30419C14.0381 8.23503 13.628 9.11036 12.9132 9.70607L11.7546 10.6718C11.259 11.0847 10.9745 11.6918 10.9745 12.3369V12.6303C10.9745 12.7369 11.0223 12.8374 11.1042 12.9043C11.1864 12.9715 11.2946 12.9983 11.3988 12.9772L11.4316 12.9703C11.4507 12.9663 11.4701 12.9618 11.4896 12.959L13.1166 12.7146C14.163 12.557 14.9228 11.6747 14.9228 10.6162C14.9228 10.3516 15.138 10.1364 15.4026 10.1364C15.6672 10.1364 15.882 10.3516 15.882 10.6162C15.882 12.1533 14.7789 13.4347 13.2589 13.6629L11.6322 13.9072C11.2509 13.9648 10.9745 14.2861 10.9745 14.6715V17.0734C10.9745 17.169 10.9461 17.2582 10.8975 17.3332C11.0053 17.3867 11.109 17.4438 11.2083 17.5042C11.3113 17.5666 11.4093 17.6322 11.5021 17.7007C11.5649 17.6002 11.6132 17.4892 11.644 17.3713C11.6687 17.276 11.6816 17.1763 11.6816 17.0734V14.6715C11.6816 14.6371 11.7035 14.612 11.7372 14.6071L13.3642 14.3623C15.2328 14.0815 16.5896 12.5059 16.5896 10.6162C16.5896 9.96178 16.0571 9.42929 15.4026 9.42929Z" fill="black"/>
        <path d="M11.6438 17.3725C11.5417 17.3 11.4347 17.2311 11.3229 17.1658C11.211 17.1002 11.0947 17.0386 10.9744 16.9815C10.6777 16.8396 10.3564 16.7225 10.0152 16.6346C9.89925 16.6046 9.78133 16.5778 9.66138 16.5551C9.54548 16.5324 9.42755 16.5134 9.3076 16.4976C9.09322 16.4696 8.87318 16.4526 8.64908 16.4473C8.59883 16.4457 8.54858 16.4453 8.49792 16.4453C8.43024 16.4453 8.36257 16.4465 8.2957 16.4486C8.17656 16.4522 8.05864 16.4595 7.94193 16.4696C7.60963 16.4992 7.28827 16.5551 6.98271 16.6342C6.86236 16.665 6.74403 16.6998 6.62894 16.7383C6.50777 16.7776 6.38984 16.8214 6.27516 16.8684C5.70741 17.1022 5.21788 17.4228 4.84222 17.8049C4.75793 17.8904 4.67971 17.9788 4.60799 18.0699C4.53342 18.1635 4.46574 18.2604 4.40496 18.3597C4.50262 18.4306 4.59259 18.5104 4.67242 18.5972C4.8564 18.7969 4.98932 19.0332 5.05335 19.2917H4.05685C4.03862 19.4081 4.0293 19.526 4.0293 19.6455H12.9669C12.9669 18.7568 12.4608 17.9524 11.6438 17.3725ZM5.77468 19.2917C5.69525 18.8107 5.45616 18.3763 5.10806 18.0335C5.41807 17.7226 5.81521 17.456 6.27516 17.2513C6.38944 17.2003 6.50736 17.1529 6.62894 17.1103C6.74362 17.0694 6.86195 17.0321 6.98271 16.9989C7.28665 16.9154 7.60801 16.8562 7.94193 16.825C8.05823 16.8141 8.17616 16.8064 8.2957 16.8027C8.36257 16.8003 8.43024 16.7991 8.49792 16.7991C8.54858 16.7991 8.59883 16.7999 8.64908 16.8011C8.87358 16.8068 9.09363 16.8246 9.3076 16.8546C9.42755 16.8708 9.54548 16.8911 9.66138 16.915C9.78173 16.9393 9.89966 16.9677 10.0152 16.9997C10.3304 17.0864 10.6263 17.1991 10.8974 17.3344C11.0052 17.3879 11.1089 17.445 11.2082 17.5054C11.3111 17.5678 11.4092 17.6335 11.502 17.702C12.0811 18.1299 12.4717 18.6814 12.5816 19.2917H5.77468Z" fill="black"/>
        <path d="M11.8641 17.0952C11.8046 17.0526 11.7438 17.0109 11.6818 16.9712C11.5679 16.8974 11.45 16.8281 11.3284 16.7633C11.2137 16.7021 11.0958 16.645 10.9746 16.5919C10.6719 16.4581 10.3506 16.3503 10.0154 16.2693C9.89911 16.2413 9.78118 16.2162 9.66164 16.1951C9.54493 16.1737 9.427 16.1558 9.30786 16.1412C9.09187 16.1145 8.87182 16.0987 8.64934 16.0938C8.59909 16.0922 8.54884 16.0918 8.49818 16.0918C8.43051 16.0918 8.36324 16.093 8.29597 16.095C8.17723 16.0983 8.0593 16.1052 7.94219 16.1153C7.61354 16.1425 7.29258 16.1943 6.98298 16.2689C6.86302 16.2977 6.7451 16.3301 6.6292 16.3661C6.50925 16.403 6.39092 16.4435 6.27542 16.4877C5.86045 16.6458 5.47547 16.8492 5.13263 17.0952C4.91056 17.254 4.71239 17.4259 4.53895 17.6086C4.45466 17.6974 4.37604 17.7886 4.3035 17.8822C4.22934 17.9778 4.16126 18.0763 4.10048 18.1764C4.20868 18.2286 4.3108 18.2902 4.40522 18.3595C4.50288 18.4305 4.59285 18.5103 4.67268 18.597C4.73185 18.4941 4.79912 18.394 4.8749 18.2975C4.94582 18.2064 5.02403 18.1184 5.10832 18.0333C5.41833 17.7225 5.81547 17.4558 6.27542 17.2512C6.3897 17.2001 6.50763 17.1527 6.6292 17.1102C6.74388 17.0692 6.86221 17.032 6.98298 16.9987C7.28691 16.9153 7.60827 16.8561 7.94219 16.8249C8.05849 16.8139 8.17642 16.8062 8.29597 16.8026C8.36283 16.8002 8.43051 16.7989 8.49818 16.7989C8.54884 16.7989 8.59909 16.7998 8.64934 16.801C8.87384 16.8066 9.09389 16.8245 9.30786 16.8545C9.42781 16.8707 9.54574 16.8909 9.66164 16.9148C9.782 16.9392 9.89992 16.9675 10.0154 16.9995C10.3307 17.0863 10.6265 17.1989 10.8976 17.3343C11.0054 17.3878 11.1092 17.4449 11.2085 17.5053C11.3114 17.5677 11.4095 17.6333 11.5023 17.7018C12.0813 18.1298 12.472 18.6813 12.5818 19.2916H3.69888C3.68348 19.4083 3.67578 19.5262 3.67578 19.6454C3.67578 19.8407 3.83423 19.9992 4.02956 19.9992H12.9672C13.1625 19.9992 13.3206 19.8407 13.3206 19.6454C13.3206 18.6732 12.8035 17.7679 11.8641 17.0952Z" fill="black"/>
        <path d="M5.41697 19.2908C5.34281 18.9135 5.15072 18.5719 4.87637 18.2967C4.79451 18.2145 4.70536 18.1383 4.60972 18.069C4.51449 17.9997 4.41237 17.9369 4.30498 17.8814C3.96619 17.7071 3.5727 17.6074 3.15287 17.6074C1.88283 17.6074 0.853516 18.5196 0.853516 19.6446H5.45182C5.45182 19.5238 5.44007 19.4059 5.41697 19.2908ZM1.25065 19.2908C1.43869 18.5318 2.2204 17.9612 3.15287 17.9612C3.49692 17.9612 3.82112 18.039 4.10195 18.1756C4.21015 18.2278 4.31227 18.2894 4.40669 18.3587C4.50436 18.4297 4.59432 18.5095 4.67415 18.5962C4.85814 18.796 4.99106 19.0323 5.05508 19.2908H1.25065Z" fill="black"/>
        <path d="M5.77627 19.2907C5.69685 18.8096 5.45775 18.3752 5.10965 18.0324C5.02698 17.9505 4.93823 17.8743 4.84381 17.8038C4.74817 17.7321 4.64686 17.6669 4.54028 17.6077C4.13666 17.3832 3.6609 17.2539 3.15273 17.2539C1.6898 17.2539 0.5 18.3262 0.5 19.6444C0.5 19.8398 0.658045 19.9982 0.853373 19.9982H5.45167C5.647 19.9982 5.80545 19.8398 5.80545 19.6444C5.80545 19.5241 5.79573 19.4062 5.77627 19.2907ZM3.15273 17.9611C3.49678 17.9611 3.82097 18.0389 4.10181 18.1754C4.21001 18.2277 4.31213 18.2893 4.40655 18.3586C4.50421 18.4295 4.59418 18.5094 4.67401 18.5961C4.85799 18.7959 4.99091 19.0321 5.05494 19.2907H1.25051C1.43854 18.5316 2.22026 17.9611 3.15273 17.9611Z" fill="black"/>
        <path d="M16.7321 17.9062C15.6492 17.9062 14.7715 18.6839 14.7715 19.6435H18.693C18.693 18.6839 17.8153 17.9062 16.7321 17.9062ZM16.7321 18.2596C17.4765 18.2596 18.1042 18.6977 18.2862 19.2898H15.1783C15.3603 18.6977 15.988 18.2596 16.7321 18.2596Z" fill="black"/>
        <path d="M16.7323 17.5527C15.4562 17.5527 14.418 18.4909 14.418 19.6438C14.418 19.8391 14.576 19.9976 14.7717 19.9976H18.6933C18.8886 19.9976 19.0471 19.8391 19.0471 19.6438C19.0471 18.4909 18.0088 17.5527 16.7323 17.5527ZM15.1786 19.29C15.3606 18.698 15.9883 18.2599 16.7323 18.2599C17.4763 18.2599 18.1045 18.698 18.2864 19.29H15.1786Z" fill="black"/>
    </g>
    <defs>
        <clipPath id="clip0_650_13077">
            <rect width="18.5484" height="20" fill="white" transform="translate(0.5)"/>
        </clipPath>
    </defs>
</svg>
