<svg width="20" height="20" viewBox="0 0 20 20" fill="none" xmlns="http://www.w3.org/2000/svg">
    <path d="M4.26477 19C2.18886 19 0.5 17.3111 0.5 15.2352C0.5 14.2908 0.852751 13.3874 1.4925 12.6905C2.12883 11.9982 2.99155 11.5699 3.92231 11.4859L4.08525 11.471V1.17952C4.08525 1.11835 4.11612 1.06175 4.16758 1.02859C4.19674 1.01029 4.22989 1 4.2642 1C4.2905 1 4.31565 1.00572 4.33909 1.01658L9.5749 3.42466C9.63836 3.45382 9.67952 3.51785 9.67952 3.5876C9.67952 3.65735 9.63836 3.72138 9.5749 3.75054L4.44372 6.11117V11.4705H7.88604C7.98495 11.4705 8.06556 11.5511 8.06556 11.65C8.06556 11.7489 7.98495 11.8295 7.88604 11.8295H4.44372V13.4423L4.70957 13.2954C4.95884 13.1576 5.25099 13.085 5.55514 13.085C6.36584 13.085 7.02503 13.5995 7.02503 14.2324C7.02503 14.8653 6.36527 15.3799 5.55514 15.3799C4.74501 15.3799 4.08525 14.8653 4.08525 14.2324V11.8289L3.88629 11.8512C2.16027 12.0428 0.858468 13.4983 0.858468 15.2364C0.858468 17.1145 2.38667 18.6427 4.26477 18.6427H14.7347C16.6128 18.6427 18.141 17.1145 18.141 15.2364C18.141 13.3583 16.6128 11.8301 14.7347 11.8301H11.1134C11.0145 11.8301 10.9339 11.7495 10.9339 11.6506C10.9339 11.5516 11.0145 11.471 11.1134 11.471H14.7347C16.8106 11.471 18.4994 13.1599 18.4994 15.2358C18.4994 17.3117 16.8106 19.0006 14.7347 19.0006H4.26477V19ZM5.55571 13.4423C4.94283 13.4423 4.44429 13.7962 4.44429 14.2313C4.44429 14.6664 4.94283 15.0203 5.55571 15.0203C6.16859 15.0203 6.66713 14.6664 6.66713 14.2313C6.66713 13.7962 6.16859 13.4423 5.55571 13.4423ZM4.44429 5.71611L9.07178 3.5876L4.44429 1.45909V5.71611Z" fill="black" stroke="black" stroke-width="0.45"/>
    <path d="M13.9403 17.0623C13.3669 17.0623 12.9004 16.5958 12.9004 16.0224C12.9004 15.4489 13.3669 14.9824 13.9403 14.9824C14.5138 14.9824 14.9803 15.4489 14.9803 16.0224C14.9803 16.5958 14.5138 17.0623 13.9403 17.0623ZM13.9403 15.3415C13.5647 15.3415 13.2589 15.6473 13.2589 16.023C13.2589 16.3986 13.5647 16.7044 13.9403 16.7044C14.316 16.7044 14.6218 16.3986 14.6218 16.023C14.6218 15.6473 14.316 15.3415 13.9403 15.3415Z" fill="black" stroke="black" stroke-width="0.45"/>
    <path d="M9.49983 11.8278C9.45352 11.8278 9.40607 11.8084 9.37291 11.7752C9.33975 11.742 9.32031 11.6952 9.32031 11.6483C9.32031 11.6014 9.33975 11.5545 9.37291 11.5213C9.40607 11.4882 9.45295 11.4688 9.49983 11.4688C9.54671 11.4688 9.59359 11.4882 9.62675 11.5213C9.65934 11.5545 9.67935 11.6014 9.67935 11.6483C9.67935 11.6952 9.65991 11.742 9.62675 11.7752C9.59359 11.8084 9.54671 11.8278 9.49983 11.8278Z" fill="black" stroke="black" stroke-width="0.45"/>
</svg>
