<svg width="21" height="21" viewBox="0 0 21 21" fill="none" xmlns="http://www.w3.org/2000/svg">
    <path d="M18.7567 16.5997V6.43829C18.7567 6.04087 19.0788 5.71875 19.4762 5.71875H19.8025C20.2 5.71875 20.5221 6.04087 20.5221 6.43829V19.8594H18.7559V18.2296" stroke="black" stroke-width="0.8" stroke-linecap="round" stroke-linejoin="round"/>
    <path d="M18.675 11.9121H2.62323C1.46275 11.9121 0.521484 12.8534 0.521484 14.0138V16.5992H18.675" stroke="black" stroke-width="0.8" stroke-linecap="round" stroke-linejoin="round"/>
    <path d="M1.81667 17.9216V19.8593H0.521484V16.5996" stroke="black" stroke-width="0.8" stroke-linecap="round" stroke-linejoin="round"/>
    <path d="M13.2991 11.108C13.2321 10.9507 13.1953 10.7767 13.1953 10.5951C13.1953 9.8672 13.7852 9.27734 14.5131 9.27734H17.4423C18.1702 9.27734 18.7601 9.8672 18.7601 10.5951" stroke="black" stroke-width="0.8" stroke-linecap="round" stroke-linejoin="round"/>
    <path d="M2.41992 5.20694C2.53789 4.73003 2.96878 4.37695 3.48251 4.37695H5.93315C6.53723 4.37695 7.02752 4.86725 7.02752 5.47133V5.47969C7.02752 6.08377 6.53723 6.57407 5.93315 6.57407" stroke="black" stroke-width="0.8" stroke-linecap="round" stroke-linejoin="round"/>
    <path d="M13.1113 11.9121V16.2971" stroke="black" stroke-width="0.8" stroke-linecap="round" stroke-linejoin="round"/>
    <path d="M13.1113 14.0137H18.7564" stroke="black" stroke-width="0.8" stroke-linecap="round" stroke-linejoin="round"/>
    <path d="M2.69027 11.911C2.32213 11.911 2.02344 11.6123 2.02344 11.2441" stroke="black" stroke-width="0.8" stroke-linecap="round" stroke-linejoin="round"/>
    <path d="M5.94162 10.5759H2.69027C2.32213 10.5759 2.02344 10.2772 2.02344 9.90902C2.02344 9.54088 2.32213 9.24219 2.69027 9.24219" stroke="black" stroke-width="0.8" stroke-linecap="round" stroke-linejoin="round"/>
    <path d="M2.68945 11.9112H6.05877C6.79588 11.9112 7.39327 11.3138 7.39327 10.5767C7.39327 9.83957 6.79588 9.24219 6.05877 9.24219H2.68945" stroke="black" stroke-width="0.8" stroke-linecap="round" stroke-linejoin="round"/>
    <path d="M6.72656 6.57422C7.0947 6.57422 7.3934 6.87291 7.3934 7.24105C7.3934 7.60919 7.0947 7.90788 6.72656 7.90788" stroke="black" stroke-width="0.8" stroke-linecap="round" stroke-linejoin="round"/>
    <path d="M6.72726 6.57422H3.35794C2.62083 6.57422 2.02344 7.17161 2.02344 7.90872C2.02344 8.64583 2.62083 9.24322 3.35794 9.24322" stroke="black" stroke-width="0.8" stroke-linecap="round" stroke-linejoin="round"/>
    <path d="M14.3559 4.59546C13.6866 4.8406 13.1628 5.51497 12.9729 6.37842C12.783 5.51497 12.2592 4.83977 11.5898 4.59546C12.2592 4.35031 12.783 3.67595 12.9729 2.8125C13.1628 3.67595 13.6866 4.35115 14.3559 4.59546Z" stroke="black" stroke-width="0.8" stroke-linecap="round" stroke-linejoin="round"/>
    <path d="M9.97505 2.59351C9.30571 2.83865 8.78194 3.51301 8.59202 4.37646C8.40209 3.51301 7.87833 2.83782 7.20898 2.59351C7.87833 2.34836 8.40209 1.674 8.59202 0.810547C8.78194 1.674 9.30571 2.3492 9.97505 2.59351Z" stroke="black" stroke-width="0.8" stroke-linecap="round" stroke-linejoin="round"/>
</svg>
