<svg width="20" height="20" viewBox="0 0 20 20" fill="none" xmlns="http://www.w3.org/2000/svg">
    <g clip-path="url(#clip0_582_14434)">
        <g clip-path="url(#clip1_582_14434)">
            <path d="M1.46499 0H1.53335C1.66642 0.0296875 1.75366 0.114323 1.79507 0.253906C2.36538 2.16836 2.91968 4.08906 3.51499 5.9957C3.63921 6.39297 3.72124 6.74648 3.73804 7.11914C3.75392 7.47513 3.77098 7.8306 3.78921 8.18555C3.81772 8.73789 4.03491 9.06367 4.44819 9.44727C5.08074 10.034 5.71186 10.6223 6.34155 11.2121C6.34839 11.2184 6.35709 11.2222 6.36616 11.2227C6.51121 11.2307 6.61707 11.1896 6.68374 11.0992C6.81186 10.9254 6.68569 10.725 6.5728 10.5738C6.24494 10.1337 5.91447 9.69661 5.58139 9.2625C5.57585 9.25519 5.56768 9.25006 5.55835 9.24805C5.20418 9.17565 4.9659 8.98893 4.8435 8.68789C4.80001 8.58138 4.77111 8.41081 4.75679 8.17617C4.73413 7.8043 4.71017 7.43242 4.68491 7.06055C4.65952 6.68555 5.23804 6.59766 5.27202 7.08281C5.30014 7.48698 5.32671 7.89115 5.35171 8.29531C5.35692 8.38281 5.37189 8.44896 5.39663 8.49375C5.53139 8.7375 5.87905 8.72461 5.98647 8.46602C6.00678 8.41654 6.01486 8.34414 6.01069 8.24883C5.96538 7.22539 5.98296 6.30391 5.28413 5.63906C5.12749 5.48984 4.8646 5.32617 4.72554 5.09648C4.63621 4.94935 4.55509 4.75247 4.48218 4.50586C4.08478 3.16341 3.68725 1.82096 3.2896 0.478516C3.22046 0.244922 3.24585 0.0585938 3.506 0H3.5646C3.7935 0.0476563 3.81225 0.183594 3.88022 0.413281C4.27423 1.74089 4.66837 3.06836 5.06264 4.3957C5.11212 4.56263 5.18139 4.71628 5.27046 4.85664C5.2991 4.90169 5.32241 4.89909 5.34038 4.84883C5.37319 4.75664 5.40848 4.66536 5.44624 4.575C5.46629 4.52656 5.47384 4.47617 5.46889 4.42383C5.33647 3.08984 5.73218 1.77695 6.78257 0.915625C7.81811 0.0667969 9.39155 -0.232422 10.6248 0.338672C11.2927 0.648047 11.6952 1.16888 11.8322 1.90117C11.8339 1.91048 11.8389 1.9188 11.8462 1.92461C12.3767 2.34544 12.6714 2.89609 12.7302 3.57656C12.7307 3.5823 12.7324 3.58783 12.7353 3.59276C12.7381 3.59769 12.742 3.6019 12.7466 3.60508C13.163 3.89622 13.4995 4.26055 13.756 4.69805C13.7836 4.74518 13.807 4.74323 13.8263 4.69219C13.8578 4.60833 13.8865 4.5237 13.9123 4.43828C14.3346 3.04245 14.7531 1.64544 15.1677 0.247266C15.2083 0.110286 15.2957 0.0278646 15.4298 0H15.4982C15.7931 0.0796875 15.7677 0.282812 15.6935 0.533594C15.2982 1.87005 14.9009 3.20599 14.5017 4.54141C14.388 4.92188 14.2568 5.20078 13.9501 5.43945C13.4107 5.85938 13.1619 6.32695 13.0744 7.00195C13.0397 7.26914 13.0107 7.6957 12.9873 8.28164C12.9673 8.78008 13.6169 8.80625 13.6478 8.30703C13.683 7.73958 13.7117 7.31549 13.7341 7.03477C13.7673 6.61875 14.3404 6.64492 14.3076 7.14375C14.2815 7.53828 14.2551 7.93268 14.2283 8.32695C14.1939 8.83424 13.9314 9.14128 13.4408 9.24805C13.4317 9.25007 13.4237 9.25519 13.4181 9.2625C13.0853 9.69766 12.7525 10.1328 12.4197 10.568C12.272 10.7609 12.1474 11.077 12.4521 11.1992C12.5534 11.2401 12.6363 11.2303 12.7009 11.1699C13.3035 10.6087 13.9061 10.0478 14.5087 9.48711C14.7363 9.27539 14.8848 9.11549 14.9541 9.00742C15.1505 8.70156 15.2138 8.31836 15.2224 7.96875C15.2392 7.28711 15.2427 6.76016 15.4068 6.23984C15.6513 5.46224 15.8891 4.68255 16.1201 3.90078C16.149 3.8026 16.1804 3.73451 16.2142 3.69648C16.3666 3.52578 16.6513 3.59609 16.7076 3.81914C16.7214 3.87487 16.7124 3.95742 16.6806 4.0668C16.4728 4.77643 16.258 5.48398 16.0361 6.18945C15.9373 6.50391 15.856 6.83398 15.8462 7.11914C15.8119 8.11836 15.8482 8.91055 15.2466 9.58945C15.2281 9.61029 15.0389 9.78919 14.6791 10.1262C14.2509 10.527 13.8222 10.9268 13.3927 11.3258C13.0533 11.641 12.897 11.8211 12.4771 11.8082C12.4711 11.808 12.4652 11.8091 12.4598 11.8114C12.4544 11.8138 12.4496 11.8174 12.4458 11.8219C12.1248 12.2 11.7633 12.535 11.3615 12.827C11.3565 12.8306 11.3525 12.8353 11.3497 12.8408C11.3469 12.8463 11.3455 12.8524 11.3455 12.8586V13.5133C11.3454 13.522 11.3483 13.5305 11.3536 13.5373C11.3589 13.5442 11.3664 13.5491 11.3748 13.5512C13.0123 13.9715 15.7365 14.6738 15.8615 16.8168C15.9091 17.64 15.9508 18.4635 15.9865 19.2875C16.0033 19.675 15.9326 19.9793 15.4642 20H3.53061C2.9353 19.9344 2.99624 19.5391 3.02007 19.0281C3.05288 18.3201 3.08895 17.6111 3.12827 16.9012C3.2521 14.6641 5.91225 13.9973 7.62475 13.5512C7.63317 13.5489 7.6406 13.544 7.6459 13.5371C7.6512 13.5303 7.65406 13.5219 7.65405 13.5133V12.8578C7.65404 12.8515 7.65259 12.8454 7.6498 12.8399C7.64701 12.8344 7.64298 12.8297 7.63803 12.8262C7.23543 12.5353 6.87384 12.2005 6.55327 11.8219C6.54948 11.8174 6.54474 11.8138 6.5394 11.8113C6.53406 11.8089 6.52825 11.8077 6.52241 11.8078C6.10991 11.8211 5.94858 11.6457 5.61929 11.3387C5.0521 10.8098 4.48296 10.2829 3.91186 9.7582C2.87241 8.80312 3.37124 7.54492 2.99975 6.32383C2.40184 4.35872 1.81434 2.39062 1.23725 0.419531C1.17632 0.211719 1.25132 0.053125 1.46499 0ZM10.6205 1.00664C9.67202 0.398828 8.37514 0.573828 7.45522 1.14883C6.8297 1.53971 6.40705 2.10339 6.18725 2.83984C6.12788 3.03828 6.08556 3.23802 6.0603 3.43906C6.05145 3.50885 6.06968 3.51693 6.11499 3.46328C6.77853 2.67813 7.58139 2.12956 8.52358 1.81758C9.08348 1.63216 9.67918 1.53151 10.3107 1.51562C10.5758 1.50911 10.8199 1.52539 11.0431 1.56445C11.0965 1.57383 11.1102 1.55469 11.0841 1.50703C10.9682 1.29688 10.8137 1.13008 10.6205 1.00664ZM10.1978 4.30625C8.82475 3.98672 7.06186 4.20352 5.90093 5.03633C5.89408 5.04115 5.889 5.04816 5.88647 5.05625L5.80913 5.30547C5.80721 5.31178 5.80696 5.3185 5.80839 5.32499C5.80983 5.33149 5.8129 5.33754 5.81733 5.34258C6.14363 5.71107 6.3547 6.1362 6.45054 6.61797C6.45965 6.6638 6.48126 6.67083 6.51538 6.63906C7.48439 5.74167 8.63009 5.34974 9.95249 5.46328C9.96056 5.4638 10.0939 5.48451 10.3525 5.52539C12.5185 5.8668 12.9005 2.15547 10.5287 2.10195C9.94012 2.08893 9.36277 2.16927 8.79663 2.34297C7.82189 2.64193 7.03139 3.19648 6.42514 4.00664C6.38113 4.0655 6.39337 4.08138 6.46186 4.0543C7.36004 3.70013 8.29559 3.54453 9.2685 3.5875C9.5353 3.59961 10.413 3.66484 10.5904 3.8582C10.7216 4.00117 10.6431 4.28437 10.4451 4.32852C10.3932 4.33997 10.3108 4.33255 10.1978 4.30625ZM12.672 4.36719C12.5754 4.77813 12.3988 5.13438 12.1423 5.43594C11.9801 5.62682 11.7893 5.78242 11.5701 5.90273C11.5284 5.92565 11.5284 5.94844 11.5701 5.97109C11.9052 6.15495 12.2098 6.37995 12.4837 6.64609C12.5184 6.67969 12.5401 6.67279 12.549 6.62539C12.6555 6.06732 12.9143 5.59258 13.3255 5.20117C13.3314 5.19549 13.3354 5.1881 13.3369 5.18003C13.3384 5.17197 13.3373 5.16365 13.3337 5.15625C13.1869 4.84766 12.9878 4.57812 12.7365 4.34766C12.7315 4.34304 12.7254 4.33982 12.7187 4.33829C12.7121 4.33677 12.7052 4.33701 12.6987 4.33899C12.6921 4.34096 12.6863 4.3446 12.6816 4.34955C12.6769 4.35449 12.6736 4.36057 12.672 4.36719ZM7.48569 11.9457C8.19429 12.6023 9.20171 13.252 10.1814 12.8313C10.8249 12.5549 11.3942 12.1331 11.8892 11.5656C11.8951 11.5589 11.8985 11.5504 11.8988 11.5415C11.8992 11.5326 11.8965 11.5239 11.8912 11.5168C11.4814 10.9648 11.7072 10.5609 12.0869 10.05C12.3142 9.74375 12.5452 9.43867 12.7798 9.13477C12.786 9.12672 12.7888 9.11661 12.7876 9.10655C12.7864 9.09649 12.7814 9.08728 12.7736 9.08086C12.258 8.65664 12.413 8.13906 12.4412 7.49336C12.4417 7.48405 12.4387 7.47489 12.433 7.46758C10.9541 5.56445 8.03999 5.52305 6.56733 7.46875C6.56201 7.4761 6.55926 7.48489 6.55952 7.49375C6.56629 7.66953 6.57475 7.84531 6.58491 8.02109C6.61225 8.49414 6.59155 8.79453 6.22553 9.07734C6.21742 9.08363 6.21213 9.0929 6.21082 9.10313C6.2095 9.11337 6.21226 9.12375 6.2185 9.13203C6.50913 9.51302 6.79871 9.89674 7.08725 10.2832C7.37007 10.6617 7.41968 11.1426 7.10679 11.5164C7.1007 11.5235 7.09742 11.5326 7.09756 11.542C7.09771 11.5515 7.10126 11.5605 7.10757 11.5676C7.20262 11.6743 7.32866 11.8004 7.48569 11.9457ZM8.93257 17.2273C9.10262 17.3893 9.13035 17.5447 9.01577 17.6934C8.9603 17.7652 8.86382 17.8027 8.7771 17.8027C7.73231 17.8027 6.68751 17.8027 5.64272 17.8027C5.63236 17.8027 5.62243 17.8069 5.6151 17.8142C5.60778 17.8215 5.60366 17.8314 5.60366 17.8418L5.60249 19.375C5.60249 19.3854 5.6066 19.3953 5.61393 19.4026C5.62125 19.4099 5.63119 19.4141 5.64155 19.4141H13.358C13.3631 19.4141 13.3681 19.413 13.3728 19.4111C13.3776 19.4091 13.3818 19.4062 13.3854 19.4026C13.389 19.399 13.3919 19.3947 13.3938 19.3899C13.3957 19.3852 13.3967 19.3801 13.3966 19.375L13.3958 17.8414C13.3958 17.831 13.3917 17.8211 13.3844 17.8138C13.3771 17.8065 13.3671 17.8023 13.3568 17.8023C12.3068 17.8031 11.257 17.803 10.2076 17.802C9.7396 17.8016 9.73061 17.2176 10.2134 17.2172C11.2652 17.2164 12.3172 17.2164 13.3693 17.2172C13.8353 17.2176 13.9822 17.4312 13.9822 17.8859C13.9822 18.3841 13.9823 18.8805 13.9826 19.375C13.9826 19.3854 13.9867 19.3953 13.994 19.4026C14.0013 19.4099 14.0113 19.4141 14.0216 19.4141H15.374C15.3793 19.4141 15.3846 19.413 15.3895 19.4109C15.3944 19.4088 15.3988 19.4057 15.4025 19.4018C15.4061 19.3979 15.4089 19.3933 15.4108 19.3883C15.4126 19.3833 15.4134 19.378 15.413 19.3727C15.3758 18.6523 15.3386 17.9302 15.3013 17.2063C15.2823 16.8336 15.2512 16.5759 15.208 16.4332C14.7701 14.9836 12.4244 14.4012 11.1599 14.1031C10.8693 14.0348 10.7595 13.8102 10.7595 13.5254C10.7598 13.4379 10.7596 13.3509 10.7591 13.2645C10.759 13.2577 10.7572 13.2511 10.7538 13.2453C10.7505 13.2394 10.7456 13.2345 10.7398 13.2311C10.734 13.2276 10.7275 13.2257 10.7207 13.2256C10.714 13.2254 10.7073 13.2269 10.7013 13.2301C10.4216 13.3798 10.1253 13.4816 9.81225 13.5355C9.31264 13.6215 8.75249 13.4711 8.29468 13.2312C8.28856 13.2281 8.28172 13.2266 8.27485 13.2269C8.26798 13.2272 8.26131 13.2292 8.2555 13.2329C8.2497 13.2365 8.24496 13.2416 8.24176 13.2476C8.23856 13.2536 8.237 13.2604 8.23725 13.2672C8.25288 13.6957 8.26421 13.9895 7.78452 14.1133C6.51694 14.4414 4.24038 14.9703 3.7935 16.4344C3.74845 16.5818 3.71655 16.8392 3.6978 17.2066C3.66108 17.9267 3.6241 18.6487 3.58686 19.3727C3.58654 19.3779 3.58732 19.3832 3.58914 19.3882C3.59095 19.3931 3.59378 19.3977 3.59744 19.4015C3.6011 19.4054 3.60552 19.4084 3.61041 19.4105C3.61531 19.4126 3.62059 19.4137 3.62593 19.4137L4.97475 19.4145C4.98511 19.4145 4.99505 19.4103 5.00238 19.403C5.0097 19.3957 5.01382 19.3858 5.01382 19.3754C5.01798 18.8671 5.01916 18.3587 5.01733 17.8504C5.01577 17.3578 5.22553 17.2164 5.70796 17.2164C6.77384 17.2169 7.83973 17.2171 8.90561 17.2168C8.91568 17.2168 8.92531 17.2206 8.93257 17.2273Z" fill="black" stroke="black" stroke-width="0.2"/>
            <path d="M17.469 0H17.5373C17.7498 0.0695312 17.821 0.222656 17.751 0.459375C17.5377 1.17995 17.3238 1.90013 17.1092 2.61992C16.9944 3.00469 16.4248 2.8707 16.5678 2.38789C16.7824 1.66341 16.9976 0.939193 17.2135 0.215234C17.2489 0.0964844 17.3341 0.0247396 17.469 0Z" fill="black" stroke="black" stroke-width="0.2"/>
            <path d="M8.02521 8.35291C8.37716 7.97986 8.86154 8.58181 8.30607 8.85916C8.01675 9.00343 7.74214 8.98728 7.48224 8.81072C7.04279 8.51189 7.50646 8.00759 7.8467 8.35525C7.85041 8.35897 7.85484 8.36192 7.85973 8.36393C7.86462 8.36594 7.86988 8.36697 7.87521 8.36697L7.99748 8.36502C8.00798 8.36475 8.01794 8.3604 8.02521 8.35291Z" fill="black" stroke="black" stroke-width="0.2"/>
            <path d="M10.5954 8.7992C10.2231 8.54803 10.5731 8.05116 10.9133 8.30428C11.0188 8.3828 11.1024 8.40077 11.2012 8.31561C11.5169 8.04413 11.9239 8.52342 11.5274 8.79491C11.217 9.00767 10.9063 9.0091 10.5954 8.7992Z" fill="black" stroke="black" stroke-width="0.2"/>
            <path d="M9.92723 10.7195C10.1725 10.6007 10.4296 10.8828 10.3003 11.1179C10.1464 11.3968 9.52644 11.4382 9.25301 11.3956C9.05561 11.3649 8.89467 11.3027 8.77019 11.2089C8.57332 11.0605 8.66902 10.7464 8.90418 10.6992C9.0409 10.6718 9.18269 10.7824 9.29793 10.8062C9.50808 10.8499 9.71785 10.821 9.92723 10.7195Z" fill="black" stroke="black" stroke-width="0.2"/>
        </g>
    </g>
    <defs>
        <clipPath id="clip0_582_14434">
            <rect width="20" height="20" fill="white"/>
        </clipPath>
        <clipPath id="clip1_582_14434">
            <rect width="20" height="20" fill="white" transform="translate(-0.5)"/>
        </clipPath>
    </defs>
</svg>
