<svg width="20" height="20" viewBox="0 0 20 20" fill="none" xmlns="http://www.w3.org/2000/svg">
    <g clip-path="url(#clip0_578_16281)">
        <path d="M20 8.2069C20 4.2431 16.5862 1 12.4138 1H7.58621C5.55172 1 3.65517 1.75345 2.2069 3.09655C0.793103 4.47241 0 6.27414 0 8.2069C0 11.0897 1.86207 13.7103 4.62069 14.8241L4.48276 18.0345C4.48276 18.3621 4.58621 18.6897 4.86207 18.9517C5.13793 19.2138 5.48276 19.3448 5.86207 19.3448C6.24138 19.3448 6.62069 19.181 6.86207 18.9517C7.13793 18.6897 7.24138 18.3621 7.24138 18.0345L7.13793 15.4138C7.27586 15.4138 7.44828 15.4138 7.58621 15.4138H12.1724L12.069 18.0345C12.069 18.3621 12.1724 18.6897 12.4483 18.9517C12.7241 19.2138 13.069 19.3448 13.4483 19.3448C13.8276 19.3448 14.2069 19.181 14.4483 18.9517C14.7241 18.6897 14.8276 18.3621 14.8276 18.0345L14.6897 15.0862C15.8276 14.7586 16.8966 14.1362 17.7586 13.3172C19.2069 11.9414 20 10.1397 20 8.2069ZM10.6897 8.86207V6.40517C10.6897 6.3069 10.7586 6.24138 10.8621 6.24138H11.2069C11.3103 6.24138 11.3793 6.3069 11.3793 6.40517V8.37069C11.3793 8.82931 11.7586 9.18966 12.2414 9.18966C12.7241 9.18966 13.1034 8.82931 13.1034 8.37069V6.40517C13.1034 6.3069 13.1724 6.24138 13.2759 6.24138H13.6207C13.7241 6.24138 13.7931 6.3069 13.7931 6.40517V8.37069C13.7931 8.82931 14.1724 9.18966 14.6552 9.18966C15.1379 9.18966 15.5172 8.82931 15.5172 8.37069V6.40517C15.5172 6.3069 15.5862 6.24138 15.6897 6.24138H16.0345C16.1379 6.24138 16.2069 6.3069 16.2069 6.40517V8.86207C16.2069 10.3034 14.9655 11.4828 13.4483 11.4828C11.931 11.4828 10.6897 10.3034 10.6897 8.86207ZM14.5517 11.9741C15.8966 11.5483 16.8966 10.3034 16.8966 8.86207V6.40517C16.8966 5.94655 16.5172 5.58621 16.0345 5.58621H15.6897C15.2069 5.58621 14.8276 5.94655 14.8276 6.40517V8.37069C14.8276 8.46897 14.7586 8.53448 14.6552 8.53448C14.5517 8.53448 14.4828 8.46897 14.4828 8.37069V6.40517C14.4828 5.94655 14.1034 5.58621 13.6207 5.58621H13.2759C12.7931 5.58621 12.4138 5.94655 12.4138 6.40517V8.37069C12.4138 8.46897 12.3448 8.53448 12.2414 8.53448C12.1379 8.53448 12.069 8.46897 12.069 8.37069V6.40517C12.069 5.94655 11.6897 5.58621 11.2069 5.58621H10.8621C10.3793 5.58621 10 5.94655 10 6.40517V8.86207C10 10.3034 10.9655 11.5155 12.3448 11.9741L12.2759 13.4483H7.58621C7.41379 13.4483 7.2069 13.4483 7.03448 13.4155L6.96552 11.9086C7.93104 11.5155 8.62069 10.5983 8.62069 9.51724V8.2069C8.62069 6.76552 7.37931 5.58621 5.86207 5.58621C4.34483 5.58621 3.10345 6.76552 3.10345 8.2069V9.51724C3.10345 10.5983 3.7931 11.5155 4.75862 11.9086L4.72414 12.6621C3.06897 11.7448 2.06897 10.0741 2.06897 8.2069C2.06897 6.79828 2.65517 5.48793 3.68966 4.50517C4.72414 3.52241 6.10345 2.96552 7.58621 2.96552H12.4138C15.4483 2.96552 17.931 5.32414 17.931 8.2069C17.931 9.61552 17.3448 10.9259 16.3103 11.9086C15.8276 12.3672 15.2414 12.7276 14.6207 12.9897L14.5517 11.9741ZM3.7931 9.51724V8.2069C3.7931 7.12586 4.72414 6.24138 5.86207 6.24138C7 6.24138 7.93103 7.12586 7.93103 8.2069V9.51724C7.93103 10.5983 7 11.4828 5.86207 11.4828C4.72414 11.4828 3.7931 10.5983 3.7931 9.51724ZM6.37931 18.4931C6.10345 18.7552 5.62069 18.7552 5.34483 18.4931C5.2069 18.3621 5.17241 18.1983 5.17241 18.0345L5.31034 14.5948L5.37931 13.219C5.37931 13.219 5.37931 13.219 5.37931 13.1862L5.41379 12.0724C5.58621 12.1379 5.72414 12.1379 5.86207 12.1379C6 12.1379 6.13793 12.1379 6.31034 12.1052L6.55172 18.0345C6.55172 18.1983 6.48276 18.3621 6.37931 18.4931ZM7.58621 14.7586C7.41379 14.7586 7.27586 14.7586 7.10345 14.7259L7.06897 14.0707C7.24138 14.0707 7.41379 14.1034 7.58621 14.1034H12.2414L12.2069 14.7586H7.58621ZM13.9655 18.4931C13.6897 18.7552 13.2069 18.7552 12.931 18.4931C12.7931 18.3621 12.7586 18.1983 12.7586 18.0345L12.9655 13.7431L13.0345 12.1052C13.1724 12.1379 13.3103 12.1379 13.4483 12.1379C13.5862 12.1379 13.7241 12.1379 13.8966 12.1052L14.1379 18.0345C14.1379 18.1983 14.069 18.3621 13.9655 18.4931ZM14.6552 14.3983L14.6207 13.7103C15.4138 13.4155 16.1724 12.9569 16.7931 12.3672C17.9655 11.2534 18.6207 9.77931 18.6207 8.2069C18.6207 4.96379 15.8276 2.31034 12.4138 2.31034H7.58621C5.93103 2.31034 4.37931 2.93276 3.2069 4.04655C2.03448 5.16035 1.37931 6.63448 1.37931 8.2069C1.37931 10.4017 2.65517 12.4 4.68966 13.4155L4.65517 14.1362C2.27586 13.0552 0.689655 10.7293 0.689655 8.2069C0.689655 6.47069 1.41379 4.8 2.72414 3.58793C4.03448 2.37586 5.75862 1.65517 7.58621 1.65517H12.4138C16.2069 1.65517 19.3103 4.60345 19.3103 8.2069C19.3103 9.9431 18.5862 11.6138 17.2759 12.8259C16.5517 13.5466 15.6552 14.0707 14.6552 14.3983Z" fill="black"/>
    </g>
    <defs>
        <clipPath id="clip0_578_16281">
            <rect width="20" height="20" fill="white"/>
        </clipPath>
    </defs>
</svg>
