<svg width="21" height="20" viewBox="0 0 21 20" fill="none" xmlns="http://www.w3.org/2000/svg">
    <g clip-path="url(#clip0_581_13893)">
        <path d="M17.5801 17.1253H3.41576L2.12835 15.7841H1.27328C0.971608 15.7841 0.698754 15.5612 0.640148 15.2644L0.509486 14.612C0.475859 14.4439 0.517172 14.2729 0.622855 14.1441C0.728537 14.0154 0.887062 13.9414 1.05904 13.9414H19.9378C20.1098 13.9414 20.2683 14.0154 20.374 14.1441C20.4797 14.2729 20.521 14.4429 20.4874 14.612L20.3567 15.2644C20.2972 15.5603 20.0253 15.7832 19.7236 15.7832H18.8685L17.5811 17.1244L17.5801 17.1253ZM3.74338 16.3567H17.2525L18.5399 15.0155H19.6227L19.6832 14.7119H1.31268L1.3732 15.0155H6.55551V15.7841H3.19383L3.74338 16.3567Z" fill="black"/>
        <path d="M4.23149 13.4701H3.46289C3.46289 11.2892 4.43517 9.24283 6.12898 7.85742L6.61512 8.45213C5.10001 9.6915 4.23053 11.5208 4.23053 13.4701H4.23149Z" fill="black"/>
        <path d="M7.62482 7.77229L7.25781 7.09688C7.7036 6.85477 8.17533 6.65878 8.66051 6.51562L8.8786 7.25252C8.4453 7.3803 8.02353 7.55516 7.62578 7.77229H7.62482Z" fill="black"/>
        <path d="M19.3562 13.4701H18.5875C18.5875 9.12746 15.0549 5.59477 10.7123 5.59477C6.36965 5.59477 2.83696 9.12746 2.83696 13.4701H2.06836C2.06836 8.70377 5.94596 4.82617 10.7123 4.82617C15.4786 4.82617 19.3562 8.70377 19.3562 13.4701Z" fill="black"/>
        <path d="M10.713 5.59407C9.68597 5.59407 8.88086 5.02434 8.88086 4.29801C8.88086 3.57168 9.68501 3.00195 10.713 3.00195C11.741 3.00195 12.5452 3.57168 12.5452 4.29801C12.5452 5.02434 11.7401 5.59407 10.713 5.59407ZM10.713 3.77056C10.0635 3.77056 9.64946 4.0828 9.64946 4.29801C9.64946 4.51322 10.0635 4.82546 10.713 4.82546C11.3625 4.82546 11.7766 4.51322 11.7766 4.29801C11.7766 4.0828 11.3625 3.77056 10.713 3.77056Z" fill="black"/>
    </g>
    <defs>
        <clipPath id="clip0_581_13893">
            <rect width="20" height="14.1231" fill="white" transform="translate(0.5 3)"/>
        </clipPath>
    </defs>
</svg>
