<svg width="20" height="20" viewBox="0 0 20 20" fill="none" xmlns="http://www.w3.org/2000/svg">
    <g clip-path="url(#clip0_583_13383)">
        <path d="M3.47221 19.8309C3.40155 19.8309 3.33798 19.7915 3.28831 19.7167C3.06835 19.3865 2.85193 19.0421 2.64438 18.6932C2.60832 18.6323 2.59738 18.5749 2.61186 18.522C2.62901 18.4596 2.68223 18.4023 2.76619 18.3567C3.02282 18.2169 3.21026 18.041 3.33975 17.819C3.49911 17.5455 3.56356 17.2347 3.53695 16.8687C3.50414 16.4185 3.36341 15.9765 3.08047 15.4351C2.98911 15.2604 2.88564 15.0895 2.78571 14.9242C2.75496 14.8734 2.72421 14.8228 2.69405 14.772C2.56574 14.5573 2.57934 14.4766 2.77063 14.3173C2.83508 14.2635 2.90042 14.2105 2.96546 14.1576C3.06776 14.0745 3.1736 13.9885 3.27501 13.9007C3.34567 13.8395 3.4113 13.8111 3.48137 13.8111C3.53341 13.8111 3.58958 13.8268 3.65314 13.859C3.86631 13.9672 4.08006 14.0222 4.2882 14.0222C4.49634 14.0222 4.70477 13.9669 4.90493 13.8578C4.91912 13.8501 4.92858 13.8404 4.93952 13.8292C4.94454 13.8241 4.95075 13.8176 4.95933 13.8093L5.00486 13.7662L4.95933 13.7233C4.04399 12.8612 3.83615 11.8072 4.32486 10.5004L4.33876 10.4635L4.31008 10.4366C4.15368 10.2896 3.95027 10.2086 3.73681 10.2086C3.48758 10.2086 3.25076 10.3156 3.07012 10.5105C2.85577 10.7414 2.73131 11.0169 2.69997 11.3294C2.68252 11.5053 2.67691 11.6842 2.67158 11.8572C2.6704 11.8938 2.66922 11.9302 2.66804 11.9666C2.64557 12.6256 2.23609 13.1403 1.59956 13.31C1.39881 13.3635 1.1886 13.3895 0.957109 13.3895C0.889996 13.3895 0.819927 13.3872 0.748971 13.3827C0.643719 13.3762 0.564189 13.3301 0.525164 13.2529C0.485251 13.174 0.493233 13.0744 0.546155 12.9928C0.883196 12.47 1.01742 11.8433 0.956222 11.0766C0.909213 10.4892 0.884083 10.0002 1.01713 9.5029C1.18092 8.8912 1.43281 8.44891 1.80947 8.11098C2.05634 7.88954 2.34637 7.74585 2.67158 7.68347C2.6908 7.67992 2.71002 7.67785 2.72894 7.67785C2.84011 7.67785 2.93264 7.74201 2.95955 7.8375C2.9971 7.97055 2.93501 8.0758 2.78984 8.12606C2.75023 8.13966 2.70854 8.15178 2.66833 8.16361C2.60181 8.18282 2.53322 8.20293 2.46759 8.23131C2.13173 8.37677 1.87688 8.64079 1.66578 9.06179C1.45262 9.48664 1.35801 9.965 1.38403 10.4842C1.38965 10.5986 1.39733 10.7145 1.40472 10.8265C1.41566 10.9948 1.42719 11.1689 1.43251 11.3395C1.44582 11.7824 1.37279 12.2306 1.21492 12.6714C1.20516 12.6989 1.19659 12.727 1.18594 12.7624C1.18003 12.7817 1.17352 12.8032 1.16554 12.829L1.13746 12.9197L1.23118 12.905C1.25749 12.9008 1.28173 12.8976 1.30479 12.8943C1.3521 12.8878 1.39674 12.8819 1.44079 12.8712C1.92182 12.7533 2.18169 12.4269 2.21333 11.9015C2.21835 11.8193 2.22042 11.7359 2.22249 11.6552C2.22634 11.4985 2.23047 11.3365 2.2559 11.1831C2.3514 10.608 2.63226 10.182 3.09111 9.91711C3.29955 9.79678 3.51478 9.73558 3.7309 9.73558C3.93372 9.73558 4.14304 9.78939 4.35324 9.89523C4.38517 9.9112 4.41622 9.92894 4.45229 9.94963C4.47032 9.95998 4.48924 9.97092 4.50964 9.98215L4.55222 10.0058L4.97086 9.51266L4.95134 9.47718C4.71837 9.04937 4.37897 8.69962 3.94199 8.43827C3.91893 8.42437 3.89528 8.41136 3.87193 8.39865C3.82994 8.37559 3.79003 8.35371 3.75426 8.3274C3.64782 8.24964 3.61974 8.13463 3.68093 8.02702C3.72173 7.95517 3.79328 7.91053 3.8669 7.91053C3.89706 7.91053 3.92751 7.91792 3.95678 7.93211C4.13653 8.01992 4.31126 8.1234 4.47653 8.23988C4.76775 8.44536 5.0158 8.70997 5.23487 9.04908C5.25734 9.08397 5.28011 9.11826 5.30524 9.1564L5.36939 9.25397L5.59823 9.18035L5.6003 9.13955C5.60384 9.07037 5.60591 9.00266 5.60769 8.93525C5.61212 8.79098 5.61626 8.65439 5.63311 8.51927C5.69431 8.02968 5.84036 7.51436 6.07955 6.94316C6.27645 6.47249 6.49227 6.00004 6.701 5.54296C6.75688 5.42027 6.81305 5.29787 6.86864 5.17517C7.02444 4.83192 7.25594 4.61906 7.57613 4.52445C7.60185 4.51676 7.62166 4.50139 7.63762 4.48926C7.64265 4.48542 7.64768 4.48128 7.653 4.47803L7.70237 4.44551L7.66985 4.39613C7.18291 3.65701 7.22637 2.99032 7.34877 2.56103C7.51759 1.96855 7.94392 1.46447 8.4888 1.21228C8.79362 1.07125 9.10168 1 9.40354 1C9.74236 1 10.0803 1.08988 10.4082 1.26697C11.0069 1.59041 11.3779 2.11578 11.5112 2.8283L11.5186 2.86821L11.5585 2.87561C11.6044 2.88418 11.649 2.89216 11.6934 2.90014C11.801 2.91936 11.903 2.93769 12.0041 2.96016C12.0603 2.97287 12.1129 2.99475 12.1519 3.02225C12.2249 3.0734 12.2524 3.1612 12.2255 3.25699C12.1992 3.35101 12.1209 3.41428 12.0304 3.41428H12.0236C11.9281 3.41103 11.8338 3.39743 11.7339 3.38294C11.6904 3.37673 11.6469 3.37052 11.6035 3.36491L11.5517 3.3584L11.539 3.40896C11.3841 4.02509 11.1136 4.4934 10.7352 4.80088C10.3529 5.11131 9.84643 5.26889 9.23 5.26889C9.18565 5.26889 9.13982 5.26801 9.09429 5.26653L8.99968 5.26328L9.03841 5.3499C9.06207 5.40312 9.08631 5.45663 9.11026 5.51044C9.17323 5.65028 9.23827 5.79486 9.30007 5.93884C9.3252 5.99738 9.34057 6.05148 9.34589 6.09997C9.35653 6.19605 9.30302 6.28889 9.2161 6.32496C9.18949 6.33619 9.15934 6.34211 9.12918 6.34211C9.06266 6.34211 9.00057 6.31372 8.96302 6.26642C8.92784 6.22237 8.90242 6.16826 8.87522 6.1112C8.86812 6.09612 8.86102 6.08134 8.85363 6.06656C8.81076 5.97934 8.76849 5.88976 8.72769 5.80284C8.64313 5.62338 8.55591 5.43771 8.45569 5.2618C8.33772 5.05514 8.13195 4.93156 7.90519 4.93156C7.74672 4.93156 7.59268 4.99335 7.47117 5.1054C7.41086 5.16098 7.35853 5.22987 7.32394 5.29905C6.94166 6.0636 6.54933 6.89497 6.26817 7.79404C6.26344 7.80912 6.26137 7.82302 6.25841 7.84224C6.25694 7.85258 6.25487 7.8653 6.25221 7.88126L6.24156 7.94364L8.00009 8.12399L7.97348 8.03855C7.96757 8.01963 7.96254 8.00189 7.95752 7.98533C7.94776 7.95133 7.9383 7.9191 7.92559 7.88777C7.83216 7.65952 7.73814 7.43128 7.64442 7.20304C7.55632 6.98869 7.46822 6.77464 7.38041 6.5603L7.37686 6.55202C7.35735 6.50412 7.33872 6.45918 7.33044 6.41365C7.30827 6.29391 7.36503 6.18748 7.47117 6.14905C7.49748 6.13959 7.52409 6.13456 7.55041 6.13456C7.62698 6.13456 7.69527 6.17447 7.74199 6.24691C7.77037 6.29066 7.79077 6.34092 7.81265 6.39414L7.81708 6.40508C7.98176 6.80509 8.14614 7.20511 8.31052 7.60512C8.43647 7.91201 8.69871 8.54973 8.69871 8.54973C8.71941 8.60028 8.74069 8.65291 8.76937 8.70228C8.87344 8.88145 9.0189 8.97605 9.19008 8.97605H9.19363C9.55019 8.97339 9.91265 8.96275 10.263 8.9527C10.3795 8.94945 10.496 8.9459 10.6125 8.94294C10.6367 8.94235 10.6541 8.93023 10.6669 8.92165C10.671 8.91899 10.6757 8.91545 10.6813 8.91219L10.7109 8.89505V7.87476H10.6518C10.6021 7.87476 10.5536 7.87476 10.5054 7.87446C10.4581 7.87446 10.4117 7.87417 10.3653 7.87417C10.3035 7.87417 10.2426 7.87417 10.1814 7.87535C10.1199 7.87624 10.0578 7.8789 9.9978 7.88156C9.93571 7.88422 9.87126 7.88717 9.80858 7.88777H9.80297C9.66549 7.88777 9.57827 7.83041 9.5289 7.70742C9.50288 7.64238 9.47509 7.57674 9.44819 7.51318C9.39438 7.38605 9.3385 7.25448 9.29474 7.12262C9.27168 7.05374 9.27139 6.96238 9.29386 6.89024C9.31573 6.81988 9.38048 6.77789 9.47184 6.77494C9.47539 6.77494 9.47893 6.77494 9.48248 6.77494C9.57857 6.77494 9.64805 6.81781 9.68944 6.90266C9.73999 7.00643 9.78611 7.11553 9.83076 7.22107C9.85057 7.26779 9.87037 7.3145 9.89048 7.36121L9.90585 7.39669H11.8181L11.8353 7.36801C11.8444 7.35293 11.8542 7.33697 11.8648 7.32012C11.8894 7.2805 11.9175 7.23556 11.9426 7.18885C12.2459 6.62859 12.5776 6.1452 12.9576 5.7106C13.5249 5.06135 14.0834 4.64803 14.7152 4.41033C15.0916 4.26871 15.4493 4.19982 15.8088 4.19982C15.9285 4.19982 16.0498 4.20781 16.1686 4.22377C16.1887 4.22643 16.2079 4.22791 16.2263 4.22791C16.3185 4.22791 16.3921 4.1945 16.4649 4.12C16.6523 3.92812 16.8829 3.71496 17.1738 3.5896C17.301 3.53491 17.4399 3.4944 17.5868 3.46898C17.6064 3.46572 17.6253 3.46395 17.6436 3.46395C17.7122 3.46395 17.7696 3.48701 17.8098 3.53047C17.8535 3.57778 17.8739 3.64814 17.8674 3.72856C17.8441 4.02155 17.8092 4.33198 17.7639 4.65158C17.7361 4.84759 17.7589 5.01848 17.8358 5.18907C18.2133 6.02931 18.5929 6.88522 18.9601 7.71333C19.1133 8.05836 19.2661 8.40338 19.4196 8.7484C19.4376 8.78891 19.4586 8.82705 19.4793 8.864C19.4861 8.87642 19.4932 8.88884 19.5 8.90155V9.08663C19.4326 9.15551 19.3658 9.2244 19.2987 9.29358C19.1408 9.45619 18.9779 9.62442 18.8129 9.78466C18.5977 9.99339 18.3523 10.1037 18.1031 10.1037C17.8538 10.1037 17.6138 9.99605 17.3985 9.79264C17.3119 9.71074 17.225 9.66315 17.1165 9.63801C16.9817 9.60668 16.8454 9.56972 16.7135 9.53365C16.6159 9.50704 16.5151 9.47955 16.4149 9.45442C16.3898 9.44821 16.3626 9.44466 16.3362 9.44466C16.299 9.44466 16.2644 9.45146 16.2366 9.46417C16.0781 9.53661 15.9223 9.61318 15.7574 9.69389C15.6994 9.72228 15.6403 9.75125 15.5797 9.78052L15.5214 9.8089L15.5548 9.86419C15.8883 10.4176 16.1124 10.9034 16.121 11.474C16.1293 12.0186 15.9874 12.562 15.6876 13.135L15.6574 13.1926L15.7177 13.2172C15.7438 13.2278 15.7686 13.2379 15.7925 13.2479C15.8416 13.2683 15.8883 13.2875 15.9353 13.305C16.0864 13.3617 16.2372 13.4188 16.3883 13.4759C16.8057 13.6337 17.2374 13.7969 17.6652 13.9498C17.8494 14.0157 17.944 14.1207 17.9913 14.3119C18.1628 15.0052 18.2263 15.5806 18.1912 16.1222C18.1382 16.9418 17.9224 17.5647 17.5123 18.0827C17.1744 18.5093 16.704 18.8259 16.0743 19.0515C16.0385 19.0642 16.0033 19.071 15.9705 19.071C15.8605 19.071 15.7825 18.9971 15.7615 18.8732C15.7334 18.7086 15.7213 18.5368 15.7095 18.3709C15.7062 18.3239 15.7027 18.2766 15.6991 18.2296C15.6885 18.0939 15.6793 17.9558 15.6707 17.8222C15.6639 17.7161 15.6568 17.6099 15.6492 17.5041C15.6293 17.2345 15.6574 17.194 15.9226 17.1076C16.0894 17.0535 16.2558 16.9988 16.4238 16.9435L16.691 16.856V15.1191L14.6862 15.0218L14.7578 15.1214C14.774 15.1442 14.7882 15.1643 14.8012 15.1829C14.8261 15.2184 14.8476 15.2492 14.871 15.2784C15.0271 15.4727 15.1835 15.6663 15.3402 15.8603C15.4339 15.9762 15.5276 16.0924 15.6211 16.2083L15.6412 16.2328C15.6657 16.2627 15.6888 16.2907 15.7074 16.3209C15.7562 16.3989 15.7671 16.4826 15.7381 16.5503C15.7104 16.6151 15.6492 16.6603 15.5652 16.6774C15.4324 16.7049 15.2929 16.7182 15.1581 16.7313C15.1294 16.7339 15.1007 16.7369 15.072 16.7395C14.6732 16.7797 14.2747 16.8188 13.8758 16.8581C13.6003 16.8853 13.3245 16.9125 13.0489 16.9397C12.9307 16.9515 12.8121 16.9639 12.6938 16.9764C12.4396 17.0033 12.1767 17.0308 11.918 17.0509C11.9033 17.052 11.8885 17.0526 11.8731 17.0526C11.7903 17.0526 11.7081 17.0361 11.6422 17.0065C11.2194 16.8155 10.8046 16.6165 10.3452 16.3951C10.2636 16.3558 10.1628 16.289 10.1462 16.1932C10.13 16.1 10.1985 16.0066 10.2592 15.9445C10.579 15.6175 10.8992 15.3003 11.1426 15.0605C11.2253 14.9789 11.2913 14.9426 11.356 14.9426C11.4134 14.9426 11.4778 14.9713 11.5591 15.0325C11.6079 15.0694 11.6573 15.1061 11.7064 15.1427C11.8781 15.2707 12.0558 15.4032 12.2196 15.5448C12.3426 15.651 12.4668 15.7006 12.6102 15.7006C12.6589 15.7006 12.7089 15.695 12.763 15.6832L12.8609 15.6619L12.7949 15.5865C12.7819 15.5717 12.7698 15.5575 12.7583 15.5433C12.7329 15.5132 12.7086 15.4845 12.6814 15.4573C12.5543 15.3299 12.4269 15.2024 12.2994 15.0753C12.0481 14.8243 11.7883 14.5647 11.5349 14.3075C11.4636 14.2351 11.3705 14.1609 11.2215 14.1609H11.2123C11.1343 14.1609 11.0562 14.1517 10.9661 14.1414C10.9229 14.1363 10.878 14.131 10.8304 14.1266L10.7656 14.1204V14.1854C10.7656 14.2173 10.7656 14.2472 10.7656 14.2759C10.7656 14.3335 10.7662 14.3859 10.765 14.4382C10.7609 14.6664 10.6864 14.7398 10.4584 14.7406H10.42C10.0986 14.7421 9.77724 14.7433 9.45587 14.7433C9.09074 14.7433 8.77174 14.7418 8.48023 14.7383H8.47165C8.30993 14.7383 8.20054 14.7933 8.10564 14.9219C7.74613 15.4103 7.33162 15.7423 6.83848 15.9365C6.59279 16.0335 6.33558 16.0826 6.07363 16.0826C5.96188 16.0826 5.84746 16.0737 5.73334 16.056C5.51545 16.0223 5.30258 15.9776 5.07729 15.93C4.97707 15.9091 4.87595 15.8878 4.77307 15.8671L4.69383 15.8514L4.7027 15.9318C4.7098 15.9951 4.71748 16.0589 4.72517 16.1231C4.74173 16.2609 4.75888 16.4034 4.76952 16.5444C4.86028 17.7468 4.58178 18.7068 3.91805 19.4793C3.82403 19.5887 3.73681 19.6786 3.65078 19.7543C3.59254 19.8054 3.53104 19.8326 3.47221 19.8326V19.8309ZM3.17035 18.6766L3.53902 19.2493L3.99492 18.5646L3.59934 18.2876L3.17035 18.6766ZM16.1107 17.5334L16.1902 18.514L16.2685 18.475C16.6325 18.2938 16.8862 18.1037 17.0905 17.8592L17.1168 17.8275L16.8164 17.303L16.1104 17.5331L16.1107 17.5334ZM3.14936 14.6103L3.22859 14.7483C3.26821 14.8172 3.30605 14.8834 3.34448 14.9497C3.59254 15.3778 3.76845 15.7799 3.88257 16.179C4.05552 16.7842 4.04991 17.3169 3.86542 17.8077C3.85685 17.8308 3.86128 17.8509 3.86542 17.8671C3.8666 17.8725 3.86808 17.8787 3.86926 17.8861L3.87311 17.9118L4.14718 18.0986L4.17438 18.0295C4.18088 18.0126 4.18709 17.9984 4.19241 17.9857C4.20305 17.9606 4.21222 17.939 4.21813 17.9156C4.3361 17.4441 4.35797 16.9285 4.28495 16.3386C4.26159 16.1506 4.21843 15.9635 4.17674 15.7825C4.16018 15.711 4.14363 15.6397 4.12855 15.5682C4.10135 15.4404 4.10076 15.352 4.17999 15.2772C4.22552 15.2344 4.27312 15.2143 4.32989 15.2143C4.3695 15.2143 4.41356 15.224 4.46441 15.2444C4.52383 15.2681 4.57764 15.2864 4.62879 15.3006C4.72399 15.3272 4.81889 15.3547 4.9138 15.3825C5.14352 15.4493 5.38092 15.5185 5.61892 15.5699C5.77 15.6025 5.91871 15.619 6.06062 15.619C6.34267 15.619 6.61024 15.554 6.85592 15.426C7.18676 15.2536 7.47679 14.9928 7.76919 14.6052C7.80171 14.5621 7.81176 14.5062 7.81827 14.4571C7.85167 14.2141 7.88656 13.948 7.92529 13.6435C8.00896 12.9842 8.09233 12.3246 8.17482 11.665C8.19463 11.5056 8.21355 11.3463 8.23277 11.1849C8.24164 11.1106 8.26529 10.9111 8.26529 10.9111L8.21739 10.8969C8.20025 10.8919 8.18428 10.8868 8.1695 10.8818C8.13786 10.8715 8.108 10.862 8.07637 10.8561C7.69114 10.7843 7.3062 10.6651 6.89909 10.4919C6.57299 10.3532 6.30897 10.1829 6.09137 9.9718C6.02042 9.90292 5.95655 9.82871 5.88885 9.75007C5.8581 9.71429 5.82736 9.67852 5.79572 9.64304L5.7703 9.61436L5.73363 9.62619C5.38447 9.73765 5.11809 9.97062 4.91941 10.3378C4.70241 10.739 4.57528 11.1512 4.54157 11.5633C4.49929 12.0798 4.61844 12.5446 4.89606 12.9452C5.05837 13.1793 5.2603 13.3815 5.51308 13.5628C5.59261 13.6198 5.63725 13.6864 5.64228 13.7549C5.64701 13.8197 5.61597 13.8859 5.55299 13.9468C5.18668 14.3001 4.76715 14.4793 4.30683 14.4793C4.1797 14.4793 4.04725 14.4657 3.91272 14.4388C3.82521 14.4213 3.74006 14.3956 3.64989 14.3684C3.60791 14.3557 3.56563 14.343 3.52276 14.3309L3.49261 14.3223L3.15054 14.6106L3.14936 14.6103ZM10.8067 13.6665C10.8304 13.6665 10.8549 13.6689 10.8806 13.6716C10.9025 13.6736 10.9253 13.676 10.9486 13.6769C11.5015 13.6961 12.057 13.8114 12.5998 14.0196C12.6347 14.0329 12.6696 14.0465 12.7042 14.0601C12.8357 14.1112 12.972 14.1641 13.1098 14.2076C13.7257 14.403 14.4193 14.5236 15.2302 14.5766C15.7438 14.6103 16.2668 14.6194 16.7726 14.6286L16.7989 14.6292C17.0715 14.6342 17.162 14.7229 17.1576 14.9813C17.1522 15.2793 17.1531 15.5821 17.154 15.8751C17.1549 16.1633 17.1558 16.4613 17.1508 16.7543C17.1472 16.9654 17.2338 17.1227 17.3648 17.2936L17.4313 17.3802L17.4677 17.2773C17.4828 17.2342 17.4979 17.1937 17.5126 17.1546C17.5425 17.0742 17.5709 16.9982 17.5925 16.9205C17.7793 16.2449 17.7761 15.5028 17.5818 14.5851C17.5537 14.4518 17.4843 14.374 17.35 14.3253C16.819 14.1319 16.281 13.9294 15.7606 13.734C15.6214 13.6816 15.4824 13.6293 15.3432 13.577C15.2923 13.5577 15.242 13.5391 15.1992 13.514C15.0747 13.4416 15.0407 13.3363 15.1007 13.2095C15.1247 13.1589 15.1554 13.1113 15.1879 13.0608C15.2027 13.0377 15.2175 13.0146 15.232 12.9913C15.4735 12.5942 15.6169 12.1611 15.6577 11.7043C15.7169 11.0441 15.4017 10.5069 15.0972 9.98747L15.046 9.90026L15.0088 9.90351C14.9576 9.90794 14.9071 9.91297 14.8568 9.918C14.7483 9.92864 14.6457 9.93899 14.5419 9.94313C14.4598 9.94638 14.3764 9.94815 14.2945 9.94815C13.8717 9.94815 13.4486 9.90351 13.0371 9.81511C12.716 9.74622 12.3929 9.65753 12.0801 9.57179C11.934 9.53188 11.7832 9.49049 11.6342 9.45146C11.6156 9.44673 11.597 9.44111 11.5781 9.43549C11.5174 9.41746 11.4545 9.39913 11.3888 9.39913H11.3838C11.1236 9.40297 10.8682 9.41214 10.5977 9.4216C10.501 9.42485 10.4034 9.4284 10.305 9.43165L10.2216 9.43431L10.2518 9.51207C10.4049 9.90706 10.4321 10.0395 10.4046 10.2586C10.3511 10.6846 10.2949 11.1174 10.2408 11.5358C10.2089 11.7818 10.177 12.0278 10.1453 12.2734C10.1184 12.4828 10.0927 12.6924 10.0679 12.8916L10.0321 13.1796L10.0602 13.2C10.111 13.2373 10.1607 13.2716 10.2086 13.3047C10.3118 13.3759 10.4093 13.4433 10.4898 13.5223C10.5666 13.5977 10.6571 13.6674 10.7981 13.6674H10.8073L10.8067 13.6665ZM12.2554 16.5459L12.3668 16.537C12.8987 16.4953 13.4229 16.44 13.9297 16.3865C14.2643 16.3513 14.6105 16.3147 14.955 16.2828L15.0567 16.2733L14.9978 16.1899C14.9834 16.1692 14.9703 16.1503 14.9582 16.1326C14.934 16.0971 14.9133 16.0663 14.8893 16.0371C14.8063 15.9342 14.7229 15.8316 14.6392 15.729C14.4592 15.5079 14.2729 15.2793 14.0958 15.0499C14.0089 14.937 13.9033 14.8737 13.7534 14.8444C13.4436 14.7841 13.0389 14.6945 12.6557 14.5358C12.6391 14.529 12.6232 14.5245 12.5992 14.518C12.5859 14.5145 12.5697 14.51 12.5487 14.5038L12.3379 14.442L12.4892 14.6011C12.5123 14.6253 12.5324 14.6466 12.5501 14.6658C12.5841 14.7022 12.6113 14.7309 12.6391 14.7587C12.7544 14.8743 12.87 14.9899 12.9856 15.1052C13.1778 15.2974 13.37 15.4895 13.5616 15.682L13.574 15.6944C13.6112 15.7314 13.6494 15.7698 13.6739 15.8109C13.7132 15.8774 13.7177 15.954 13.686 16.0214C13.6541 16.0894 13.5911 16.1355 13.5137 16.1479C13.4797 16.1533 13.4433 16.1541 13.4126 16.1541C13.4007 16.1541 13.3366 16.1536 13.3366 16.1536C13.2077 16.1536 13.0791 16.1539 12.9499 16.1539H12.4792L12.2548 16.545L12.2554 16.5459ZM10.8097 16.1033L11.7206 16.5352L12.0399 15.9856L11.4125 15.5014L10.8097 16.103V16.1033ZM8.60115 11.987C8.58193 12.1366 8.56242 12.2859 8.5429 12.4352C8.46751 13.0135 8.38976 13.6113 8.32708 14.2058L8.32028 14.2712H10.2923L10.2893 14.2094C10.2745 13.8924 10.1137 13.7168 9.78286 13.6565C9.57798 13.6192 9.51412 13.5344 9.53895 13.3331C9.55462 13.2065 9.57265 13.0782 9.5901 12.9537C9.60429 12.8529 9.61848 12.7521 9.63149 12.651C9.65071 12.5032 9.66785 12.358 9.68618 12.2043C9.69417 12.1374 9.71841 11.9352 9.71841 11.9352H8.60736L8.60085 11.987H8.60115ZM6.1165 8.45098C5.96129 9.10762 6.14548 9.53306 6.73323 9.87394C6.92954 9.98777 7.16429 10.1149 7.41677 10.1947C7.68434 10.2793 7.96225 10.3414 8.23099 10.4017C8.31585 10.4206 8.40099 10.4398 8.48555 10.4596C8.71616 10.5131 8.76257 10.5735 8.7469 10.7979C8.74483 10.8256 8.74069 10.8537 8.73626 10.8833C8.7333 10.9031 8.73035 10.9229 8.72798 10.9427C8.71616 11.0418 8.70463 11.1411 8.6925 11.2452L8.66944 11.4438H9.78405L9.79084 11.3924C9.80237 11.3052 9.81391 11.2192 9.82544 11.134C9.85323 10.9268 9.87954 10.731 9.90437 10.5312C9.92152 10.3925 9.93749 10.2568 9.94222 10.1182C9.94813 9.93899 9.88072 9.77815 9.74147 9.64068C9.64272 9.54282 9.51234 9.44289 9.29622 9.44289H9.2841C8.80426 9.44289 8.46781 9.2111 8.28391 8.75402C8.27386 8.72919 8.26233 8.70642 8.24873 8.68011C8.24223 8.66769 8.23543 8.65409 8.22804 8.63931L8.21355 8.60974L6.12833 8.40013L6.1165 8.45039V8.45098ZM18.624 8.28216C18.2163 8.59082 17.9156 8.94797 17.7045 9.37341L17.6853 9.41214L17.7163 9.44229C17.8491 9.57061 17.9827 9.63565 18.1137 9.63565C18.2237 9.63565 18.3307 9.59012 18.4321 9.49995C18.5616 9.38464 18.6784 9.26195 18.8023 9.13216C18.8558 9.07598 18.9099 9.01922 18.9652 8.96275L18.9933 8.93407L18.6831 8.23722L18.6237 8.28216H18.624ZM15.831 4.66666C15.501 4.66666 15.1764 4.72756 14.866 4.84789C14.3022 5.06637 13.8028 5.44155 13.294 6.02931C12.9389 6.43967 12.6273 6.89527 12.3417 7.42271C12.3136 7.47445 12.285 7.52619 12.2572 7.57615L12.2019 7.67608L12.2246 7.70653C12.5646 8.16183 12.5673 8.6059 12.2332 9.06445L12.1832 9.13275L12.2646 9.15611C13.0182 9.37104 13.6597 9.47127 14.2838 9.47127C14.463 9.47127 14.6434 9.46269 14.8193 9.44555L14.8837 9.43934L14.8618 9.32403C14.8562 9.29447 14.8518 9.27082 14.8468 9.24716C14.7584 8.83178 14.7569 8.4362 14.842 8.07196C14.8716 7.94571 14.9183 7.81917 14.9635 7.69707C14.9922 7.61991 15.0218 7.53978 15.0472 7.45966C15.2515 6.81544 15.6205 6.23035 16.1745 5.67127C16.4581 5.38509 16.7845 5.12935 17.1443 4.91086L17.149 4.90791C17.2096 4.87125 17.2853 4.82542 17.2947 4.71544C17.3063 4.5821 17.3214 4.44699 17.3373 4.30389C17.3441 4.2424 17.3512 4.17883 17.3583 4.11231L17.3719 3.98429L17.2658 4.05732C17.2374 4.07683 17.2108 4.09398 17.1862 4.10995C17.133 4.14424 17.0872 4.17381 17.0455 4.21165C16.9071 4.3376 16.7833 4.45201 16.6677 4.57973C16.5843 4.67168 16.4968 4.71278 16.3838 4.71278C16.354 4.71278 16.3229 4.71012 16.2884 4.7045C16.1346 4.67937 15.9803 4.66666 15.8298 4.66666H15.831ZM15.2252 8.67449L15.3346 9.35715L15.8215 9.16497L15.3372 8.63546L15.2252 8.67449ZM16.7827 9.08633L17.2525 9.18774L17.7693 8.40368L17.3908 8.11157L16.7827 9.08604V9.08633ZM11.4524 7.84992C11.3912 7.84992 11.3247 7.85583 11.2372 7.86855L11.1866 7.87594V8.92431L11.2398 8.92964C11.3025 8.93614 11.3569 8.9391 11.406 8.9391C11.565 8.9391 11.7933 8.91072 11.9411 8.66621C12.0585 8.47197 12.0499 8.26206 11.9172 8.07521C11.8078 7.92117 11.6599 7.84963 11.4524 7.84963V7.84992ZM15.99 6.61292C15.7766 6.90088 15.6104 7.23113 15.4815 7.62227C15.4635 7.67697 15.4727 7.73462 15.4797 7.76418C15.593 8.23693 15.8381 8.58993 16.2298 8.84301L16.2674 8.86725L16.3011 8.83799C16.5929 8.58313 16.8037 8.26147 16.9456 7.85436C16.9651 7.79877 16.9822 7.71451 16.9089 7.62552C16.7064 7.37984 16.5083 7.13534 16.299 6.87635C16.228 6.78883 16.0359 6.55172 16.0359 6.55172L15.9903 6.61292H15.99ZM17.337 5.35582C17.0171 5.53025 16.5592 5.90868 16.3945 6.13485L16.37 6.16856L16.3936 6.20315C16.8258 6.83229 17.3488 7.54659 18.0892 8.05806L18.1252 8.08289L18.4892 7.79552L17.3935 5.32536L17.337 5.35611V5.35582ZM9.22083 2.95395C9.12741 2.95395 9.05379 2.99357 8.98224 3.08227C8.80367 3.30371 8.61682 3.52485 8.43647 3.7389C8.35191 3.83913 8.26736 3.93936 8.1831 4.04017C8.16477 4.06205 8.15028 4.0857 8.13786 4.10669C8.13284 4.11497 8.12811 4.12295 8.12338 4.13035L8.10091 4.16494L8.12574 4.19805C8.40395 4.56968 8.89384 4.80058 9.40384 4.80058C9.57029 4.80058 9.73556 4.77605 9.8955 4.72756C10.5187 4.53834 11.0222 3.91896 11.0417 3.31701L11.0435 3.26586L10.5578 3.17894L10.5442 3.23186C10.5359 3.26379 10.5285 3.29425 10.5211 3.32381C10.5066 3.38324 10.4927 3.43911 10.4759 3.49233C10.4392 3.60734 10.3552 3.67889 10.2565 3.67889C10.2405 3.67889 10.2243 3.67711 10.208 3.67327C10.0821 3.6443 10.009 3.52515 10.0306 3.38353C10.0374 3.33948 10.0451 3.29543 10.0546 3.24369C10.0593 3.21738 10.0643 3.18899 10.0699 3.15736L10.08 3.09882L10.0215 3.08877C9.94606 3.07576 9.87244 3.06393 9.80001 3.05211C9.62971 3.02461 9.46888 2.9986 9.30953 2.964C9.2773 2.95691 9.24833 2.95366 9.22083 2.95366V2.95395ZM7.7748 2.76681C7.71242 3.07133 7.72307 3.33564 7.8088 3.6239L7.84014 3.72915L8.584 2.84308L7.78633 2.71122L7.7748 2.7671V2.76681ZM9.44168 1.47215C8.81461 1.47215 8.20498 1.79737 8.0539 2.21246L8.02965 2.27898L11.0066 2.78484L10.9909 2.70147C10.875 2.08267 10.2441 1.53394 9.58418 1.47807C9.53747 1.47422 9.48958 1.47215 9.44139 1.47215H9.44168Z" fill="black" stroke="black" stroke-width="0.1"/>
        <path d="M17.1552 6.49436C17.0948 6.49436 17.0354 6.46894 16.9923 6.42459C16.9491 6.38024 16.9263 6.32289 16.9278 6.26287C16.9311 6.14698 17.0413 6.04025 17.1593 6.03906C17.2781 6.03906 17.3775 6.14343 17.3784 6.26701C17.3793 6.39591 17.2873 6.49141 17.1602 6.49436H17.1552Z" fill="black" stroke="black" stroke-width="0.1"/>
    </g>
    <defs>
        <clipPath id="clip0_583_13383">
            <rect width="20" height="20" fill="white"/>
        </clipPath>
    </defs>
</svg>
